{
.appVersion = "1192";
DisplayStrings = (
"Hepta Slab\012ABCDEFGHIJKLMNOPQRSTUVWXYZ\012/a.sc/b.sc/c.sc/d.sc/e.sc/f.sc/g.sc/h.sc/i.sc/j.sc/k.sc/l.sc/m.sc/n.sc/o.sc/p.sc/q.sc/r.sc/s.sc/t.sc/u.sc/v.sc/w.sc/x.sc/y.sc/z.sc \012abcdefghijklmnopqrstuvwxyz\0120123456789 &"
);
classes = (
{
automatic = 1;

glyphs = (
{
glyphname = A;
layers = (
{
anchors = (
{
name = bottom;
position = "{850, 0}";
},
{
name = ogonek;
position = "{1662, 0}";
},
{
name = top;
position = "{850, 1464}";
}
);
layerId = "67AEAADB-8447-4819-9D92-8BB76BD22042";
leftMetricsKey = "=H-16";
paths = (
{
closed = 1;
nodes = (
"436 556 LINE",
"436 546 LINE",
"1264 546 LINE",
"1264 556 LINE"
);
},
{
closed = 1;
nodes = (
"858 1504 LINE",
"842 1504 LINE",
"196 10 LINE",
"38 10 LINE",
"38 0 LINE",
"630 0 LINE",
"630 10 LINE",
"208 10 LINE",
"854 1504 LINE",
"842 1492 LINE",
"860 1492 LINE",
"846 1504 LINE",
"1492 10 LINE",
"1070 10 LINE",
"1070 0 LINE",
"1662 0 LINE",
"1662 10 LINE",
"1504 10 LINE"
);
}
);
width = 1700;
},
{
anchors = (
{
name = bottom;
position = "{850, 0}";
},
{
name = ogonek;
position = "{1712, 0}";
},
{
name = top;
position = "{850, 1544}";
}
);
layerId = "BE4E587A-F76C-447B-AA28-A45E40876AAF";
leftMetricsKey = "=H-16";
paths = (
{
closed = 1;
nodes = (
"388 880 LINE",
"388 526 LINE",
"1300 526 LINE",
"1300 880 LINE"
);
},
{
closed = 1;
nodes = (
"1212 1544 LINE",
"536 1544 LINE",
"130 414 LINE",
"26 414 LINE",
"26 0 LINE",
"770 0 LINE",
"770 414 LINE",
"620 414 LINE",
"922 1440 LINE",
"752 1120 LINE",
"948 1120 LINE",
"744 1440 LINE",
"1046 414 LINE",
"920 414 LINE",
"920 0 LINE",
"1712 0 LINE",
"1712 414 LINE",
"1618 414 LINE"
);
}
);
width = 1738;
},
{
anchors = (
{
name = bottom;
position = "{804, 0}";
},
{
name = ogonek;
position = "{1584, 0}";
},
{
name = top;
position = "{804, 1464}";
}
);
layerId = "2C5E45D0-97E8-45AA-A5B2-946753DF54E1";
leftMetricsKey = "=H-32";
paths = (
{
closed = 1;
nodes = (
"404 640 LINE",
"404 462 LINE",
"1204 462 LINE",
"1204 640 LINE"
);
},
{
closed = 1;
nodes = (
"916 1504 LINE",
"686 1504 LINE",
"156 186 LINE",
"24 186 LINE",
"24 0 LINE",
"654 0 LINE",
"654 186 LINE",
"360 186 LINE",
"822 1340 LINE",
"698 1256 LINE",
"894 1256 LINE",
"770 1340 LINE",
"1232 186 LINE",
"938 186 LINE",
"938 0 LINE",
"1578 0 LINE",
"1578 186 LINE",
"1446 186 LINE"
);
}
);
width = 1602;
},
{
anchors = (
{
name = bottom;
position = "{858, 0}";
},
{
name = ogonek;
position = "{1678, 0}";
},
{
name = top;
position = "{858, 1464}";
}
);
layerId = "A59F1195-5331-40FD-8BD6-3900E1073F61";
leftMetricsKey = "=H-18";
paths = (
{
closed = 1;
nodes = (
"446 574 LINE",
"446 528 LINE",
"1270 528 LINE",
"1270 574 LINE"
);
},
{
closed = 1;
nodes = (
"886 1504 LINE",
"828 1504 LINE",
"206 46 LINE",
"36 46 LINE",
"36 0 LINE",
"676 0 LINE",
"676 46 LINE",
"256 46 LINE",
"864 1470 LINE",
"830 1444 LINE",
"884 1444 LINE",
"848 1470 LINE",
"1456 46 LINE",
"1036 46 LINE",
"1036 0 LINE",
"1678 0 LINE",
"1678 46 LINE",
"1508 46 LINE"
);
}
);
width = 1714;
},
{
anchors = (
{
name = bottom;
position = "{800, 0}";
},
{
name = ogonek;
position = "{1580, 0}";
},
{
name = top;
position = "{800, 1464}";
}
);
associatedMasterId = "2C5E45D0-97E8-45AA-A5B2-946753DF54E1";
layerId = "46ECEFB2-7DC8-4C77-86F9-87A2222E9504";
leftMetricsKey = "=H-32";
name = "May 29 18, 15:22";
paths = (
{
closed = 1;
nodes = (
"400 640 LINE",
"400 462 LINE",
"1200 462 LINE",
"1200 640 LINE"
);
},
{
closed = 1;
nodes = (
"918 1504 LINE",
"682 1504 LINE",
"152 186 LINE",
"20 186 LINE",
"20 0 LINE",
"650 0 LINE",
"650 186 LINE",
"356 186 LINE",
"818 1340 LINE",
"694 1256 LINE",
"890 1256 LINE",
"766 1340 LINE",
"1228 186 LINE",
"934 186 LINE",
"934 0 LINE",
"1580 0 LINE",
"1580 186 LINE",
"1448 186 LINE"
);
}
);
width = 1600;
}
);
leftKerningGroup = A;
rightKerningGroup = A;
rightMetricsKey = "=|";
unicode = 0041;
},
{
glyphname = AE;
layers = (
{
anchors = (
{
name = bottom;
position = "{1360, 0}";
},
{
name = top;
position = "{1360, 1464}";
}
);
layerId = "67AEAADB-8447-4819-9D92-8BB76BD22042";
leftMetricsKey = "=A-32";
paths = (
{
closed = 1;
nodes = (
"2464 0 LINE",
"2464 374 LINE",
"2454 374 LINE",
"2454 10 LINE",
"1364 10 LINE",
"1364 1494 LINE",
"2436 1494 LINE",
"2436 1130 LINE",
"2446 1130 LINE",
"2446 1504 LINE",
"600 1504 LINE",
"600 1494 LINE",
"1354 1494 LINE",
"1354 10 LINE",
"1056 10 LINE",
"1056 0 LINE"
);
},
{
closed = 1;
nodes = (
"650 0 LINE",
"650 10 LINE",
"236 10 LINE",
"1136 1504 LINE",
"1124 1504 LINE",
"224 10 LINE",
"6 10 LINE",
"6 0 LINE"
);
},
{
closed = 1;
nodes = (
"1360 546 LINE",
"1360 556 LINE",
"556 556 LINE",
"556 546 LINE"
);
},
{
closed = 1;
nodes = (
"2066 754 LINE",
"2066 764 LINE",
"1358 764 LINE",
"1358 754 LINE"
);
}
);
width = 2582;
},
{
anchors = (
{
name = bottom;
position = "{1208, 0}";
},
{
name = top;
position = "{1208, 1464}";
}
);
layerId = "2C5E45D0-97E8-45AA-A5B2-946753DF54E1";
leftMetricsKey = "=A-22";
paths = (
{
closed = 1;
nodes = (
"2302 0 LINE",
"2302 454 LINE",
"2098 454 LINE",
"2098 186 LINE",
"1306 186 LINE",
"1306 1318 LINE",
"2080 1318 LINE",
"2080 1050 LINE",
"2284 1050 LINE",
"2284 1504 LINE",
"406 1504 LINE",
"406 1318 LINE",
"1102 1318 LINE",
"1102 186 LINE",
"882 186 LINE",
"882 0 LINE"
);
},
{
closed = 1;
nodes = (
"614 0 LINE",
"614 186 LINE",
"358 186 LINE",
"960 1444 LINE",
"736 1444 LINE",
"134 186 LINE",
"2 186 LINE",
"2 0 LINE"
);
},
{
closed = 1;
nodes = (
"1230 460 LINE",
"1230 640 LINE",
"410 640 LINE",
"410 460 LINE"
);
},
{
closed = 1;
nodes = (
"1902 668 LINE",
"1902 848 LINE",
"1218 848 LINE",
"1218 668 LINE"
);
}
);
width = 2414;
},
{
anchors = (
{
name = bottom;
position = "{1442, 0}";
},
{
name = top;
position = "{1442, 1544}";
}
);
layerId = "BE4E587A-F76C-447B-AA28-A45E40876AAF";
leftMetricsKey = "=A-14";
paths = (
{
closed = 1;
nodes = (
"2650 0 LINE",
"2650 654 LINE",
"2134 654 LINE",
"2134 414 LINE",
"1694 414 LINE",
"1694 1130 LINE",
"2116 1130 LINE",
"2116 890 LINE",
"2632 890 LINE",
"2632 1544 LINE",
"326 1544 LINE",
"326 1130 LINE",
"1178 1130 LINE",
"1178 414 LINE",
"1064 414 LINE",
"1064 0 LINE"
);
},
{
closed = 1;
nodes = (
"844 0 LINE",
"844 414 LINE",
"718 414 LINE",
"1312 1544 LINE",
"844 1544 LINE",
"146 414 LINE",
"12 414 LINE",
"12 0 LINE"
);
},
{
closed = 1;
nodes = (
"1404 504 LINE",
"1404 858 LINE",
"492 858 LINE",
"492 504 LINE"
);
},
{
closed = 1;
nodes = (
"2000 600 LINE",
"2000 954 LINE",
"1432 954 LINE",
"1432 600 LINE"
);
}
);
width = 2716;
},
{
anchors = (
{
name = top;
position = "{1258, 1464}";
}
);
associatedMasterId = "2C5E45D0-97E8-45AA-A5B2-946753DF54E1";
layerId = "77E4ACB9-B57D-420A-BA58-EB5078A5F5A8";
leftMetricsKey = "=A-22";
name = "Mar 14 18, 13:56";
paths = (
{
closed = 1;
nodes = (
"2226 0 LINE",
"2226 454 LINE",
"2022 454 LINE",
"2022 186 LINE",
"1524 186 LINE",
"1138 1318 LINE",
"2004 1318 LINE",
"2004 1050 LINE",
"2208 1050 LINE",
"2208 1504 LINE",
"404 1504 LINE",
"404 1318 LINE",
"934 1318 LINE",
"1320 186 LINE",
"1060 186 LINE",
"1060 0 LINE"
);
},
{
closed = 1;
nodes = (
"698 0 LINE",
"698 186 LINE",
"444 186 LINE",
"942 1444 LINE",
"708 1444 LINE",
"232 186 LINE",
"100 186 LINE",
"100 0 LINE"
);
},
{
closed = 1;
nodes = (
"1228 484 LINE",
"1228 664 LINE",
"448 664 LINE",
"448 484 LINE"
);
},
{
closed = 1;
nodes = (
"1826 678 LINE",
"1826 858 LINE",
"1216 858 LINE",
"1216 678 LINE"
);
}
);
width = 2410;
},
{
anchors = (
{
name = bottom;
position = "{1330, 0}";
},
{
name = top;
position = "{1330, 1464}";
}
);
layerId = "A59F1195-5331-40FD-8BD6-3900E1073F61";
leftMetricsKey = "=A-30";
paths = (
{
closed = 1;
nodes = (
"2432 0 LINE",
"2432 390 LINE",
"2382 390 LINE",
"2382 46 LINE",
"1354 46 LINE",
"1354 1458 LINE",
"2364 1458 LINE",
"2364 1114 LINE",
"2414 1114 LINE",
"2414 1504 LINE",
"562 1504 LINE",
"562 1458 LINE",
"1304 1458 LINE",
"1304 46 LINE",
"1022 46 LINE",
"1022 0 LINE"
);
},
{
closed = 1;
nodes = (
"644 0 LINE",
"644 46 LINE",
"262 46 LINE",
"1102 1492 LINE",
"1046 1492 LINE",
"208 46 LINE",
"6 46 LINE",
"6 0 LINE"
);
},
{
closed = 1;
nodes = (
"1334 528 LINE",
"1334 574 LINE",
"528 574 LINE",
"528 528 LINE"
);
},
{
closed = 1;
nodes = (
"2034 736 LINE",
"2034 782 LINE",
"1330 782 LINE",
"1330 736 LINE"
);
}
);
width = 2548;
}
);
leftKerningGroup = A;
leftMetricsKey = "A-32";
rightKerningGroup = E;
rightMetricsKey = E;
unicode = 00C6;
},
{
glyphname = B;
layers = (
{
anchors = (
{
name = bottom;
position = "{766, 0}";
},
{
name = top;
position = "{766, 1464}";
}
);
layerId = "67AEAADB-8447-4819-9D92-8BB76BD22042";
rightMetricsKey = "=O+18";
paths = (
{
closed = 1;
nodes = (
"788 1494 LINE SMOOTH",
"1098 1494 OFFCURVE",
"1286 1382 OFFCURVE",
"1286 1130 CURVE SMOOTH",
"1286 892 OFFCURVE",
"1118 776 OFFCURVE",
"806 776 CURVE SMOOTH",
"358 776 LINE",
"358 770 LINE",
"802 770 LINE SMOOTH",
"1124 770 OFFCURVE",
"1296 884 OFFCURVE",
"1296 1130 CURVE SMOOTH",
"1296 1388 OFFCURVE",
"1104 1504 OFFCURVE",
"788 1504 CURVE SMOOTH",
"562 1504 LINE",
"558 1494 LINE"
);
},
{
closed = 1;
nodes = (
"582 0 LINE",
"816 0 LINE SMOOTH",
"1150 0 OFFCURVE",
"1352 134 OFFCURVE",
"1352 390 CURVE SMOOTH",
"1352 696 OFFCURVE",
"1070 772 OFFCURVE",
"804 772 CURVE SMOOTH",
"358 772 LINE",
"358 766 LINE",
"804 766 LINE SMOOTH",
"1064 766 OFFCURVE",
"1342 688 OFFCURVE",
"1342 390 CURVE SMOOTH",
"1342 140 OFFCURVE",
"1144 10 OFFCURVE",
"816 10 CURVE SMOOTH",
"582 10 LINE"
);
},
{
closed = 1;
nodes = (
"352 1494 LINE",
"352 10 LINE",
"54 10 LINE",
"54 0 LINE",
"660 0 LINE",
"660 10 LINE",
"362 10 LINE",
"362 1494 LINE",
"660 1494 LINE",
"660 1504 LINE",
"54 1504 LINE",
"54 1494 LINE"
);
},
{
closed = 1;
nodes = (
"772 768 LINE",
"868 768 LINE",
"868 774 LINE",
"772 774 LINE"
);
}
);
width = 1474;
},
{
anchors = (
{
name = bottom;
position = "{808, 0}";
},
{
name = top;
position = "{808, 1544}";
}
);
layerId = "BE4E587A-F76C-447B-AA28-A45E40876AAF";
rightMetricsKey = "=O-8";
paths = (
{
closed = 1;
nodes = (
"908 1130 LINE SMOOTH",
"992 1130 OFFCURVE",
"1034 1098 OFFCURVE",
"1034 1042 CURVE SMOOTH",
"1034 986 OFFCURVE",
"992 956 OFFCURVE",
"908 956 CURVE SMOOTH",
"502 956 LINE",
"502 772 LINE",
"918 772 LINE SMOOTH",
"1332 772 OFFCURVE",
"1552 890 OFFCURVE",
"1552 1148 CURVE SMOOTH",
"1552 1410 OFFCURVE",
"1328 1544 OFFCURVE",
"960 1544 CURVE SMOOTH",
"756 1544 LINE",
"756 1130 LINE"
);
},
{
closed = 1;
nodes = (
"736 0 LINE",
"1026 0 LINE SMOOTH",
"1388 0 OFFCURVE",
"1608 150 OFFCURVE",
"1608 422 CURVE SMOOTH",
"1608 708 OFFCURVE",
"1372 818 OFFCURVE",
"948 818 CURVE SMOOTH",
"502 818 LINE",
"502 602 LINE",
"948 602 LINE SMOOTH",
"1042 602 OFFCURVE",
"1090 568 OFFCURVE",
"1090 508 CURVE SMOOTH",
"1090 450 OFFCURVE",
"1036 414 OFFCURVE",
"946 414 CURVE SMOOTH",
"736 414 LINE"
);
},
{
closed = 1;
nodes = (
"156 1130 LINE",
"156 414 LINE",
"42 414 LINE",
"42 0 LINE",
"812 0 LINE",
"812 414 LINE",
"672 414 LINE",
"672 1130 LINE",
"812 1130 LINE",
"812 1544 LINE",
"42 1544 LINE",
"42 1130 LINE"
);
},
{
closed = 1;
nodes = (
"1148 742 LINE",
"1244 742 LINE",
"1244 850 LINE",
"1148 850 LINE"
);
}
);
width = 1622;
},
{
anchors = (
{
name = bottom;
position = "{700, 0}";
},
{
name = top;
position = "{700, 1464}";
}
);
layerId = "2C5E45D0-97E8-45AA-A5B2-946753DF54E1";
rightMetricsKey = "=O+12";
paths = (
{
closed = 1;
nodes = (
"806 1318 LINE SMOOTH",
"978 1318 OFFCURVE",
"1094 1244 OFFCURVE",
"1094 1094 CURVE SMOOTH",
"1094 966 OFFCURVE",
"1020 848 OFFCURVE",
"820 848 CURVE SMOOTH",
"422 848 LINE",
"422 750 LINE",
"816 750 LINE SMOOTH",
"1140 750 OFFCURVE",
"1312 862 OFFCURVE",
"1312 1116 CURVE SMOOTH",
"1312 1370 OFFCURVE",
"1136 1504 OFFCURVE",
"846 1504 CURVE SMOOTH",
"656 1504 LINE",
"656 1318 LINE"
);
},
{
closed = 1;
nodes = (
"636 0 LINE",
"912 0 LINE SMOOTH",
"1196 0 OFFCURVE",
"1368 152 OFFCURVE",
"1368 414 CURVE SMOOTH",
"1368 694 OFFCURVE",
"1172 796 OFFCURVE",
"818 796 CURVE SMOOTH",
"422 796 LINE",
"422 668 LINE",
"818 668 LINE SMOOTH",
"1058 668 OFFCURVE",
"1150 564 OFFCURVE",
"1150 430 CURVE SMOOTH",
"1150 270 OFFCURVE",
"1022 186 OFFCURVE",
"830 186 CURVE SMOOTH",
"636 186 LINE"
);
},
{
closed = 1;
nodes = (
"276 1318 LINE",
"276 186 LINE",
"56 186 LINE",
"56 0 LINE",
"700 0 LINE",
"700 186 LINE",
"480 186 LINE",
"480 1318 LINE",
"700 1318 LINE",
"700 1504 LINE",
"56 1504 LINE",
"56 1318 LINE"
);
},
{
closed = 1;
nodes = (
"970 752 LINE",
"1066 752 LINE",
"1066 802 LINE",
"970 802 LINE"
);
}
);
width = 1472;
},
{
anchors = (
{
name = bottom;
position = "{752, 0}";
},
{
name = top;
position = "{752, 1464}";
}
);
layerId = "A59F1195-5331-40FD-8BD6-3900E1073F61";
rightMetricsKey = "=O+16";
paths = (
{
closed = 1;
nodes = (
"792 1458 LINE SMOOTH",
"1074 1458 OFFCURVE",
"1246 1354 OFFCURVE",
"1246 1122 CURVE SMOOTH",
"1246 908 OFFCURVE",
"1098 790 OFFCURVE",
"808 790 CURVE SMOOTH",
"372 790 LINE",
"372 766 LINE",
"804 766 LINE SMOOTH",
"1128 766 OFFCURVE",
"1300 880 OFFCURVE",
"1300 1128 CURVE SMOOTH",
"1300 1384 OFFCURVE",
"1110 1504 OFFCURVE",
"800 1504 CURVE SMOOTH",
"582 1504 LINE",
"578 1458 LINE"
);
},
{
closed = 1;
nodes = (
"594 0 LINE",
"836 0 LINE SMOOTH",
"1160 0 OFFCURVE",
"1356 138 OFFCURVE",
"1356 394 CURVE SMOOTH",
"1356 696 OFFCURVE",
"1090 776 OFFCURVE",
"806 776 CURVE SMOOTH",
"372 776 LINE",
"372 746 LINE",
"806 746 LINE SMOOTH",
"1062 746 OFFCURVE",
"1302 662 OFFCURVE",
"1302 398 CURVE SMOOTH",
"1302 166 OFFCURVE",
"1120 46 OFFCURVE",
"818 46 CURVE SMOOTH",
"594 46 LINE"
);
},
{
closed = 1;
nodes = (
"336 1458 LINE",
"336 46 LINE",
"54 46 LINE",
"54 0 LINE",
"668 0 LINE",
"668 46 LINE",
"386 46 LINE",
"386 1458 LINE",
"668 1458 LINE",
"668 1504 LINE",
"54 1504 LINE",
"54 1458 LINE"
);
},
{
closed = 1;
nodes = (
"844 764 LINE",
"940 764 LINE",
"940 780 LINE",
"844 780 LINE"
);
}
);
width = 1474;
}
);
leftKerningGroup = H;
leftMetricsKey = H;
rightKerningGroup = B;
unicode = 0042;
},
{
color = 1;
glyphname = C;
layers = (
{
anchors = (
{
name = bottom;
position = "{848, 0}";
},
{
name = top;
position = "{848, 1464}";
}
);
layerId = "67AEAADB-8447-4819-9D92-8BB76BD22042";
rightMetricsKey = "=O-24";
paths = (
{
closed = 1;
nodes = (
"1216 -14 OFFCURVE",
"1494 228 OFFCURVE",
"1566 594 CURVE",
"1556 596 LINE",
"1486 234 OFFCURVE",
"1210 -4 OFFCURVE",
"844 -4 CURVE SMOOTH",
"422 -4 OFFCURVE",
"114 308 OFFCURVE",
"114 756 CURVE SMOOTH",
"114 1198 OFFCURVE",
"400 1508 OFFCURVE",
"850 1508 CURVE SMOOTH",
"1216 1508 OFFCURVE",
"1474 1308 OFFCURVE",
"1544 914 CURVE",
"1552 960 LINE",
"1542 960 LINE",
"1468 1314 OFFCURVE",
"1222 1518 OFFCURVE",
"850 1518 CURVE SMOOTH",
"394 1518 OFFCURVE",
"104 1204 OFFCURVE",
"104 756 CURVE SMOOTH",
"104 302 OFFCURVE",
"416 -14 OFFCURVE",
"844 -14 CURVE SMOOTH"
);
},
{
closed = 1;
nodes = (
"1554 914 LINE",
"1554 1504 LINE",
"1544 1504 LINE",
"1544 914 LINE"
);
}
);
width = 1646;
},
{
anchors = (
{
name = bottom;
position = "{852, 0}";
},
{
name = top;
position = "{852, 1464}";
}
);
layerId = "2C5E45D0-97E8-45AA-A5B2-946753DF54E1";
rightMetricsKey = "=O-10";
paths = (
{
closed = 1;
nodes = (
"1232 -24 OFFCURVE",
"1512 204 OFFCURVE",
"1586 554 CURVE",
"1376 598 LINE",
"1322 342 OFFCURVE",
"1122 176 OFFCURVE",
"852 176 CURVE SMOOTH",
"532 176 OFFCURVE",
"310 414 OFFCURVE",
"310 756 CURVE SMOOTH",
"310 1094 OFFCURVE",
"532 1326 OFFCURVE",
"852 1326 CURVE SMOOTH",
"1124 1326 OFFCURVE",
"1326 1164 OFFCURVE",
"1384 914 CURVE",
"1438 1092 LINE",
"1376 1092 LINE",
"1332 1368 OFFCURVE",
"1154 1526 OFFCURVE",
"846 1526 CURVE SMOOTH",
"406 1526 OFFCURVE",
"92 1208 OFFCURVE",
"92 756 CURVE SMOOTH",
"92 302 OFFCURVE",
"408 -24 OFFCURVE",
"852 -24 CURVE SMOOTH"
);
},
{
closed = 1;
nodes = (
"1588 914 LINE",
"1588 1504 LINE",
"1384 1504 LINE",
"1384 914 LINE"
);
}
);
width = 1670;
},
{
associatedMasterId = "2C5E45D0-97E8-45AA-A5B2-946753DF54E1";
layerId = "ABEBCFEB-F4FD-4F73-B8D5-68177E2D0DDB";
rightMetricsKey = "=O+4";
name = "Jan 3 18, 14:47";
paths = (
{
closed = 1;
nodes = (
"1576 914 LINE",
"1576 1504 LINE",
"1372 1504 LINE",
"1372 914 LINE"
);
},
{
closed = 1;
nodes = (
"1372 8 LINE",
"1576 8 LINE",
"1576 570 LINE",
"1372 570 LINE"
);
},
{
closed = 1;
nodes = (
"524 186 OFFCURVE",
"300 418 OFFCURVE",
"300 756 CURVE SMOOTH",
"300 1094 OFFCURVE",
"522 1326 OFFCURVE",
"842 1326 CURVE SMOOTH",
"1112 1326 OFFCURVE",
"1314 1164 OFFCURVE",
"1372 914 CURVE",
"1426 1092 LINE",
"1364 1092 LINE",
"1320 1368 OFFCURVE",
"1142 1526 OFFCURVE",
"836 1526 CURVE SMOOTH",
"396 1526 OFFCURVE",
"82 1208 OFFCURVE",
"82 756 CURVE SMOOTH",
"82 304 OFFCURVE",
"398 -14 OFFCURVE",
"844 -14 CURVE SMOOTH",
"1144 -14 OFFCURVE",
"1320 134 OFFCURVE",
"1364 392 CURVE",
"1426 392 LINE",
"1372 570 LINE",
"1314 336 OFFCURVE",
"1114 186 OFFCURVE",
"850 186 CURVE SMOOTH"
);
}
);
width = 1662;
},
{
anchors = (
{
name = bottom;
position = "{842, 0}";
},
{
name = top;
position = "{852, 1544}";
}
);
layerId = "BE4E587A-F76C-447B-AA28-A45E40876AAF";
rightMetricsKey = "=O-4";
paths = (
{
closed = 1;
nodes = (
"1298 -28 OFFCURVE",
"1620 246 OFFCURVE",
"1674 654 CURVE",
"1146 728 LINE",
"1126 566 OFFCURVE",
"1010 458 OFFCURVE",
"852 458 CURVE SMOOTH",
"678 458 OFFCURVE",
"556 588 OFFCURVE",
"556 776 CURVE SMOOTH",
"556 960 OFFCURVE",
"678 1086 OFFCURVE",
"860 1086 CURVE SMOOTH",
"994 1086 OFFCURVE",
"1104 1016 OFFCURVE",
"1146 904 CURVE",
"1226 1098 LINE",
"1130 1098 LINE",
"1110 1418 OFFCURVE",
"974 1572 OFFCURVE",
"722 1572 CURVE SMOOTH",
"362 1572 OFFCURVE",
"22 1244 OFFCURVE",
"22 776 CURVE SMOOTH",
"22 302 OFFCURVE",
"362 -28 OFFCURVE",
"852 -28 CURVE SMOOTH"
);
},
{
closed = 1;
nodes = (
"1662 904 LINE",
"1662 1544 LINE",
"1146 1544 LINE",
"1146 904 LINE"
);
}
);
width = 1692;
},
{
anchors = (
{
name = bottom;
position = "{874, 0}";
},
{
name = top;
position = "{858, 1464}";
}
);
layerId = "A59F1195-5331-40FD-8BD6-3900E1073F61";
rightMetricsKey = "=O-22";
paths = (
{
closed = 1;
nodes = (
"1220 -16 OFFCURVE",
"1498 222 OFFCURVE",
"1570 586 CURVE",
"1518 596 LINE",
"1454 256 OFFCURVE",
"1192 34 OFFCURVE",
"846 34 CURVE SMOOTH",
"446 34 OFFCURVE",
"154 328 OFFCURVE",
"154 756 CURVE SMOOTH",
"154 1178 OFFCURVE",
"426 1470 OFFCURVE",
"850 1470 CURVE SMOOTH",
"1198 1470 OFFCURVE",
"1444 1278 OFFCURVE",
"1512 914 CURVE",
"1528 1050 LINE",
"1508 1050 LINE",
"1436 1328 OFFCURVE",
"1208 1520 OFFCURVE",
"850 1520 CURVE SMOOTH",
"396 1520 OFFCURVE",
"102 1204 OFFCURVE",
"102 756 CURVE SMOOTH",
"102 302 OFFCURVE",
"414 -16 OFFCURVE",
"846 -16 CURVE SMOOTH"
);
},
{
closed = 1;
nodes = (
"1560 914 LINE",
"1560 1504 LINE",
"1512 1504 LINE",
"1512 914 LINE"
);
}
);
width = 1650;
}
);
leftKerningGroup = O;
leftMetricsKey = O;
rightKerningGroup = C;
unicode = 0043;
},
{
glyphname = D;
layers = (
{
anchors = (
{
name = bottom;
position = "{800, 0}";
},
{
name = top;
position = "{800, 1464}";
}
);
layerId = "67AEAADB-8447-4819-9D92-8BB76BD22042";
paths = (
{
closed = 1;
nodes = (
"776 0 LINE SMOOTH",
"1262 0 OFFCURVE",
"1570 310 OFFCURVE",
"1570 756 CURVE SMOOTH",
"1570 1196 OFFCURVE",
"1262 1504 OFFCURVE",
"776 1504 CURVE SMOOTH",
"590 1504 LINE",
"590 1494 LINE",
"776 1494 LINE SMOOTH",
"1258 1494 OFFCURVE",
"1560 1190 OFFCURVE",
"1560 756 CURVE SMOOTH",
"1560 316 OFFCURVE",
"1258 10 OFFCURVE",
"776 10 CURVE SMOOTH",
"586 10 LINE",
"586 0 LINE"
);
},
{
closed = 1;
nodes = (
"608 0 LINE",
"608 10 LINE",
"362 10 LINE",
"362 1494 LINE",
"608 1494 LINE",
"608 1504 LINE",
"54 1504 LINE",
"54 1494 LINE",
"352 1494 LINE",
"352 10 LINE",
"54 10 LINE",
"54 0 LINE"
);
}
);
width = 1674;
},
{
anchors = (
{
name = bottom;
position = "{796, 0}";
},
{
name = top;
position = "{796, 1544}";
}
);
layerId = "BE4E587A-F76C-447B-AA28-A45E40876AAF";
paths = (
{
closed = 1;
nodes = (
"822 0 LINE",
"1332 0 OFFCURVE",
"1672 318 OFFCURVE",
"1672 776 CURVE SMOOTH",
"1672 1226 OFFCURVE",
"1332 1542 OFFCURVE",
"822 1544 CURVE",
"668 1544 LINE",
"668 1130 LINE",
"810 1130 LINE",
"1016 1130 OFFCURVE",
"1138 986 OFFCURVE",
"1138 776 CURVE SMOOTH",
"1138 562 OFFCURVE",
"1016 412 OFFCURVE",
"810 414 CURVE",
"668 414 LINE",
"668 0 LINE"
);
},
{
closed = 1;
nodes = (
"746 0 LINE",
"746 414 LINE",
"672 414 LINE",
"672 1130 LINE",
"746 1130 LINE",
"746 1544 LINE",
"42 1544 LINE",
"42 1130 LINE",
"156 1130 LINE",
"156 414 LINE",
"42 414 LINE",
"42 0 LINE"
);
}
);
width = 1694;
},
{
anchors = (
{
name = bottom;
position = "{788, 0}";
},
{
name = top;
position = "{788, 1464}";
}
);
layerId = "2C5E45D0-97E8-45AA-A5B2-946753DF54E1";
paths = (
{
closed = 1;
nodes = (
"792 0 LINE SMOOTH",
"1254 0 OFFCURVE",
"1572 310 OFFCURVE",
"1572 756 CURVE SMOOTH",
"1572 1196 OFFCURVE",
"1254 1504 OFFCURVE",
"792 1504 CURVE SMOOTH",
"676 1504 LINE",
"676 1318 LINE",
"792 1318 LINE SMOOTH",
"1126 1318 OFFCURVE",
"1356 1090 OFFCURVE",
"1356 756 CURVE SMOOTH",
"1356 420 OFFCURVE",
"1126 186 OFFCURVE",
"792 186 CURVE SMOOTH",
"676 186 LINE",
"676 0 LINE"
);
},
{
closed = 1;
nodes = (
"740 0 LINE",
"740 186 LINE",
"480 186 LINE",
"480 1318 LINE",
"740 1318 LINE",
"740 1504 LINE",
"56 1504 LINE",
"56 1318 LINE",
"276 1318 LINE",
"276 186 LINE",
"56 186 LINE",
"56 0 LINE"
);
}
);
width = 1664;
},
{
anchors = (
{
name = bottom;
position = "{796, 0}";
},
{
name = top;
position = "{796, 1464}";
}
);
layerId = "A59F1195-5331-40FD-8BD6-3900E1073F61";
paths = (
{
closed = 1;
nodes = (
"778 0 LINE SMOOTH",
"1260 0 OFFCURVE",
"1570 310 OFFCURVE",
"1570 756 CURVE SMOOTH",
"1570 1196 OFFCURVE",
"1260 1504 OFFCURVE",
"778 1504 CURVE SMOOTH",
"606 1504 LINE",
"606 1458 LINE",
"778 1458 LINE SMOOTH",
"1230 1458 OFFCURVE",
"1518 1170 OFFCURVE",
"1518 756 CURVE SMOOTH",
"1518 338 OFFCURVE",
"1230 46 OFFCURVE",
"778 46 CURVE SMOOTH",
"604 46 LINE",
"604 0 LINE"
);
},
{
closed = 1;
nodes = (
"634 0 LINE",
"634 46 LINE",
"384 46 LINE",
"384 1458 LINE",
"634 1458 LINE",
"634 1504 LINE",
"54 1504 LINE",
"54 1458 LINE",
"336 1458 LINE",
"336 46 LINE",
"54 46 LINE",
"54 0 LINE"
);
}
);
width = 1672;
}
);
leftKerningGroup = H;
leftMetricsKey = H;
rightKerningGroup = O;
rightMetricsKey = O;
unicode = 0044;
},
{
glyphname = Eth;
layers = (
{
components = (
{
name = D;
transform = "{1, 0, 0, 1, 24, 0}";
}
);
layerId = "67AEAADB-8447-4819-9D92-8BB76BD22042";
leftMetricsKey = "=D+24";
paths = (
{
closed = 1;
nodes = (
"150 764 LINE",
"150 754 LINE",
"912 754 LINE",
"912 764 LINE"
);
}
);
width = 1698;
},
{
components = (
{
name = D;
transform = "{1, 0, 0, 1, 28, 0}";
}
);
layerId = "2C5E45D0-97E8-45AA-A5B2-946753DF54E1";
leftMetricsKey = "=D+28";
paths = (
{
closed = 1;
nodes = (
"126 848 LINE",
"126 668 LINE",
"916 668 LINE",
"916 848 LINE"
);
}
);
width = 1692;
},
{
components = (
{
name = D;
transform = "{1, 0, 0, 1, 10, 0}";
}
);
layerId = "BE4E587A-F76C-447B-AA28-A45E40876AAF";
paths = (
{
closed = 1;
nodes = (
"42 954 LINE",
"42 600 LINE",
"858 600 LINE",
"858 954 LINE"
);
}
);
width = 1704;
},
{
components = (
{
alignment = -1;
name = D;
}
);
layerId = "A59F1195-5331-40FD-8BD6-3900E1073F61";
paths = (
{
closed = 1;
nodes = (
"122 782 LINE",
"122 736 LINE",
"888 736 LINE",
"888 782 LINE"
);
}
);
width = 1672;
}
);
leftKerningGroup = H;
leftMetricsKey = D;
rightKerningGroup = O;
rightMetricsKey = D;
unicode = 00D0;
},
{
glyphname = E;
layers = (
{
anchors = (
{
name = bottom;
position = "{830, 0}";
},
{
name = ogonek;
position = "{1436, 0}";
},
{
name = top;
position = "{830, 1464}";
}
);
layerId = "67AEAADB-8447-4819-9D92-8BB76BD22042";
leftMetricsKey = "=H+0";
rightMetricsKey = "=H+64";
paths = (
{
closed = 1;
nodes = (
"356 764 LINE",
"356 754 LINE",
"1038 754 LINE",
"1038 764 LINE"
);
},
{
closed = 1;
nodes = (
"1426 10 LINE",
"362 10 LINE",
"362 1494 LINE",
"1408 1494 LINE",
"1408 1130 LINE",
"1418 1130 LINE",
"1418 1504 LINE",
"54 1504 LINE",
"54 1494 LINE",
"352 1494 LINE",
"352 10 LINE",
"54 10 LINE",
"54 0 LINE",
"1436 0 LINE",
"1436 374 LINE",
"1426 374 LINE"
);
}
);
width = 1554;
},
{
anchors = (
{
name = bottom;
position = "{854, 0}";
},
{
name = ogonek;
position = "{1628, 0}";
},
{
name = top;
position = "{854, 1544}";
}
);
layerId = "BE4E587A-F76C-447B-AA28-A45E40876AAF";
rightMetricsKey = "=H+24";
paths = (
{
closed = 1;
nodes = (
"410 954 LINE",
"410 600 LINE",
"978 600 LINE",
"978 954 LINE"
);
},
{
closed = 1;
nodes = (
"1112 414 LINE",
"672 414 LINE",
"672 1130 LINE",
"1094 1130 LINE",
"1094 890 LINE",
"1610 890 LINE",
"1610 1544 LINE",
"42 1544 LINE",
"42 1130 LINE",
"156 1130 LINE",
"156 414 LINE",
"42 414 LINE",
"42 0 LINE",
"1628 0 LINE",
"1628 654 LINE",
"1112 654 LINE"
);
}
);
width = 1694;
},
{
anchors = (
{
name = bottom;
position = "{800, 0}";
},
{
name = ogonek;
position = "{1476, 0}";
},
{
name = top;
position = "{800, 1464}";
}
);
layerId = "2C5E45D0-97E8-45AA-A5B2-946753DF54E1";
leftMetricsKey = "=H";
rightMetricsKey = "=H+56";
paths = (
{
closed = 1;
nodes = (
"392 848 LINE",
"392 668 LINE",
"1076 668 LINE",
"1076 848 LINE"
);
},
{
closed = 1;
nodes = (
"1272 186 LINE",
"480 186 LINE",
"480 1318 LINE",
"1254 1318 LINE",
"1254 1050 LINE",
"1458 1050 LINE",
"1458 1504 LINE",
"56 1504 LINE",
"56 1318 LINE",
"276 1318 LINE",
"276 186 LINE",
"56 186 LINE",
"56 0 LINE",
"1476 0 LINE",
"1476 454 LINE",
"1272 454 LINE"
);
}
);
width = 1588;
},
{
anchors = (
{
name = bottom;
position = "{822, 0}";
},
{
name = ogonek;
position = "{1442, 0}";
},
{
name = top;
position = "{822, 1464}";
}
);
layerId = "A59F1195-5331-40FD-8BD6-3900E1073F61";
leftMetricsKey = "=H+0";
rightMetricsKey = "=H+62";
paths = (
{
closed = 1;
nodes = (
"362 782 LINE",
"362 736 LINE",
"1044 736 LINE",
"1044 782 LINE"
);
},
{
closed = 1;
nodes = (
"1394 46 LINE",
"384 46 LINE",
"384 1458 LINE",
"1376 1458 LINE",
"1376 1114 LINE",
"1424 1114 LINE",
"1424 1504 LINE",
"54 1504 LINE",
"54 1458 LINE",
"336 1458 LINE",
"336 46 LINE",
"54 46 LINE",
"54 0 LINE",
"1442 0 LINE",
"1442 390 LINE",
"1394 390 LINE"
);
}
);
width = 1558;
},
{
anchors = (
{
name = bottom;
position = "{854, 0}";
},
{
name = ogonek;
position = "{1628, 0}";
},
{
name = top;
position = "{854, 1544}";
}
);
associatedMasterId = "BE4E587A-F76C-447B-AA28-A45E40876AAF";
layerId = "89D6BF8A-4F66-41D7-A0A1-366A4583CEF3";
rightMetricsKey = "=H+12";
name = "Jun 1 18, 15:12";
paths = (
{
closed = 1;
nodes = (
"410 954 LINE",
"410 600 LINE",
"1224 600 LINE",
"1224 954 LINE"
);
},
{
closed = 1;
nodes = (
"1008 414 LINE",
"672 414 LINE",
"672 1130 LINE",
"990 1130 LINE",
"990 1014 LINE",
"1494 1014 LINE",
"1494 1544 LINE",
"42 1544 LINE",
"42 1130 LINE",
"156 1130 LINE",
"156 414 LINE",
"42 414 LINE",
"42 0 LINE",
"1512 0 LINE",
"1512 530 LINE",
"1008 530 LINE"
);
}
);
width = 1566;
}
);
leftKerningGroup = H;
leftMetricsKey = H;
rightKerningGroup = E;
unicode = 0045;
},
{
glyphname = E.ss04;
layers = (
{
anchors = (
{
name = bottom;
position = "{774, 0}";
},
{
name = ogonek;
position = "{1354, 0}";
},
{
name = top;
position = "{774, 1464}";
}
);
layerId = "67AEAADB-8447-4819-9D92-8BB76BD22042";
paths = (
{
closed = 1;
nodes = (
"356 764 LINE",
"356 754 LINE",
"1204 754 LINE",
"1204 764 LINE"
);
},
{
closed = 1;
nodes = (
"1344 10 LINE",
"362 10 LINE",
"362 1494 LINE",
"1326 1494 LINE",
"1326 1236 LINE",
"1336 1236 LINE",
"1336 1504 LINE",
"54 1504 LINE",
"54 1494 LINE",
"352 1494 LINE",
"352 10 LINE",
"54 10 LINE",
"54 0 LINE",
"1354 0 LINE",
"1354 266 LINE",
"1344 266 LINE"
);
}
);
width = 1472;
},
{
anchors = (
{
name = bottom;
position = "{764, 0}";
},
{
name = ogonek;
position = "{1374, 0}";
},
{
name = top;
position = "{764, 1464}";
}
);
layerId = "2C5E45D0-97E8-45AA-A5B2-946753DF54E1";
paths = (
{
closed = 1;
nodes = (
"392 848 LINE",
"392 668 LINE",
"1180 668 LINE",
"1180 848 LINE"
);
},
{
closed = 1;
nodes = (
"1170 186 LINE",
"480 186 LINE",
"480 1318 LINE",
"1152 1318 LINE",
"1152 1114 LINE",
"1356 1114 LINE",
"1356 1504 LINE",
"56 1504 LINE",
"56 1318 LINE",
"276 1318 LINE",
"276 186 LINE",
"56 186 LINE",
"56 0 LINE",
"1374 0 LINE",
"1374 390 LINE",
"1170 390 LINE"
);
}
);
width = 1486;
},
{
anchors = (
{
name = bottom;
position = "{772, 0}";
},
{
name = ogonek;
position = "{1358, 0}";
},
{
name = top;
position = "{772, 1464}";
}
);
layerId = "A59F1195-5331-40FD-8BD6-3900E1073F61";
paths = (
{
closed = 1;
nodes = (
"364 782 LINE",
"364 736 LINE",
"1184 736 LINE",
"1184 782 LINE"
);
},
{
closed = 1;
nodes = (
"1308 46 LINE",
"386 46 LINE",
"386 1458 LINE",
"1290 1458 LINE",
"1290 1126 LINE",
"1340 1126 LINE",
"1340 1504 LINE",
"54 1504 LINE",
"54 1458 LINE",
"336 1458 LINE",
"336 46 LINE",
"54 46 LINE",
"54 0 LINE",
"1358 0 LINE",
"1358 378 LINE",
"1308 378 LINE"
);
}
);
width = 1474;
},
{
anchors = (
{
name = bottom;
position = "{798, 0}";
},
{
name = ogonek;
position = "{1524, 0}";
},
{
name = top;
position = "{798, 1544}";
}
);
layerId = "BE4E587A-F76C-447B-AA28-A45E40876AAF";
paths = (
{
closed = 1;
nodes = (
"410 954 LINE",
"410 600 LINE",
"1224 600 LINE",
"1224 954 LINE"
);
},
{
closed = 1;
nodes = (
"1008 414 LINE",
"672 414 LINE",
"672 1130 LINE",
"990 1130 LINE",
"990 1014 LINE",
"1506 1014 LINE",
"1506 1544 LINE",
"42 1544 LINE",
"42 1130 LINE",
"156 1130 LINE",
"156 414 LINE",
"42 414 LINE",
"42 0 LINE",
"1524 0 LINE",
"1524 530 LINE",
"1008 530 LINE"
);
}
);
width = 1590;
}
);
leftKerningGroup = H;
leftMetricsKey = H;
rightKerningGroup = E2;
rightMetricsKey = "=E";
},
{
glyphname = F;
layers = (
{
anchors = (
{
name = bottom;
position = "{744, 0}";
},
{
name = top;
position = "{744, 1464}";
}
);
layerId = "67AEAADB-8447-4819-9D92-8BB76BD22042";
leftMetricsKey = "=H+0";
rightMetricsKey = "=H-4";
paths = (
{
closed = 1;
nodes = (
"356 764 LINE",
"356 754 LINE",
"1004 754 LINE",
"1004 764 LINE"
);
},
{
closed = 1;
nodes = (
"54 1504 LINE",
"54 1494 LINE",
"352 1494 LINE",
"352 10 LINE",
"54 10 LINE",
"54 0 LINE",
"688 0 LINE",
"688 10 LINE",
"362 10 LINE",
"362 1494 LINE",
"1344 1494 LINE",
"1344 1130 LINE",
"1354 1130 LINE",
"1354 1504 LINE"
);
}
);
width = 1404;
},
{
anchors = (
{
name = bottom;
position = "{742, 0}";
},
{
name = top;
position = "{742, 1464}";
}
);
layerId = "A59F1195-5331-40FD-8BD6-3900E1073F61";
leftMetricsKey = "=H+0";
rightMetricsKey = "=H-6";
paths = (
{
closed = 1;
nodes = (
"362 782 LINE",
"362 736 LINE",
"1000 736 LINE",
"1000 782 LINE"
);
},
{
closed = 1;
nodes = (
"54 1504 LINE",
"54 1458 LINE",
"336 1458 LINE",
"336 46 LINE",
"54 46 LINE",
"54 0 LINE",
"700 0 LINE",
"700 46 LINE",
"384 46 LINE",
"384 1458 LINE",
"1308 1458 LINE",
"1308 1114 LINE",
"1356 1114 LINE",
"1356 1504 LINE"
);
}
);
width = 1404;
},
{
anchors = (
{
name = bottom;
position = "{740, 0}";
},
{
name = top;
position = "{740, 1464}";
}
);
layerId = "2C5E45D0-97E8-45AA-A5B2-946753DF54E1";
leftMetricsKey = "=H";
rightMetricsKey = "=H-12";
paths = (
{
closed = 1;
nodes = (
"392 848 LINE",
"392 668 LINE",
"986 668 LINE",
"986 848 LINE"
);
},
{
closed = 1;
nodes = (
"56 1504 LINE",
"56 1318 LINE",
"276 1318 LINE",
"276 186 LINE",
"56 186 LINE",
"56 0 LINE",
"756 0 LINE",
"756 186 LINE",
"480 186 LINE",
"480 1318 LINE",
"1170 1318 LINE",
"1170 1050 LINE",
"1374 1050 LINE",
"1374 1504 LINE"
);
}
);
width = 1418;
},
{
anchors = (
{
name = bottom;
position = "{840, 0}";
},
{
name = top;
position = "{840, 1544}";
}
);
layerId = "BE4E587A-F76C-447B-AA28-A45E40876AAF";
rightMetricsKey = "=H-24";
paths = (
{
closed = 1;
nodes = (
"410 954 LINE",
"410 600 LINE",
"942 600 LINE",
"942 954 LINE"
);
},
{
closed = 1;
nodes = (
"42 1544 LINE",
"42 1130 LINE",
"156 1130 LINE",
"156 414 LINE",
"42 414 LINE",
"42 0 LINE",
"902 0 LINE",
"902 414 LINE",
"672 414 LINE",
"672 1130 LINE",
"1046 1130 LINE",
"1046 870 LINE",
"1562 870 LINE",
"1562 1544 LINE"
);
}
);
width = 1580;
},
{
anchors = (
{
name = bottom;
position = "{840, 0}";
},
{
name = top;
position = "{840, 1544}";
}
);
associatedMasterId = "BE4E587A-F76C-447B-AA28-A45E40876AAF";
layerId = "04CA457B-117A-4505-AFCD-B15F8CE0FCBC";
name = "May 16 18, 15:38";
paths = (
{
closed = 1;
nodes = (
"410 954 LINE",
"410 600 LINE",
"942 600 LINE",
"942 954 LINE"
);
},
{
closed = 1;
nodes = (
"42 1544 LINE",
"42 1130 LINE",
"156 1130 LINE",
"156 414 LINE",
"42 414 LINE",
"42 0 LINE",
"902 0 LINE",
"902 414 LINE",
"672 414 LINE",
"672 1130 LINE",
"926 1130 LINE",
"1064 926 LINE",
"1478 1210 LINE",
"1248 1544 LINE"
);
}
);
width = 1256;
},
{
anchors = (
{
name = bottom;
position = "{840, 0}";
},
{
name = top;
position = "{840, 1544}";
}
);
associatedMasterId = "BE4E587A-F76C-447B-AA28-A45E40876AAF";
layerId = "C401DA66-D1BE-45BF-ADC2-2C9BB662A692";
name = "May 16 18, 15:41";
paths = (
{
closed = 1;
nodes = (
"902 0 LINE",
"902 414 LINE",
"672 414 LINE",
"672 1130 LINE",
"1084 1130 LINE",
"1114 1062 OFFCURVE",
"1176 1000 OFFCURVE",
"1338 976 CURVE",
"1338 856 LINE",
"1892 1188 LINE",
"1628 1188 OFFCURVE",
"1600 1320 OFFCURVE",
"1600 1544 CURVE",
"42 1544 LINE",
"42 1130 LINE",
"156 1130 LINE",
"156 414 LINE",
"42 414 LINE",
"42 0 LINE"
);
},
{
closed = 1;
nodes = (
"1042 600 LINE",
"1042 954 LINE",
"410 954 LINE",
"410 600 LINE"
);
}
);
width = 1270;
},
{
anchors = (
{
name = bottom;
position = "{772, 0}";
},
{
name = top;
position = "{772, 1544}";
}
);
associatedMasterId = "BE4E587A-F76C-447B-AA28-A45E40876AAF";
layerId = "030FB697-EAF6-4BEE-8586-CF64C186B74E";
name = "Jun 1 18, 15:16";
paths = (
{
closed = 1;
nodes = (
"410 954 LINE",
"410 600 LINE",
"942 600 LINE",
"942 954 LINE"
);
},
{
closed = 1;
nodes = (
"42 1544 LINE",
"42 1130 LINE",
"156 1130 LINE",
"156 414 LINE",
"42 414 LINE",
"42 0 LINE",
"902 0 LINE",
"902 414 LINE",
"672 414 LINE",
"672 1130 LINE",
"1046 1130 LINE",
"1046 806 LINE",
"1448 806 LINE",
"1448 1544 LINE"
);
},
{
closed = 1;
nodes = (
"1394 1544 LINE",
"1394 1130 LINE",
"1598 1130 LINE",
"1598 414 LINE",
"1484 414 LINE",
"1484 0 LINE",
"2228 0 LINE",
"2228 414 LINE",
"2114 414 LINE",
"2114 1130 LINE",
"2218 1130 LINE",
"2218 806 LINE",
"2666 806 LINE",
"2666 1544 LINE"
);
}
);
width = 2690;
},
{
anchors = (
{
name = bottom;
position = "{840, 0}";
},
{
name = top;
position = "{840, 1544}";
}
);
associatedMasterId = "BE4E587A-F76C-447B-AA28-A45E40876AAF";
layerId = "87A51035-5F77-432C-9132-FE0D9E469ED4";
rightMetricsKey = "=H-24";
name = "Jun 1 18, 15:05";
paths = (
{
closed = 1;
nodes = (
"410 954 LINE",
"410 600 LINE",
"1174 600 LINE",
"1174 954 LINE"
);
},
{
closed = 1;
nodes = (
"42 1544 LINE",
"42 1130 LINE",
"156 1130 LINE",
"156 414 LINE",
"42 414 LINE",
"42 0 LINE",
"902 0 LINE",
"902 414 LINE",
"672 414 LINE",
"672 1130 LINE",
"940 1130 LINE",
"940 1014 LINE",
"1444 1014 LINE",
"1444 1544 LINE"
);
}
);
width = 1462;
}
);
leftKerningGroup = H;
leftMetricsKey = H;
rightKerningGroup = F;
rightMetricsKey = "=T";
unicode = 0046;
},
{
glyphname = F.ss04;
layers = (
{
anchors = (
{
name = bottom;
position = "{744, 0}";
},
{
name = top;
position = "{744, 1464}";
}
);
layerId = "67AEAADB-8447-4819-9D92-8BB76BD22042";
rightMetricsKey = "=F+4";
paths = (
{
closed = 1;
nodes = (
"356 764 LINE",
"356 754 LINE",
"1066 754 LINE",
"1066 764 LINE"
);
},
{
closed = 1;
nodes = (
"54 1504 LINE",
"54 1494 LINE",
"352 1494 LINE",
"352 10 LINE",
"54 10 LINE",
"54 0 LINE",
"688 0 LINE",
"688 10 LINE",
"362 10 LINE",
"362 1494 LINE",
"1242 1494 LINE",
"1242 1236 LINE",
"1252 1236 LINE",
"1252 1504 LINE"
);
}
);
width = 1306;
},
{
anchors = (
{
name = bottom;
position = "{740, 0}";
},
{
name = top;
position = "{740, 1464}";
}
);
layerId = "2C5E45D0-97E8-45AA-A5B2-946753DF54E1";
rightMetricsKey = "=F+12";
paths = (
{
closed = 1;
nodes = (
"392 848 LINE",
"392 668 LINE",
"1084 668 LINE",
"1084 848 LINE"
);
},
{
closed = 1;
nodes = (
"56 1504 LINE",
"56 1318 LINE",
"276 1318 LINE",
"276 186 LINE",
"56 186 LINE",
"56 0 LINE",
"756 0 LINE",
"756 186 LINE",
"480 186 LINE",
"480 1318 LINE",
"1070 1318 LINE",
"1070 1114 LINE",
"1274 1114 LINE",
"1274 1504 LINE"
);
}
);
width = 1330;
},
{
anchors = (
{
name = bottom;
position = "{840, 0}";
},
{
name = top;
position = "{840, 1544}";
}
);
layerId = "BE4E587A-F76C-447B-AA28-A45E40876AAF";
rightMetricsKey = "=F+6";
paths = (
{
closed = 1;
nodes = (
"410 954 LINE",
"410 600 LINE",
"1232 600 LINE",
"1232 954 LINE"
);
},
{
closed = 1;
nodes = (
"42 1544 LINE",
"42 1130 LINE",
"156 1130 LINE",
"156 414 LINE",
"42 414 LINE",
"42 0 LINE",
"908 0 LINE",
"908 414 LINE",
"672 414 LINE",
"672 1130 LINE",
"962 1130 LINE",
"962 1014 LINE",
"1478 1014 LINE",
"1478 1544 LINE"
);
}
);
width = 1502;
},
{
anchors = (
{
name = bottom;
position = "{744, 0}";
},
{
name = top;
position = "{744, 1464}";
}
);
layerId = "A59F1195-5331-40FD-8BD6-3900E1073F61";
rightMetricsKey = "=F+6";
paths = (
{
closed = 1;
nodes = (
"364 782 LINE",
"364 736 LINE",
"1070 736 LINE",
"1070 782 LINE"
);
},
{
closed = 1;
nodes = (
"54 1504 LINE",
"54 1458 LINE",
"336 1458 LINE",
"336 46 LINE",
"54 46 LINE",
"54 0 LINE",
"702 0 LINE",
"702 46 LINE",
"386 46 LINE",
"386 1458 LINE",
"1206 1458 LINE",
"1206 1212 LINE",
"1256 1212 LINE",
"1256 1504 LINE"
);
}
);
width = 1310;
},
{
anchors = (
{
name = bottom;
position = "{740, 0}";
},
{
name = top;
position = "{740, 1464}";
}
);
associatedMasterId = "2C5E45D0-97E8-45AA-A5B2-946753DF54E1";
layerId = "A977E851-475B-47F9-9613-8B595A940949";
rightMetricsKey = "=F+4";
name = "Jun 28 18, 11:52";
paths = (
{
closed = 1;
nodes = (
"392 848 LINE",
"392 668 LINE",
"1116 668 LINE",
"1116 848 LINE"
);
},
{
closed = 1;
nodes = (
"56 1504 LINE",
"56 1318 LINE",
"276 1318 LINE",
"276 186 LINE",
"56 186 LINE",
"56 0 LINE",
"756 0 LINE",
"756 186 LINE",
"480 186 LINE",
"480 1318 LINE",
"1070 1318 LINE",
"1070 1114 LINE",
"1274 1114 LINE",
"1274 1504 LINE"
);
}
);
width = 1322;
}
);
leftKerningGroup = H;
leftMetricsKey = H;
rightKerningGroup = F2;
rightMetricsKey = F;
},
{
color = 0;
glyphname = G;
layers = (
{
anchors = (
{
name = bottom;
position = "{840, 0}";
},
{
name = top;
position = "{840, 1464}";
}
);
layerId = "67AEAADB-8447-4819-9D92-8BB76BD22042";
rightMetricsKey = "=H-16";
paths = (
{
closed = 1;
nodes = (
"1230 -14 OFFCURVE",
"1522 264 OFFCURVE",
"1564 680 CURVE",
"1556 682 LINE",
"1512 268 OFFCURVE",
"1224 -4 OFFCURVE",
"844 -4 CURVE SMOOTH",
"422 -4 OFFCURVE",
"114 308 OFFCURVE",
"114 756 CURVE SMOOTH",
"114 1198 OFFCURVE",
"404 1508 OFFCURVE",
"860 1508 CURVE SMOOTH",
"1226 1508 OFFCURVE",
"1474 1308 OFFCURVE",
"1544 914 CURVE",
"1552 960 LINE",
"1542 960 LINE",
"1470 1310 OFFCURVE",
"1234 1518 OFFCURVE",
"860 1518 CURVE SMOOTH",
"398 1518 OFFCURVE",
"104 1204 OFFCURVE",
"104 756 CURVE SMOOTH",
"104 302 OFFCURVE",
"416 -14 OFFCURVE",
"844 -14 CURVE SMOOTH"
);
},
{
closed = 1;
nodes = (
"1566 0 LINE",
"1566 686 LINE",
"1556 686 LINE",
"1556 648 LINE",
"1556 0 LINE"
);
},
{
closed = 1;
nodes = (
"1754 680 LINE",
"1754 690 LINE",
"966 690 LINE",
"966 680 LINE"
);
},
{
closed = 1;
nodes = (
"1554 914 LINE",
"1554 1504 LINE",
"1544 1504 LINE",
"1544 914 LINE"
);
}
);
width = 1792;
},
{
anchors = (
{
name = bottom;
position = "{906, 0}";
},
{
name = top;
position = "{906, 1544}";
}
);
layerId = "BE4E587A-F76C-447B-AA28-A45E40876AAF";
paths = (
{
closed = 1;
nodes = (
"1210 -28 OFFCURVE",
"1426 182 OFFCURVE",
"1474 654 CURVE",
"1250 668 LINE",
"1188 534 OFFCURVE",
"1040 446 OFFCURVE",
"878 446 CURVE SMOOTH",
"674 446 OFFCURVE",
"556 580 OFFCURVE",
"556 776 CURVE SMOOTH",
"556 960 OFFCURVE",
"682 1086 OFFCURVE",
"868 1086 CURVE SMOOTH",
"1000 1086 OFFCURVE",
"1106 1024 OFFCURVE",
"1146 924 CURVE",
"1226 1118 LINE",
"1130 1118 LINE",
"1110 1424 OFFCURVE",
"974 1572 OFFCURVE",
"726 1572 CURVE SMOOTH",
"362 1572 OFFCURVE",
"22 1244 OFFCURVE",
"22 776 CURVE SMOOTH",
"22 302 OFFCURVE",
"362 -28 OFFCURVE",
"836 -28 CURVE SMOOTH"
);
},
{
closed = 1;
nodes = (
"1674 0 LINE",
"1674 736 LINE",
"1158 736 LINE",
"1158 452 LINE",
"1386 0 LINE"
);
},
{
closed = 1;
nodes = (
"1784 554 LINE",
"1784 872 LINE",
"808 872 LINE",
"808 554 LINE"
);
},
{
closed = 1;
nodes = (
"1662 924 LINE",
"1662 1544 LINE",
"1146 1544 LINE",
"1146 924 LINE"
);
}
);
width = 1810;
},
{
anchors = (
{
name = bottom;
position = "{850, 0}";
},
{
name = top;
position = "{866, 1464}";
}
);
layerId = "2C5E45D0-97E8-45AA-A5B2-946753DF54E1";
rightMetricsKey = "=H-38";
paths = (
{
closed = 1;
nodes = (
"1206 -22 OFFCURVE",
"1476 206 OFFCURVE",
"1550 554 CURVE",
"1394 598 LINE",
"1334 344 OFFCURVE",
"1130 178 OFFCURVE",
"852 178 CURVE SMOOTH",
"532 178 OFFCURVE",
"310 416 OFFCURVE",
"310 756 CURVE SMOOTH",
"310 1094 OFFCURVE",
"532 1326 OFFCURVE",
"852 1326 CURVE SMOOTH",
"1122 1326 OFFCURVE",
"1324 1164 OFFCURVE",
"1382 914 CURVE",
"1436 1092 LINE",
"1374 1092 LINE",
"1330 1368 OFFCURVE",
"1152 1526 OFFCURVE",
"846 1526 CURVE SMOOTH",
"406 1526 OFFCURVE",
"92 1208 OFFCURVE",
"92 756 CURVE SMOOTH",
"92 306 OFFCURVE",
"406 -22 OFFCURVE",
"842 -22 CURVE SMOOTH"
);
},
{
closed = 1;
nodes = (
"1594 0 LINE",
"1594 736 LINE",
"1390 736 LINE",
"1390 232 LINE",
"1464 0 LINE"
);
},
{
closed = 1;
nodes = (
"1812 556 LINE",
"1812 742 LINE",
"998 742 LINE",
"998 556 LINE"
);
},
{
closed = 1;
nodes = (
"1586 914 LINE",
"1586 1504 LINE",
"1382 1504 LINE",
"1382 914 LINE"
);
}
);
width = 1830;
},
{
associatedMasterId = "2C5E45D0-97E8-45AA-A5B2-946753DF54E1";
layerId = "5EAA0A0D-DF81-4506-9706-629629C5BCC5";
rightMetricsKey = "=H-40";
name = "Dec 25 17, 01:58";
paths = (
{
closed = 1;
nodes = (
"1578 0 LINE",
"1578 736 LINE",
"1374 736 LINE",
"1374 0 LINE"
);
},
{
closed = 1;
nodes = (
"1804 556 LINE",
"1804 742 LINE",
"990 742 LINE",
"990 556 LINE"
);
},
{
closed = 1;
nodes = (
"1578 914 LINE",
"1578 1504 LINE",
"1374 1504 LINE",
"1374 914 LINE"
);
},
{
closed = 1;
nodes = (
"526 178 OFFCURVE",
"304 412 OFFCURVE",
"302 752 CURVE SMOOTH",
"302 1092 OFFCURVE",
"524 1326 OFFCURVE",
"844 1326 CURVE SMOOTH",
"1114 1326 OFFCURVE",
"1316 1164 OFFCURVE",
"1374 914 CURVE",
"1428 1092 LINE",
"1366 1092 LINE",
"1322 1368 OFFCURVE",
"1144 1526 OFFCURVE",
"838 1526 CURVE SMOOTH",
"398 1526 OFFCURVE",
"84 1206 OFFCURVE",
"84 752 CURVE SMOOTH",
"84 298 OFFCURVE",
"398 -22 OFFCURVE",
"838 -22 CURVE SMOOTH",
"1144 -22 OFFCURVE",
"1322 136 OFFCURVE",
"1366 412 CURVE",
"1428 412 LINE",
"1374 590 LINE",
"1316 340 OFFCURVE",
"1114 178 OFFCURVE",
"844 178 CURVE SMOOTH"
);
}
);
width = 1824;
},
{
anchors = (
{
name = bottom;
position = "{854, 0}";
},
{
name = top;
position = "{850, 1464}";
}
);
layerId = "A59F1195-5331-40FD-8BD6-3900E1073F61";
rightMetricsKey = "=H-20";
paths = (
{
closed = 1;
nodes = (
"1224 -16 OFFCURVE",
"1514 252 OFFCURVE",
"1562 654 CURVE",
"1524 664 LINE",
"1476 282 OFFCURVE",
"1204 34 OFFCURVE",
"846 34 CURVE SMOOTH",
"446 34 OFFCURVE",
"154 330 OFFCURVE",
"154 756 CURVE SMOOTH",
"154 1178 OFFCURVE",
"430 1470 OFFCURVE",
"858 1470 CURVE SMOOTH",
"1206 1470 OFFCURVE",
"1444 1278 OFFCURVE",
"1512 914 CURVE",
"1528 1050 LINE",
"1508 1050 LINE",
"1436 1326 OFFCURVE",
"1216 1520 OFFCURVE",
"858 1520 CURVE SMOOTH",
"400 1520 OFFCURVE",
"102 1204 OFFCURVE",
"102 756 CURVE SMOOTH",
"102 302 OFFCURVE",
"414 -16 OFFCURVE",
"844 -16 CURVE SMOOTH"
);
},
{
closed = 1;
nodes = (
"1572 0 LINE",
"1572 696 LINE",
"1522 696 LINE",
"1522 564 LINE",
"1538 0 LINE"
);
},
{
closed = 1;
nodes = (
"1766 654 LINE",
"1766 702 LINE",
"972 702 LINE",
"972 654 LINE"
);
},
{
closed = 1;
nodes = (
"1560 914 LINE",
"1560 1504 LINE",
"1512 1504 LINE",
"1512 914 LINE"
);
}
);
width = 1800;
}
);
leftKerningGroup = O;
leftMetricsKey = O;
rightKerningGroup = G;
rightMetricsKey = "=H-16";
unicode = 0047;
},
{
glyphname = H;
layers = (
{
anchors = (
{
name = bottom;
position = "{928, 0}";
},
{
name = top;
position = "{926, 1464}";
}
);
layerId = "67AEAADB-8447-4819-9D92-8BB76BD22042";
leftMetricsKey = "=l-28";
paths = (
{
closed = 1;
nodes = (
"356 764 LINE",
"356 754 LINE",
"1496 754 LINE",
"1496 764 LINE"
);
},
{
closed = 1;
nodes = (
"352 1494 LINE",
"352 10 LINE",
"54 10 LINE",
"54 0 LINE",
"658 0 LINE",
"658 10 LINE",
"362 10 LINE",
"362 1494 LINE",
"658 1494 LINE",
"658 1504 LINE",
"54 1504 LINE",
"54 1494 LINE"
);
},
{
closed = 1;
nodes = (
"1494 1494 LINE",
"1494 10 LINE",
"1196 10 LINE",
"1196 0 LINE",
"1800 0 LINE",
"1800 10 LINE",
"1504 10 LINE",
"1504 1494 LINE",
"1800 1494 LINE",
"1800 1504 LINE",
"1196 1504 LINE",
"1196 1494 LINE"
);
}
);
width = 1854;
},
{
anchors = (
{
name = bottom;
position = "{876, 0}";
},
{
name = top;
position = "{876, 1544}";
}
);
layerId = "BE4E587A-F76C-447B-AA28-A45E40876AAF";
leftMetricsKey = "=l+8";
paths = (
{
closed = 1;
nodes = (
"410 954 LINE",
"410 600 LINE",
"1322 600 LINE",
"1322 954 LINE"
);
},
{
closed = 1;
nodes = (
"156 1130 LINE",
"156 414 LINE",
"42 414 LINE",
"42 0 LINE",
"786 0 LINE",
"786 414 LINE",
"672 414 LINE",
"672 1130 LINE",
"786 1130 LINE",
"786 1544 LINE",
"42 1544 LINE",
"42 1130 LINE"
);
},
{
closed = 1;
nodes = (
"1080 1130 LINE",
"1080 414 LINE",
"966 414 LINE",
"966 0 LINE",
"1710 0 LINE",
"1710 414 LINE",
"1596 414 LINE",
"1596 1130 LINE",
"1710 1130 LINE",
"1710 1544 LINE",
"966 1544 LINE",
"966 1130 LINE"
);
}
);
width = 1752;
},
{
anchors = (
{
name = bottom;
position = "{888, 0}";
},
{
name = top;
position = "{888, 1464}";
}
);
layerId = "2C5E45D0-97E8-45AA-A5B2-946753DF54E1";
leftMetricsKey = "=l-12";
paths = (
{
closed = 1;
nodes = (
"392 848 LINE",
"392 668 LINE",
"1364 668 LINE",
"1364 848 LINE"
);
},
{
closed = 1;
nodes = (
"276 1318 LINE",
"276 186 LINE",
"56 186 LINE",
"56 0 LINE",
"700 0 LINE",
"700 186 LINE",
"480 186 LINE",
"480 1318 LINE",
"700 1318 LINE",
"700 1504 LINE",
"56 1504 LINE",
"56 1318 LINE"
);
},
{
closed = 1;
nodes = (
"1296 1318 LINE",
"1296 186 LINE",
"1076 186 LINE",
"1076 0 LINE",
"1720 0 LINE",
"1720 186 LINE",
"1500 186 LINE",
"1500 1318 LINE",
"1720 1318 LINE",
"1720 1504 LINE",
"1076 1504 LINE",
"1076 1318 LINE"
);
}
);
width = 1776;
},
{
anchors = (
{
name = bottom;
position = "{918, 0}";
},
{
name = top;
position = "{918, 1464}";
}
);
layerId = "A59F1195-5331-40FD-8BD6-3900E1073F61";
leftMetricsKey = "=l-26";
paths = (
{
closed = 1;
nodes = (
"362 782 LINE",
"362 736 LINE",
"1468 736 LINE",
"1468 782 LINE"
);
},
{
closed = 1;
nodes = (
"336 1458 LINE",
"336 46 LINE",
"54 46 LINE",
"54 0 LINE",
"666 0 LINE",
"666 46 LINE",
"384 46 LINE",
"384 1458 LINE",
"666 1458 LINE",
"666 1504 LINE",
"54 1504 LINE",
"54 1458 LINE"
);
},
{
closed = 1;
nodes = (
"1452 1458 LINE",
"1452 46 LINE",
"1170 46 LINE",
"1170 0 LINE",
"1780 0 LINE",
"1780 46 LINE",
"1500 46 LINE",
"1500 1458 LINE",
"1780 1458 LINE",
"1780 1504 LINE",
"1170 1504 LINE",
"1170 1458 LINE"
);
}
);
width = 1834;
}
);
leftKerningGroup = H;
leftMetricsKey = l;
rightKerningGroup = H;
rightMetricsKey = "=|";
unicode = 0048;
},
{
color = 9;
glyphname = Hbar;
layers = (
{
components = (
{
name = H;
transform = "{1, 0, 0, 1, 14, 0}";
}
);
layerId = "67AEAADB-8447-4819-9D92-8BB76BD22042";
paths = (
{
closed = 1;
nodes = (
"54 1140 LINE",
"54 1130 LINE",
"1800 1130 LINE",
"1800 1140 LINE"
);
}
);
width = 1868;
},
{
components = (
{
name = H;
transform = "{1, 0, 0, 1, 12, 0}";
}
);
layerId = "A59F1195-5331-40FD-8BD6-3900E1073F61";
paths = (
{
closed = 1;
nodes = (
"54 1150 LINE",
"54 1104 LINE",
"1780 1104 LINE",
"1780 1150 LINE"
);
}
);
width = 1846;
},
{
components = (
{
name = H;
}
);
layerId = "2C5E45D0-97E8-45AA-A5B2-946753DF54E1";
paths = (
{
closed = 1;
nodes = (
"70 1168 LINE",
"70 1012 LINE",
"1686 1012 LINE",
"1686 1168 LINE"
);
}
);
width = 1776;
},
{
anchors = (
{
name = bottom;
position = "{888, 0}";
},
{
name = top;
position = "{888, 1464}";
}
);
associatedMasterId = "2C5E45D0-97E8-45AA-A5B2-946753DF54E1";
layerId = "BF2BF44C-F7D7-461D-9497-80A6D4506886";
name = "[98]";
paths = (
{
closed = 1;
nodes = (
"392 848 LINE",
"392 668 LINE",
"1364 668 LINE",
"1364 848 LINE"
);
},
{
closed = 1;
nodes = (
"276 1318 LINE",
"276 186 LINE",
"56 186 LINE",
"56 0 LINE",
"700 0 LINE",
"700 186 LINE",
"480 186 LINE",
"480 1318 LINE",
"700 1318 LINE",
"700 1504 LINE",
"56 1504 LINE",
"56 1318 LINE"
);
},
{
closed = 1;
nodes = (
"1296 1318 LINE",
"1296 186 LINE",
"1076 186 LINE",
"1076 0 LINE",
"1720 0 LINE",
"1720 186 LINE",
"1500 186 LINE",
"1500 1318 LINE",
"1720 1318 LINE",
"1720 1504 LINE",
"1076 1504 LINE",
"1076 1318 LINE"
);
},
{
closed = 1;
nodes = (
"400 1162 LINE",
"56 1162 LINE",
"56 982 LINE",
"400 982 LINE"
);
},
{
closed = 1;
nodes = (
"1400 982 LINE",
"1720 982 LINE",
"1720 1162 LINE",
"1400 1162 LINE"
);
}
);
width = 1776;
},
{
associatedMasterId = "BE4E587A-F76C-447B-AA28-A45E40876AAF";
components = (
{
name = H;
}
);
layerId = "72445A26-9631-4F42-ACC4-6356C4616E5A";
name = "Feb 18 18, 21:24";
paths = (
{
closed = 1;
nodes = (
"32 958 LINE",
"32 604 LINE",
"1700 604 LINE",
"1700 958 LINE"
);
}
);
width = 1732;
},
{
associatedMasterId = "BE4E587A-F76C-447B-AA28-A45E40876AAF";
components = (
{
name = H;
},
{
name = strokelongcomb;
transform = "{1, 0, 0, 1, -22, 0}";
}
);
layerId = "8FF3BFE3-584D-4E09-979B-9DB0D03D5F3A";
name = "May 8 18, 14:06";
width = 1752;
},
{
anchors = (
{
name = bottom;
position = "{876, 0}";
},
{
name = top;
position = "{876, 1544}";
}
);
associatedMasterId = "BE4E587A-F76C-447B-AA28-A45E40876AAF";
layerId = "A6CF7FF5-25E5-4E69-A76A-93A0C92AC544";
name = "May 17 18, 15:49";
paths = (
{
closed = 1;
nodes = (
"42 1414 LINE",
"42 1060 LINE",
"1710 1060 LINE",
"1710 1414 LINE"
);
},
{
closed = 1;
nodes = (
"410 964 LINE",
"410 610 LINE",
"1322 610 LINE",
"1322 964 LINE"
);
},
{
closed = 1;
nodes = (
"156 1544 LINE",
"156 414 LINE",
"42 414 LINE",
"42 0 LINE",
"786 0 LINE",
"786 414 LINE",
"672 414 LINE",
"672 1544 LINE"
);
},
{
closed = 1;
nodes = (
"1080 1544 LINE",
"1080 414 LINE",
"966 414 LINE",
"966 0 LINE",
"1710 0 LINE",
"1710 414 LINE",
"1596 414 LINE",
"1596 1544 LINE"
);
}
);
width = 1752;
},
{
anchors = (
{
name = bottom;
position = "{876, 0}";
},
{
name = top;
position = "{876, 1544}";
}
);
associatedMasterId = "BE4E587A-F76C-447B-AA28-A45E40876AAF";
layerId = "9B131272-9A88-4CDE-B9D6-68C30C6BC0DC";
name = "Jun 10 18, 19:43";
paths = (
{
closed = 1;
nodes = (
"410 954 LINE",
"410 600 LINE",
"1322 600 LINE",
"1322 954 LINE"
);
},
{
closed = 1;
nodes = (
"156 1164 LINE",
"156 414 LINE",
"42 414 LINE",
"42 0 LINE",
"786 0 LINE",
"786 414 LINE",
"672 414 LINE",
"672 1164 LINE",
"786 1164 LINE",
"786 1544 LINE",
"42 1544 LINE",
"42 1164 LINE"
);
},
{
closed = 1;
nodes = (
"1080 1164 LINE",
"1080 414 LINE",
"966 414 LINE",
"966 0 LINE",
"1710 0 LINE",
"1710 414 LINE",
"1596 414 LINE",
"1596 1164 LINE",
"1710 1164 LINE",
"1710 1544 LINE",
"966 1544 LINE",
"966 1164 LINE"
);
},
{
closed = 1;
nodes = (
"350 1096 LINE",
"42 1096 LINE",
"42 728 LINE",
"350 728 LINE"
);
},
{
closed = 1;
nodes = (
"1430 728 LINE",
"1710 728 LINE",
"1710 1096 LINE",
"1430 1096 LINE"
);
}
);
width = 1752;
},
{
associatedMasterId = "BE4E587A-F76C-447B-AA28-A45E40876AAF";
components = (
{
name = H;
}
);
layerId = "2EADE2A4-2003-464B-9A8D-03D18BD6AF6F";
name = "]98]";
paths = (
{
closed = 1;
nodes = (
"42 1076 LINE",
"42 1004 LINE",
"1710 1004 LINE",
"1710 1076 LINE"
);
}
);
width = 1752;
},
{
anchors = (
{
name = bottom;
position = "{876, 0}";
},
{
name = top;
position = "{876, 1544}";
}
);
layerId = "BE4E587A-F76C-447B-AA28-A45E40876AAF";
paths = (
{
closed = 1;
nodes = (
"410 954 LINE",
"410 600 LINE",
"1322 600 LINE",
"1322 954 LINE"
);
},
{
closed = 1;
nodes = (
"156 1164 LINE",
"156 414 LINE",
"42 414 LINE",
"42 0 LINE",
"786 0 LINE",
"786 414 LINE",
"672 414 LINE",
"672 1164 LINE",
"786 1164 LINE",
"786 1544 LINE",
"42 1544 LINE",
"42 1164 LINE"
);
},
{
closed = 1;
nodes = (
"1080 1164 LINE",
"1080 414 LINE",
"966 414 LINE",
"966 0 LINE",
"1710 0 LINE",
"1710 414 LINE",
"1596 414 LINE",
"1596 1164 LINE",
"1710 1164 LINE",
"1710 1544 LINE",
"966 1544 LINE",
"966 1164 LINE"
);
},
{
closed = 1;
nodes = (
"350 1096 LINE",
"42 1096 LINE",
"42 728 LINE",
"350 728 LINE"
);
},
{
closed = 1;
nodes = (
"1430 728 LINE",
"1710 728 LINE",
"1710 1096 LINE",
"1430 1096 LINE"
);
}
);
width = 1752;
},
{
anchors = (
{
name = bottom;
position = "{922, 0}";
},
{
name = top;
position = "{922, 1464}";
}
);
associatedMasterId = "A59F1195-5331-40FD-8BD6-3900E1073F61";
layerId = "8D284C77-267F-4575-A07B-9388D98EF797";
name = "[98]";
paths = (
{
closed = 1;
nodes = (
"366 782 LINE",
"366 736 LINE",
"1472 736 LINE",
"1472 782 LINE"
);
},
{
closed = 1;
nodes = (
"340 1458 LINE",
"340 46 LINE",
"58 46 LINE",
"58 0 LINE",
"670 0 LINE",
"670 46 LINE",
"388 46 LINE",
"388 1458 LINE",
"670 1458 LINE",
"670 1504 LINE",
"58 1504 LINE",
"58 1458 LINE"
);
},
{
closed = 1;
nodes = (
"1456 1458 LINE",
"1456 46 LINE",
"1174 46 LINE",
"1174 0 LINE",
"1784 0 LINE",
"1784 46 LINE",
"1504 46 LINE",
"1504 1458 LINE",
"1784 1458 LINE",
"1784 1504 LINE",
"1174 1504 LINE",
"1174 1458 LINE"
);
},
{
closed = 1;
nodes = (
"366 1150 LINE",
"54 1150 LINE",
"54 1104 LINE",
"366 1104 LINE"
);
},
{
closed = 1;
nodes = (
"1486 1104 LINE",
"1780 1104 LINE",
"1780 1150 LINE",
"1486 1150 LINE"
);
}
);
width = 1838;
},
{
anchors = (
{
name = bottom;
position = "{942, 0}";
},
{
name = top;
position = "{940, 1464}";
}
);
associatedMasterId = "67AEAADB-8447-4819-9D92-8BB76BD22042";
layerId = "79B48571-8764-4E14-BA92-FD5B4C8E22F0";
name = "[98]";
paths = (
{
closed = 1;
nodes = (
"370 764 LINE",
"370 754 LINE",
"1510 754 LINE",
"1510 764 LINE"
);
},
{
closed = 1;
nodes = (
"366 1494 LINE",
"366 10 LINE",
"68 10 LINE",
"68 0 LINE",
"672 0 LINE",
"672 10 LINE",
"376 10 LINE",
"376 1494 LINE",
"672 1494 LINE",
"672 1504 LINE",
"68 1504 LINE",
"68 1494 LINE"
);
},
{
closed = 1;
nodes = (
"1508 1494 LINE",
"1508 10 LINE",
"1210 10 LINE",
"1210 0 LINE",
"1814 0 LINE",
"1814 10 LINE",
"1518 10 LINE",
"1518 1494 LINE",
"1814 1494 LINE",
"1814 1504 LINE",
"1210 1504 LINE",
"1210 1494 LINE"
);
},
{
closed = 1;
nodes = (
"368 1140 LINE",
"54 1140 LINE",
"54 1130 LINE",
"368 1130 LINE"
);
},
{
closed = 1;
nodes = (
"1514 1130 LINE",
"1800 1130 LINE",
"1800 1140 LINE",
"1514 1140 LINE"
);
}
);
width = 1868;
},
{
associatedMasterId = "2C5E45D0-97E8-45AA-A5B2-946753DF54E1";
components = (
{
name = H;
}
);
layerId = "96A43251-B558-456F-B785-8734A6DA6F88";
name = "Jun 22 18, 10:41";
paths = (
{
closed = 1;
nodes = (
"70 1142 LINE",
"70 1034 LINE",
"1686 1034 LINE",
"1686 1142 LINE"
);
}
);
width = 1776;
}
);
leftKerningGroup = H;
leftMetricsKey = H;
rightKerningGroup = H;
rightMetricsKey = H;
unicode = 0126;
},
{
glyphname = I;
layers = (
{
anchors = (
{
name = bottom;
position = "{358, 0}";
},
{
name = ogonek;
position = "{660, 0}";
},
{
name = top;
position = "{360, 1464}";
}
);
layerId = "67AEAADB-8447-4819-9D92-8BB76BD22042";
paths = (
{
closed = 1;
nodes = (
"352 1494 LINE",
"352 10 LINE",
"54 10 LINE",
"54 0 LINE",
"660 0 LINE",
"660 10 LINE",
"362 10 LINE",
"362 1494 LINE",
"660 1494 LINE",
"660 1504 LINE",
"54 1504 LINE",
"54 1494 LINE"
);
}
);
width = 714;
},
{
anchors = (
{
name = bottom;
position = "{426, 0}";
},
{
name = ogonek;
position = "{786, 0}";
},
{
name = top;
position = "{426, 1544}";
}
);
layerId = "BE4E587A-F76C-447B-AA28-A45E40876AAF";
paths = (
{
closed = 1;
nodes = (
"156 1130 LINE",
"156 414 LINE",
"42 414 LINE",
"42 0 LINE",
"786 0 LINE",
"786 414 LINE",
"672 414 LINE",
"672 1130 LINE",
"786 1130 LINE",
"786 1544 LINE",
"42 1544 LINE",
"42 1130 LINE"
);
}
);
width = 828;
},
{
anchors = (
{
name = bottom;
position = "{378, 0}";
},
{
name = ogonek;
position = "{700, 0}";
},
{
name = top;
position = "{378, 1464}";
}
);
layerId = "2C5E45D0-97E8-45AA-A5B2-946753DF54E1";
paths = (
{
closed = 1;
nodes = (
"276 1318 LINE",
"276 186 LINE",
"56 186 LINE",
"56 0 LINE",
"700 0 LINE",
"700 186 LINE",
"480 186 LINE",
"480 1318 LINE",
"700 1318 LINE",
"700 1504 LINE",
"56 1504 LINE",
"56 1318 LINE"
);
}
);
width = 756;
},
{
anchors = (
{
name = bottom;
position = "{360, 0}";
},
{
name = ogonek;
position = "{666, 0}";
},
{
name = top;
position = "{362, 1464}";
}
);
layerId = "A59F1195-5331-40FD-8BD6-3900E1073F61";
paths = (
{
closed = 1;
nodes = (
"336 1458 LINE",
"336 46 LINE",
"54 46 LINE",
"54 0 LINE",
"666 0 LINE",
"666 46 LINE",
"384 46 LINE",
"384 1458 LINE",
"666 1458 LINE",
"666 1504 LINE",
"54 1504 LINE",
"54 1458 LINE"
);
}
);
width = 720;
}
);
leftKerningGroup = H;
leftMetricsKey = H;
rightKerningGroup = H;
rightMetricsKey = H;
unicode = 0049;
},
{
glyphname = J;
layers = (
{
anchors = (
{
name = bottom;
position = "{468, 0}";
},
{
name = top;
position = "{852, 1448}";
}
);
layerId = "67AEAADB-8447-4819-9D92-8BB76BD22042";
leftMetricsKey = "=|F+0";
rightMetricsKey = "=H-36";
paths = (
{
closed = 1;
nodes = (
"728 -14 OFFCURVE",
"874 158 OFFCURVE",
"874 474 CURVE SMOOTH",
"874 1494 LINE",
"1172 1494 LINE",
"1172 1504 LINE",
"508 1504 LINE",
"508 1494 LINE",
"864 1494 LINE",
"864 474 LINE SMOOTH",
"864 162 OFFCURVE",
"722 -4 OFFCURVE",
"456 -4 CURVE SMOOTH",
"192 -4 OFFCURVE",
"60 164 OFFCURVE",
"60 474 CURVE SMOOTH",
"60 560 LINE",
"50 560 LINE",
"50 474 LINE SMOOTH",
"50 158 OFFCURVE",
"186 -14 OFFCURVE",
"456 -14 CURVE SMOOTH"
);
}
);
width = 1190;
},
{
anchors = (
{
name = bottom;
position = "{622, 0}";
},
{
name = top;
position = "{920, 1544}";
}
);
layerId = "BE4E587A-F76C-447B-AA28-A45E40876AAF";
leftMetricsKey = "=|F";
rightMetricsKey = "=H-12";
paths = (
{
closed = 1;
nodes = (
"1012 -20 OFFCURVE",
"1190 212 OFFCURVE",
"1190 560 CURVE SMOOTH",
"1190 1130 LINE",
"1304 1130 LINE",
"1304 1544 LINE",
"496 1544 LINE",
"496 1130 LINE",
"672 1130 LINE",
"672 562 LINE SMOOTH",
"672 504 OFFCURVE",
"652 466 OFFCURVE",
"604 466 CURVE SMOOTH",
"556 466 OFFCURVE",
"534 504 OFFCURVE",
"534 562 CURVE SMOOTH",
"534 628 LINE",
"18 628 LINE",
"18 562 LINE SMOOTH",
"18 198 OFFCURVE",
"190 -20 OFFCURVE",
"604 -20 CURVE SMOOTH"
);
}
);
width = 1334;
},
{
anchors = (
{
name = bottom;
position = "{608, 0}";
},
{
name = top;
position = "{864, 1464}";
}
);
layerId = "2C5E45D0-97E8-45AA-A5B2-946753DF54E1";
leftMetricsKey = "=|F";
rightMetricsKey = "=H-26";
paths = (
{
closed = 1;
nodes = (
"824 -20 OFFCURVE",
"970 170 OFFCURVE",
"970 476 CURVE SMOOTH",
"970 1318 LINE",
"1190 1318 LINE",
"1190 1504 LINE",
"506 1504 LINE",
"506 1318 LINE",
"766 1318 LINE",
"766 478 LINE SMOOTH",
"766 276 OFFCURVE",
"676 180 OFFCURVE",
"506 180 CURVE SMOOTH",
"336 180 OFFCURVE",
"248 280 OFFCURVE",
"248 478 CURVE SMOOTH",
"248 590 LINE",
"44 590 LINE",
"44 478 LINE SMOOTH",
"44 160 OFFCURVE",
"182 -20 OFFCURVE",
"508 -20 CURVE SMOOTH"
);
}
);
width = 1220;
},
{
anchors = (
{
name = bottom;
position = "{494, 0}";
},
{
name = top;
position = "{852, 1452}";
}
);
layerId = "A59F1195-5331-40FD-8BD6-3900E1073F61";
leftMetricsKey = "=|F+0";
rightMetricsKey = "=H-34";
paths = (
{
closed = 1;
nodes = (
"744 -16 OFFCURVE",
"890 160 OFFCURVE",
"890 474 CURVE SMOOTH",
"890 1458 LINE",
"1174 1458 LINE",
"1174 1504 LINE",
"506 1504 LINE",
"506 1458 LINE",
"842 1458 LINE",
"842 474 LINE SMOOTH",
"842 186 OFFCURVE",
"710 34 OFFCURVE",
"464 34 CURVE SMOOTH",
"220 34 OFFCURVE",
"96 188 OFFCURVE",
"96 474 CURVE SMOOTH",
"96 566 LINE",
"48 566 LINE",
"48 474 LINE SMOOTH",
"48 158 OFFCURVE",
"186 -16 OFFCURVE",
"464 -16 CURVE SMOOTH"
);
}
);
width = 1194;
},
{
anchors = (
{
name = bottom;
position = "{562, 0}";
},
{
name = top;
position = "{782, 1464}";
}
);
associatedMasterId = "2C5E45D0-97E8-45AA-A5B2-946753DF54E1";
layerId = "5B6F99B9-E5A5-4882-98DE-8503DE41C8F3";
leftMetricsKey = "=|F";
rightMetricsKey = "=H-32";
name = "May 24 18, 14:12";
paths = (
{
closed = 1;
nodes = (
"756 -20 OFFCURVE",
"888 162 OFFCURVE",
"888 452 CURVE SMOOTH",
"888 1318 LINE",
"1108 1318 LINE",
"1108 1504 LINE",
"420 1504 LINE",
"420 1318 LINE",
"684 1318 LINE",
"684 454 LINE SMOOTH",
"684 268 OFFCURVE",
"608 180 OFFCURVE",
"462 180 CURVE SMOOTH",
"316 180 OFFCURVE",
"240 272 OFFCURVE",
"240 454 CURVE SMOOTH",
"240 560 LINE",
"36 560 LINE",
"36 454 LINE SMOOTH",
"36 150 OFFCURVE",
"162 -20 OFFCURVE",
"464 -20 CURVE SMOOTH"
);
}
);
width = 1124;
}
);
leftKerningGroup = J;
rightKerningGroup = J;
unicode = 004A;
},
{
glyphname = K;
layers = (
{
anchors = (
{
name = bottom;
position = "{884, 0}";
},
{
name = top;
position = "{884, 1464}";
}
);
layerId = "67AEAADB-8447-4819-9D92-8BB76BD22042";
paths = (
{
closed = 1;
nodes = (
"352 1494 LINE",
"352 10 LINE",
"54 10 LINE",
"54 0 LINE",
"660 0 LINE",
"660 10 LINE",
"362 10 LINE",
"362 1494 LINE",
"660 1494 LINE",
"660 1504 LINE",
"54 1504 LINE",
"54 1494 LINE"
);
},
{
closed = 1;
nodes = (
"842 896 LINE",
"1596 10 LINE",
"1114 10 LINE",
"1114 0 LINE",
"1742 0 LINE",
"1742 10 LINE",
"1608 10 LINE",
"852 900 LINE"
);
},
{
closed = 1;
nodes = (
"358 438 LINE",
"1498 1494 LINE",
"1678 1494 LINE",
"1678 1504 LINE",
"1012 1504 LINE",
"1012 1494 LINE",
"1484 1494 LINE",
"354 448 LINE"
);
}
);
width = 1780;
},
{
anchors = (
{
name = bottom;
position = "{924, 0}";
},
{
name = top;
position = "{924, 1544}";
}
);
layerId = "BE4E587A-F76C-447B-AA28-A45E40876AAF";
paths = (
{
closed = 1;
nodes = (
"152 1130 LINE",
"152 414 LINE",
"42 414 LINE",
"42 0 LINE",
"778 0 LINE",
"778 414 LINE",
"668 414 LINE",
"668 1130 LINE",
"778 1130 LINE",
"778 1544 LINE",
"42 1544 LINE",
"42 1130 LINE"
);
},
{
closed = 1;
nodes = (
"844 770 LINE",
"1118 414 LINE",
"942 414 LINE",
"942 0 LINE",
"1858 0 LINE",
"1858 414 LINE",
"1752 414 LINE",
"1276 966 LINE"
);
},
{
closed = 1;
nodes = (
"630 422 LINE",
"1688 1130 LINE",
"1808 1130 LINE",
"1808 1544 LINE",
"890 1544 LINE",
"890 1130 LINE",
"1038 1130 LINE",
"438 708 LINE"
);
}
);
width = 1884;
},
{
anchors = (
{
name = bottom;
position = "{854, 0}";
},
{
name = top;
position = "{854, 1464}";
}
);
layerId = "2C5E45D0-97E8-45AA-A5B2-946753DF54E1";
paths = (
{
closed = 1;
nodes = (
"276 1318 LINE",
"276 186 LINE",
"56 186 LINE",
"56 0 LINE",
"700 0 LINE",
"700 186 LINE",
"480 186 LINE",
"480 1318 LINE",
"700 1318 LINE",
"700 1504 LINE",
"56 1504 LINE",
"56 1318 LINE"
);
},
{
closed = 1;
nodes = (
"738 770 LINE",
"1248 186 LINE",
"856 186 LINE",
"856 0 LINE",
"1726 0 LINE",
"1726 186 LINE",
"1506 186 LINE",
"854 926 LINE"
);
},
{
closed = 1;
nodes = (
"434 422 LINE",
"1432 1318 LINE",
"1632 1318 LINE",
"1632 1504 LINE",
"856 1504 LINE",
"856 1318 LINE",
"1172 1318 LINE",
"370 590 LINE"
);
}
);
width = 1750;
},
{
anchors = (
{
name = bottom;
position = "{876, 0}";
},
{
name = top;
position = "{876, 1464}";
}
);
layerId = "A59F1195-5331-40FD-8BD6-3900E1073F61";
paths = (
{
closed = 1;
nodes = (
"336 1458 LINE",
"336 46 LINE",
"54 46 LINE",
"54 0 LINE",
"666 0 LINE",
"666 46 LINE",
"384 46 LINE",
"384 1458 LINE",
"666 1458 LINE",
"666 1504 LINE",
"54 1504 LINE",
"54 1458 LINE"
);
},
{
closed = 1;
nodes = (
"820 870 LINE",
"1524 46 LINE",
"1034 46 LINE",
"1034 0 LINE",
"1762 0 LINE",
"1762 46 LINE",
"1586 46 LINE",
"852 906 LINE"
);
},
{
closed = 1;
nodes = (
"374 434 LINE",
"1484 1458 LINE",
"1692 1458 LINE",
"1692 1504 LINE",
"956 1504 LINE",
"956 1458 LINE",
"1418 1458 LINE",
"356 478 LINE"
);
}
);
width = 1798;
}
);
leftKerningGroup = H;
leftMetricsKey = H;
rightKerningGroup = K;
rightMetricsKey = A;
unicode = 004B;
},
{
glyphname = L;
layers = (
{
anchors = (
{
name = bottom;
position = "{712, 0}";
},
{
name = right;
position = "{736, 738}";
},
{
name = top;
position = "{364, 1464}";
}
);
layerId = "67AEAADB-8447-4819-9D92-8BB76BD22042";
paths = (
{
closed = 1;
nodes = (
"352 1494 LINE",
"352 10 LINE",
"54 10 LINE",
"54 0 LINE",
"1266 0 LINE",
"1266 10 LINE",
"362 10 LINE",
"362 1494 LINE",
"660 1494 LINE",
"660 1504 LINE",
"54 1504 LINE",
"54 1494 LINE"
);
},
{
closed = 1;
nodes = (
"1260 460 LINE",
"1260 0 LINE",
"1270 0 LINE",
"1270 460 LINE"
);
}
);
width = 1320;
},
{
anchors = (
{
name = bottom;
position = "{786, 0}";
},
{
name = right;
position = "{1078, 1122}";
},
{
name = top;
position = "{442, 1544}";
}
);
layerId = "BE4E587A-F76C-447B-AA28-A45E40876AAF";
paths = (
{
closed = 1;
nodes = (
"156 1130 LINE",
"156 414 LINE",
"42 414 LINE",
"42 0 LINE",
"1156 0 LINE",
"1156 414 LINE",
"672 414 LINE",
"672 1130 LINE",
"786 1130 LINE",
"786 1544 LINE",
"42 1544 LINE",
"42 1130 LINE"
);
},
{
closed = 1;
nodes = (
"980 720 LINE",
"980 0 LINE",
"1496 0 LINE",
"1496 720 LINE"
);
}
);
width = 1514;
},
{
anchors = (
{
name = bottom;
position = "{690, 0}";
},
{
name = right;
position = "{710, 996}";
},
{
name = top;
position = "{400, 1464}";
}
);
layerId = "2C5E45D0-97E8-45AA-A5B2-946753DF54E1";
paths = (
{
closed = 1;
nodes = (
"276 1318 LINE",
"276 186 LINE",
"56 186 LINE",
"56 0 LINE",
"1170 0 LINE",
"1170 186 LINE",
"480 186 LINE",
"480 1318 LINE",
"710 1318 LINE",
"710 1504 LINE",
"56 1504 LINE",
"56 1318 LINE"
);
},
{
closed = 1;
nodes = (
"1090 506 LINE",
"1090 0 LINE",
"1294 0 LINE",
"1294 506 LINE"
);
}
);
width = 1338;
},
{
anchors = (
{
name = bottom;
position = "{706, 0}";
},
{
name = right;
position = "{730, 790}";
},
{
name = top;
position = "{370, 1464}";
}
);
layerId = "A59F1195-5331-40FD-8BD6-3900E1073F61";
paths = (
{
closed = 1;
nodes = (
"336 1458 LINE",
"336 46 LINE",
"54 46 LINE",
"54 0 LINE",
"1246 0 LINE",
"1246 46 LINE",
"384 46 LINE",
"384 1458 LINE",
"670 1458 LINE",
"670 1504 LINE",
"54 1504 LINE",
"54 1458 LINE"
);
},
{
closed = 1;
nodes = (
"1224 494 LINE",
"1224 0 LINE",
"1274 0 LINE",
"1274 494 LINE"
);
}
);
width = 1322;
},
{
anchors = (
{
name = bottom;
position = "{786, 0}";
},
{
name = right;
position = "{1078, 1122}";
},
{
name = top;
position = "{442, 1544}";
}
);
associatedMasterId = "BE4E587A-F76C-447B-AA28-A45E40876AAF";
layerId = "61D133C1-9D36-4CB1-9E72-14AC179B27D5";
name = "Jun 5 18, 11:06";
paths = (
{
closed = 1;
nodes = (
"156 1130 LINE",
"156 414 LINE",
"42 414 LINE",
"42 0 LINE",
"1066 0 LINE",
"1066 414 LINE",
"672 414 LINE",
"672 1130 LINE",
"786 1130 LINE",
"786 1544 LINE",
"42 1544 LINE",
"42 1130 LINE"
);
},
{
closed = 1;
nodes = (
"890 560 LINE",
"890 0 LINE",
"1406 0 LINE",
"1406 560 LINE"
);
}
);
width = 1424;
}
);
leftKerningGroup = H;
leftMetricsKey = H;
rightKerningGroup = L;
rightMetricsKey = F;
unicode = 004C;
},
{
glyphname = Lslash;
layers = (
{
components = (
{
name = L;
}
);
layerId = "67AEAADB-8447-4819-9D92-8BB76BD22042";
paths = (
{
closed = 1;
nodes = (
"798 904 LINE",
"794 912 LINE",
"62 532 LINE",
"66 524 LINE"
);
}
);
width = 1320;
},
{
associatedMasterId = "2C5E45D0-97E8-45AA-A5B2-946753DF54E1";
components = (
{
name = L;
},
{
name = strokelongcomb;
transform = "{0.45255, 0.45255, -0.70711, 0.70711, 786, -424}";
}
);
layerId = "A2538A51-25BE-4E98-A8E2-2273BA3536FF";
name = "Jan 4 18, 18:02";
width = 1338;
},
{
components = (
{
name = L;
transform = "{1, 0, 0, 1, 40, 0}";
}
);
layerId = "2C5E45D0-97E8-45AA-A5B2-946753DF54E1";
paths = (
{
closed = 1;
nodes = (
"884 846 LINE",
"808 1006 LINE",
"56 634 LINE",
"132 472 LINE"
);
}
);
width = 1378;
},
{
anchors = (
{
name = bottom;
position = "{786, 0}";
},
{
name = right;
position = "{1078, 1122}";
},
{
name = top;
position = "{442, 1544}";
}
);
associatedMasterId = "BE4E587A-F76C-447B-AA28-A45E40876AAF";
layerId = "500B5071-8530-492A-B473-5BF429AB32BE";
name = "May 4 18, 19:22";
paths = (
{
closed = 1;
nodes = (
"1156 1206 LINE",
"970 1528 LINE",
"-162 860 LINE",
"24 538 LINE"
);
},
{
closed = 1;
nodes = (
"156 1544 LINE",
"156 414 LINE",
"42 414 LINE",
"42 0 LINE",
"1156 0 LINE",
"1156 414 LINE",
"672 414 LINE",
"672 1544 LINE"
);
},
{
closed = 1;
nodes = (
"980 736 LINE",
"980 0 LINE",
"1496 0 LINE",
"1496 736 LINE"
);
}
);
width = 1514;
},
{
anchors = (
{
name = bottom;
position = "{786, 0}";
},
{
name = right;
position = "{1078, 1122}";
},
{
name = top;
position = "{442, 1544}";
}
);
associatedMasterId = "BE4E587A-F76C-447B-AA28-A45E40876AAF";
layerId = "DCAE03A2-1763-4ADF-9DF8-BC674AEF549D";
name = "May 6 18, 23:21";
paths = (
{
closed = 1;
nodes = (
"894 748 LINE",
"894 1120 LINE",
"42 838 LINE",
"42 466 LINE"
);
},
{
closed = 1;
nodes = (
"156 1130 LINE",
"156 414 LINE",
"42 414 LINE",
"42 0 LINE",
"1156 0 LINE",
"1156 414 LINE",
"672 414 LINE",
"672 1130 LINE",
"786 1130 LINE",
"786 1544 LINE",
"42 1544 LINE",
"42 1130 LINE"
);
},
{
closed = 1;
nodes = (
"980 736 LINE",
"980 0 LINE",
"1496 0 LINE",
"1496 736 LINE"
);
}
);
width = 1514;
},
{
associatedMasterId = "BE4E587A-F76C-447B-AA28-A45E40876AAF";
components = (
{
name = L;
},
{
name = slashshortcomb;
transform = "{1, 0, 0, 1, -38, 150}";
}
);
layerId = "3E94BC03-96FC-4E32-88CC-1AE844E43626";
name = "May 8 18, 14:00";
width = 1514;
},
{
components = (
{
name = L;
transform = "{1, 0, 0, 1, 72, 0}";
}
);
layerId = "BE4E587A-F76C-447B-AA28-A45E40876AAF";
paths = (
{
closed = 1;
nodes = (
"1018 752 LINE",
"914 1080 LINE",
"42 814 LINE",
"146 486 LINE"
);
}
);
width = 1586;
},
{
components = (
{
alignment = -1;
name = L;
transform = "{1, 0, 0, 1, 2, 0}";
}
);
layerId = "A59F1195-5331-40FD-8BD6-3900E1073F61";
paths = (
{
closed = 1;
nodes = (
"810 892 LINE",
"790 932 LINE",
"54 552 LINE",
"74 514 LINE"
);
}
);
width = 1324;
}
);
leftKerningGroup = H;
leftMetricsKey = L;
rightKerningGroup = L;
rightMetricsKey = L;
unicode = 0141;
},
{
color = 9;
glyphname = M;
layers = (
{
anchors = (
{
name = bottom;
position = "{1090, 0}";
},
{
name = top;
position = "{1090, 1464}";
}
);
layerId = "67AEAADB-8447-4819-9D92-8BB76BD22042";
paths = (
{
closed = 1;
nodes = (
"1098 0 LINE",
"1818 1504 LINE",
"1806 1504 LINE",
"1086 0 LINE",
"1094 0 LINE",
"374 1504 LINE",
"362 1504 LINE",
"1082 0 LINE"
);
},
{
closed = 1;
nodes = (
"660 0 LINE",
"660 10 LINE",
"362 10 LINE",
"362 1494 LINE",
"372 1494 LINE",
"372 1504 LINE",
"54 1504 LINE",
"54 1494 LINE",
"352 1494 LINE",
"352 10 LINE",
"54 10 LINE",
"54 0 LINE"
);
},
{
closed = 1;
nodes = (
"2126 0 LINE",
"2126 10 LINE",
"1828 10 LINE",
"1828 1494 LINE",
"2126 1494 LINE",
"2126 1504 LINE",
"1808 1504 LINE",
"1808 1494 LINE",
"1818 1494 LINE",
"1818 10 LINE",
"1520 10 LINE",
"1520 0 LINE"
);
}
);
width = 2180;
},
{
anchors = (
{
name = bottom;
position = "{1100, 0}";
},
{
name = top;
position = "{1100, 1544}";
}
);
layerId = "BE4E587A-F76C-447B-AA28-A45E40876AAF";
paths = (
{
closed = 1;
nodes = (
"1250 0 LINE",
"1616 1544 LINE",
"1286 1544 LINE",
"1102 608 LINE",
"1240 592 LINE",
"1020 1544 LINE",
"484 1544 LINE",
"878 0 LINE"
);
},
{
closed = 1;
nodes = (
"668 0 LINE",
"668 414 LINE",
"568 414 LINE",
"568 1130 LINE",
"630 1130 LINE",
"980 1544 LINE",
"42 1544 LINE",
"42 1130 LINE",
"152 1130 LINE",
"152 414 LINE",
"42 414 LINE",
"42 0 LINE"
);
},
{
closed = 1;
nodes = (
"2158 0 LINE",
"2158 414 LINE",
"2048 414 LINE",
"2048 1130 LINE",
"2158 1130 LINE",
"2158 1544 LINE",
"1286 1544 LINE",
"1470 1130 LINE",
"1532 1130 LINE",
"1532 414 LINE",
"1432 414 LINE",
"1432 0 LINE"
);
}
);
width = 2200;
},
{
anchors = (
{
name = bottom;
position = "{1050, 0}";
},
{
name = top;
position = "{1050, 1464}";
}
);
layerId = "2C5E45D0-97E8-45AA-A5B2-946753DF54E1";
paths = (
{
closed = 1;
nodes = (
"1144 0 LINE",
"1618 1330 LINE",
"1486 1504 LINE",
"1026 200 LINE",
"1078 200 LINE",
"620 1504 LINE",
"472 1330 LINE",
"944 0 LINE"
);
},
{
closed = 1;
nodes = (
"700 0 LINE",
"700 186 LINE",
"468 186 LINE",
"468 1318 LINE",
"594 1318 LINE",
"620 1504 LINE",
"56 1504 LINE",
"56 1318 LINE",
"276 1318 LINE",
"276 186 LINE",
"56 186 LINE",
"56 0 LINE"
);
},
{
closed = 1;
nodes = (
"2046 0 LINE",
"2046 186 LINE",
"1826 186 LINE",
"1826 1318 LINE",
"2046 1318 LINE",
"2046 1504 LINE",
"1486 1504 LINE",
"1480 1318 LINE",
"1622 1318 LINE",
"1622 186 LINE",
"1382 186 LINE",
"1382 0 LINE"
);
}
);
width = 2102;
},
{
associatedMasterId = "2C5E45D0-97E8-45AA-A5B2-946753DF54E1";
layerId = "22FEF5ED-B20E-46B2-9016-5B6A811F902C";
name = "Feb 23 18, 15:39";
paths = (
{
closed = 1;
nodes = (
"1158 0 LINE",
"1632 1330 LINE",
"1474 1504 LINE",
"1040 200 LINE",
"1158 286 LINE",
"970 286 LINE",
"1090 200 LINE",
"642 1504 LINE",
"484 1330 LINE",
"958 0 LINE"
);
},
{
closed = 1;
nodes = (
"700 0 LINE",
"700 186 LINE",
"480 186 LINE",
"480 1318 LINE",
"618 1318 LINE",
"642 1504 LINE",
"56 1504 LINE",
"56 1318 LINE",
"276 1318 LINE",
"276 186 LINE",
"56 186 LINE",
"56 0 LINE"
);
},
{
closed = 1;
nodes = (
"2060 0 LINE",
"2060 186 LINE",
"1840 186 LINE",
"1840 1318 LINE",
"2060 1318 LINE",
"2060 1504 LINE",
"1474 1504 LINE",
"1498 1318 LINE",
"1636 1318 LINE",
"1636 186 LINE",
"1416 186 LINE",
"1416 0 LINE"
);
}
);
width = 2116;
},
{
anchors = (
{
name = bottom;
position = "{1082, 0}";
},
{
name = top;
position = "{1082, 1464}";
}
);
layerId = "A59F1195-5331-40FD-8BD6-3900E1073F61";
paths = (
{
closed = 1;
nodes = (
"1100 0 LINE",
"1768 1468 LINE",
"1734 1504 LINE",
"1068 40 LINE",
"1086 40 LINE",
"420 1504 LINE",
"384 1468 LINE",
"1052 0 LINE"
);
},
{
closed = 1;
nodes = (
"668 0 LINE",
"668 46 LINE",
"382 46 LINE",
"382 1458 LINE",
"418 1458 LINE",
"418 1504 LINE",
"54 1504 LINE",
"54 1458 LINE",
"336 1458 LINE",
"336 46 LINE",
"54 46 LINE",
"54 0 LINE"
);
},
{
closed = 1;
nodes = (
"2100 0 LINE",
"2100 46 LINE",
"1818 46 LINE",
"1818 1458 LINE",
"2100 1458 LINE",
"2100 1504 LINE",
"1732 1504 LINE",
"1732 1458 LINE",
"1770 1458 LINE",
"1770 46 LINE",
"1484 46 LINE",
"1484 0 LINE"
);
}
);
width = 2154;
},
{
anchors = (
{
name = bottom;
position = "{1058, 0}";
},
{
name = top;
position = "{1058, 1464}";
}
);
associatedMasterId = "2C5E45D0-97E8-45AA-A5B2-946753DF54E1";
layerId = "AA452F08-ADEC-4C13-AB32-409FBC2A3EA2";
name = "May 29 18, 15:21";
paths = (
{
closed = 1;
nodes = (
"1158 0 LINE",
"1632 1330 LINE",
"1488 1504 LINE",
"1030 200 LINE",
"1086 200 LINE",
"632 1504 LINE",
"474 1330 LINE",
"942 0 LINE"
);
},
{
closed = 1;
nodes = (
"702 0 LINE",
"702 186 LINE",
"470 186 LINE",
"470 1318 LINE",
"602 1318 LINE",
"632 1504 LINE",
"56 1504 LINE",
"56 1318 LINE",
"276 1318 LINE",
"276 186 LINE",
"56 186 LINE",
"56 0 LINE"
);
},
{
closed = 1;
nodes = (
"2060 0 LINE",
"2060 186 LINE",
"1840 186 LINE",
"1840 1318 LINE",
"2060 1318 LINE",
"2060 1504 LINE",
"1488 1504 LINE",
"1486 1318 LINE",
"1636 1318 LINE",
"1636 186 LINE",
"1396 186 LINE",
"1396 0 LINE"
);
}
);
width = 2116;
},
{
anchors = (
{
name = bottom;
position = "{1100, 0}";
},
{
name = top;
position = "{1100, 1544}";
}
);
associatedMasterId = "BE4E587A-F76C-447B-AA28-A45E40876AAF";
layerId = "1889AD06-5D17-4626-A0D7-A9CA67B5F97D";
name = "Jun 1 18, 14:55";
paths = (
{
closed = 1;
nodes = (
"1270 0 LINE",
"1616 1544 LINE",
"1266 1544 LINE",
"1102 608 LINE",
"1240 592 LINE",
"1060 1544 LINE",
"484 1544 LINE",
"830 0 LINE"
);
},
{
closed = 1;
nodes = (
"668 0 LINE",
"668 414 LINE",
"568 414 LINE",
"568 1130 LINE",
"630 1130 LINE",
"1000 1544 LINE",
"42 1544 LINE",
"42 1130 LINE",
"152 1130 LINE",
"152 414 LINE",
"42 414 LINE",
"42 0 LINE"
);
},
{
closed = 1;
nodes = (
"2158 0 LINE",
"2158 414 LINE",
"2048 414 LINE",
"2048 1130 LINE",
"2158 1130 LINE",
"2158 1544 LINE",
"1266 1544 LINE",
"1470 1130 LINE",
"1532 1130 LINE",
"1532 414 LINE",
"1432 414 LINE",
"1432 0 LINE"
);
}
);
width = 2200;
},
{
anchors = (
{
name = bottom;
position = "{1103, 0}";
},
{
name = top;
position = "{1103, 1516}";
}
);
associatedMasterId = "BE4E587A-F76C-447B-AA28-A45E40876AAF";
layerId = "2CD4897C-82AF-472F-9CE4-B51EE4AF7BFB";
name = "{200}";
paths = (
{
closed = 1;
nodes = (
"1267 0 LINE",
"1657 1470 LINE",
"1343 1530 LINE",
"1077 466 LINE",
"1185 456 LINE",
"947 1530 LINE",
"521 1470 LINE",
"909 0 LINE"
);
},
{
closed = 1;
nodes = (
"719 0 LINE",
"719 336 LINE",
"573 336 LINE",
"573 1196 LINE",
"657 1196 LINE",
"909 1530 LINE",
"47 1530 LINE",
"47 1196 LINE",
"195 1196 LINE",
"195 336 LINE",
"47 336 LINE",
"47 0 LINE"
);
},
{
closed = 1;
nodes = (
"2159 0 LINE",
"2159 336 LINE",
"2011 336 LINE",
"2011 1196 LINE",
"2159 1196 LINE",
"2159 1530 LINE",
"1343 1530 LINE",
"1513 1196 LINE",
"1603 1196 LINE",
"1603 336 LINE",
"1455 336 LINE",
"1455 0 LINE"
);
}
);
width = 2206;
}
);
leftKerningGroup = H;
leftMetricsKey = H;
rightKerningGroup = H;
rightMetricsKey = "=|";
unicode = 004D;
},
{
glyphname = N;
layers = (
{
anchors = (
{
name = bottom;
position = "{910, 0}";
},
{
name = top;
position = "{910, 1464}";
}
);
layerId = "67AEAADB-8447-4819-9D92-8BB76BD22042";
rightMetricsKey = "=H-20";
paths = (
{
closed = 1;
nodes = (
"1508 0 LINE",
"370 1504 LINE",
"358 1504 LINE",
"1496 0 LINE"
);
},
{
closed = 1;
nodes = (
"352 1496 LINE",
"352 10 LINE",
"54 10 LINE",
"54 0 LINE",
"658 0 LINE",
"658 10 LINE",
"362 10 LINE",
"362 1494 LINE",
"370 1494 LINE",
"370 1504 LINE",
"54 1504 LINE",
"54 1496 LINE"
);
},
{
closed = 1;
nodes = (
"1502 1494 LINE",
"1502 10 LINE",
"1496 10 LINE",
"1502 0 LINE",
"1512 0 LINE",
"1512 1494 LINE",
"1808 1494 LINE",
"1808 1504 LINE",
"1174 1504 LINE",
"1174 1494 LINE"
);
}
);
width = 1842;
},
{
anchors = (
{
name = bottom;
position = "{888, 0}";
},
{
name = top;
position = "{888, 1544}";
}
);
layerId = "BE4E587A-F76C-447B-AA28-A45E40876AAF";
paths = (
{
closed = 1;
nodes = (
"1538 0 LINE",
"814 1544 LINE",
"266 1544 LINE",
"990 0 LINE"
);
},
{
closed = 1;
nodes = (
"152 1130 LINE",
"152 414 LINE",
"42 414 LINE",
"42 0 LINE",
"674 0 LINE",
"674 414 LINE",
"564 414 LINE",
"564 880 LINE",
"660 880 LINE",
"814 1544 LINE",
"42 1544 LINE",
"42 1130 LINE"
);
},
{
closed = 1;
nodes = (
"1240 1130 LINE",
"1240 672 LINE",
"1156 672 LINE",
"1314 0 LINE",
"1652 0 LINE",
"1652 1130 LINE",
"1762 1130 LINE",
"1762 1544 LINE",
"1130 1544 LINE",
"1130 1130 LINE"
);
}
);
width = 1776;
},
{
anchors = (
{
name = bottom;
position = "{906, 0}";
},
{
name = top;
position = "{906, 1464}";
}
);
layerId = "2C5E45D0-97E8-45AA-A5B2-946753DF54E1";
rightMetricsKey = "=H-24";
paths = (
{
closed = 1;
nodes = (
"1514 0 LINE",
"570 1504 LINE",
"334 1504 LINE",
"1278 0 LINE"
);
},
{
closed = 1;
nodes = (
"276 1318 LINE",
"276 186 LINE",
"56 186 LINE",
"56 0 LINE",
"686 0 LINE",
"686 186 LINE",
"466 186 LINE",
"466 1282 LINE",
"566 1282 LINE",
"568 1504 LINE",
"56 1504 LINE",
"56 1318 LINE"
);
},
{
closed = 1;
nodes = (
"1346 1318 LINE",
"1346 280 LINE",
"1206 280 LINE",
"1278 0 LINE",
"1536 0 LINE",
"1536 1318 LINE",
"1756 1318 LINE",
"1756 1504 LINE",
"1126 1504 LINE",
"1126 1318 LINE"
);
}
);
width = 1788;
},
{
anchors = (
{
name = bottom;
position = "{964, 0}";
},
{
name = top;
position = "{964, 1464}";
}
);
associatedMasterId = "2C5E45D0-97E8-45AA-A5B2-946753DF54E1";
layerId = "047D3E99-1A20-4FF1-B7C9-46C9AE164200";
rightMetricsKey = "=H-40";
name = "Feb 23 18, 15:40";
paths = (
{
closed = 1;
nodes = (
"1560 0 LINE",
"636 1504 LINE",
"396 1504 LINE",
"1320 0 LINE"
);
},
{
closed = 1;
nodes = (
"324 1318 LINE",
"324 186 LINE",
"104 186 LINE",
"104 0 LINE",
"748 0 LINE",
"748 186 LINE",
"528 186 LINE",
"528 1282 LINE",
"634 1282 LINE",
"634 1504 LINE",
"104 1504 LINE",
"104 1318 LINE"
);
},
{
closed = 1;
nodes = (
"1398 1318 LINE",
"1398 280 LINE",
"1258 280 LINE",
"1320 0 LINE",
"1602 0 LINE",
"1602 1318 LINE",
"1822 1318 LINE",
"1822 1504 LINE",
"1178 1504 LINE",
"1178 1318 LINE"
);
}
);
width = 1886;
},
{
anchors = (
{
name = bottom;
position = "{908, 0}";
},
{
name = top;
position = "{908, 1464}";
}
);
layerId = "A59F1195-5331-40FD-8BD6-3900E1073F61";
rightMetricsKey = "=H-20";
paths = (
{
closed = 1;
nodes = (
"1508 0 LINE",
"412 1504 LINE",
"352 1504 LINE",
"1448 0 LINE"
);
},
{
closed = 1;
nodes = (
"336 1460 LINE",
"336 46 LINE",
"54 46 LINE",
"54 0 LINE",
"662 0 LINE",
"662 46 LINE",
"382 46 LINE",
"382 1450 LINE",
"410 1450 LINE",
"412 1504 LINE",
"54 1504 LINE",
"54 1460 LINE"
);
},
{
closed = 1;
nodes = (
"1470 1458 LINE",
"1470 66 LINE",
"1436 66 LINE",
"1454 0 LINE",
"1516 0 LINE",
"1516 1458 LINE",
"1798 1458 LINE",
"1798 1504 LINE",
"1164 1504 LINE",
"1164 1458 LINE"
);
}
);
width = 1832;
},
{
anchors = (
{
name = bottom;
position = "{902, 0}";
},
{
name = top;
position = "{902, 1464}";
}
);
associatedMasterId = "2C5E45D0-97E8-45AA-A5B2-946753DF54E1";
layerId = "12114F2B-2606-41A7-B8C8-895E3F1C7E21";
rightMetricsKey = "=H-24";
name = "May 29 18, 15:19";
paths = (
{
closed = 1;
nodes = (
"1510 0 LINE",
"576 1504 LINE",
"330 1504 LINE",
"1264 0 LINE"
);
},
{
closed = 1;
nodes = (
"272 1318 LINE",
"272 186 LINE",
"52 186 LINE",
"52 0 LINE",
"682 0 LINE",
"682 186 LINE",
"462 186 LINE",
"462 1282 LINE",
"568 1282 LINE",
"574 1504 LINE",
"52 1504 LINE",
"52 1318 LINE"
);
},
{
closed = 1;
nodes = (
"1348 1318 LINE",
"1348 280 LINE",
"1208 280 LINE",
"1264 0 LINE",
"1538 0 LINE",
"1538 1318 LINE",
"1758 1318 LINE",
"1758 1504 LINE",
"1128 1504 LINE",
"1128 1318 LINE"
);
}
);
width = 1786;
},
{
anchors = (
{
name = bottom;
position = "{888, 0}";
},
{
name = top;
position = "{888, 1544}";
}
);
associatedMasterId = "BE4E587A-F76C-447B-AA28-A45E40876AAF";
layerId = "D52D04D7-CE11-46A3-BD48-0F49B28DD047";
name = "Jun 1 18, 14:57";
paths = (
{
closed = 1;
nodes = (
"1490 0 LINE",
"882 1544 LINE",
"316 1544 LINE",
"924 0 LINE"
);
},
{
closed = 1;
nodes = (
"152 1130 LINE",
"152 414 LINE",
"42 414 LINE",
"42 0 LINE",
"678 0 LINE",
"678 414 LINE",
"568 414 LINE",
"568 880 LINE",
"664 880 LINE",
"882 1544 LINE",
"42 1544 LINE",
"42 1130 LINE"
);
},
{
closed = 1;
nodes = (
"1236 1130 LINE",
"1236 672 LINE",
"1152 672 LINE",
"1310 0 LINE",
"1652 0 LINE",
"1652 1130 LINE",
"1762 1130 LINE",
"1762 1544 LINE",
"1126 1544 LINE",
"1126 1130 LINE"
);
}
);
width = 1776;
}
);
leftKerningGroup = H;
leftMetricsKey = H;
rightKerningGroup = N;
rightMetricsKey = "=|-28";
unicode = 004E;
},
{
color = 3;
glyphname = Eng;
layers = (
{
layerId = "67AEAADB-8447-4819-9D92-8BB76BD22042";
paths = (
{
closed = 1;
nodes = (
"352 1496 LINE",
"352 10 LINE",
"54 10 LINE",
"54 0 LINE",
"658 0 LINE",
"658 10 LINE",
"362 10 LINE",
"362 1494 LINE",
"370 1494 LINE",
"370 1504 LINE",
"54 1504 LINE",
"54 1496 LINE"
);
},
{
closed = 1;
nodes = (
"1174 1494 LINE",
"1502 1494 LINE",
"1502 -168 LINE SMOOTH",
"1502 -344 OFFCURVE",
"1406 -424 OFFCURVE",
"1262 -424 CURVE SMOOTH",
"1232 -424 OFFCURVE",
"1206 -420 OFFCURVE",
"1184 -414 CURVE",
"1180 -424 LINE",
"1204 -430 OFFCURVE",
"1232 -434 OFFCURVE",
"1262 -434 CURVE SMOOTH",
"1412 -434 OFFCURVE",
"1512 -350 OFFCURVE",
"1512 -168 CURVE SMOOTH",
"1512 1494 LINE",
"1808 1494 LINE",
"1808 1504 LINE",
"1174 1504 LINE"
);
},
{
closed = 1;
nodes = (
"1512 0 LINE",
"370 1504 LINE",
"358 1504 LINE",
"1508 -10 LINE"
);
}
);
width = 1842;
},
{
layerId = "2C5E45D0-97E8-45AA-A5B2-946753DF54E1";
paths = (
{
closed = 1;
nodes = (
"276 1318 LINE",
"276 186 LINE",
"56 186 LINE",
"56 0 LINE",
"686 0 LINE",
"686 186 LINE",
"466 186 LINE",
"466 1282 LINE",
"572 1282 LINE",
"568 1504 LINE",
"56 1504 LINE",
"56 1318 LINE"
);
},
{
closed = 1;
nodes = (
"1132 1318 LINE",
"1352 1318 LINE",
"1352 -78 LINE SMOOTH",
"1352 -200 OFFCURVE",
"1296 -256 OFFCURVE",
"1182 -256 CURVE SMOOTH",
"1152 -256 OFFCURVE",
"1120 -252 OFFCURVE",
"1088 -242 CURVE",
"1032 -412 LINE",
"1092 -430 OFFCURVE",
"1146 -440 OFFCURVE",
"1210 -440 CURVE SMOOTH",
"1438 -440 OFFCURVE",
"1542 -304 OFFCURVE",
"1542 -84 CURVE SMOOTH",
"1542 1318 LINE",
"1762 1318 LINE",
"1762 1504 LINE",
"1132 1504 LINE"
);
},
{
closed = 1;
nodes = (
"1496 130 LINE",
"568 1504 LINE",
"326 1504 LINE",
"1370 -16 LINE"
);
}
);
width = 1794;
},
{
layerId = "BE4E587A-F76C-447B-AA28-A45E40876AAF";
paths = (
{
closed = 1;
nodes = (
"152 1130 LINE",
"152 414 LINE",
"42 414 LINE",
"42 0 LINE",
"678 0 LINE",
"678 414 LINE",
"568 414 LINE",
"568 880 LINE",
"664 880 LINE",
"694 1544 LINE",
"42 1544 LINE",
"42 1130 LINE"
);
},
{
closed = 1;
nodes = (
"1126 1130 LINE",
"1236 1130 LINE",
"1236 -6 LINE SMOOTH",
"1236 -52 OFFCURVE",
"1212 -74 OFFCURVE",
"1154 -74 CURVE SMOOTH",
"1136 -74 OFFCURVE",
"1116 -72 OFFCURVE",
"1100 -68 CURVE",
"1018 -428 LINE",
"1076 -442 OFFCURVE",
"1140 -448 OFFCURVE",
"1202 -448 CURVE SMOOTH",
"1528 -448 OFFCURVE",
"1652 -280 OFFCURVE",
"1652 -6 CURVE SMOOTH",
"1652 1130 LINE",
"1762 1130 LINE",
"1762 1544 LINE",
"1126 1544 LINE"
);
},
{
closed = 1;
nodes = (
"1576 418 LINE",
"694 1544 LINE",
"150 1364 LINE",
"1264 -38 LINE"
);
}
);
width = 1776;
},
{
associatedMasterId = "2C5E45D0-97E8-45AA-A5B2-946753DF54E1";
layerId = "FB1A8F30-5F79-470A-A46F-EF9FE121BE0F";
name = "Feb 6 18, 15:46";
paths = (
{
closed = 1;
nodes = (
"1552 132 LINE",
"636 1504 LINE",
"464 1394 LINE",
"1436 -44 LINE"
);
},
{
closed = 1;
nodes = (
"324 1318 LINE",
"324 186 LINE",
"104 186 LINE",
"104 0 LINE",
"748 0 LINE",
"748 186 LINE",
"528 186 LINE",
"528 1282 LINE",
"634 1282 LINE",
"634 1504 LINE",
"104 1504 LINE",
"104 1318 LINE"
);
},
{
closed = 1;
nodes = (
"1178 1318 LINE",
"1398 1318 LINE",
"1398 -62 LINE SMOOTH",
"1398 -184 OFFCURVE",
"1340 -240 OFFCURVE",
"1228 -240 CURVE SMOOTH",
"1180 -240 OFFCURVE",
"1136 -230 OFFCURVE",
"1092 -218 CURVE",
"1092 -414 LINE",
"1148 -430 OFFCURVE",
"1200 -440 OFFCURVE",
"1260 -440 CURVE SMOOTH",
"1494 -440 OFFCURVE",
"1602 -298 OFFCURVE",
"1602 -68 CURVE SMOOTH",
"1602 1318 LINE",
"1822 1318 LINE",
"1822 1504 LINE",
"1178 1504 LINE"
);
}
);
width = 1886;
},
{
associatedMasterId = "BE4E587A-F76C-447B-AA28-A45E40876AAF";
layerId = "FCC288A5-2804-4E89-8E5E-00E508EEB537";
name = "Mar 13 18, 16:06";
paths = (
{
closed = 1;
nodes = (
"1496 0 LINE",
"814 1544 LINE",
"422 1544 LINE",
"1184 0 LINE"
);
},
{
closed = 1;
nodes = (
"142 1130 LINE",
"142 414 LINE",
"32 414 LINE",
"32 0 LINE",
"788 0 LINE",
"788 414 LINE",
"658 414 LINE",
"658 1082 LINE",
"754 1082 LINE",
"774 1544 LINE",
"32 1544 LINE",
"32 1130 LINE"
);
},
{
closed = 1;
nodes = (
"1064 1130 LINE",
"1174 1130 LINE",
"1174 -6 LINE SMOOTH",
"1174 -52 OFFCURVE",
"1150 -74 OFFCURVE",
"1092 -74 CURVE SMOOTH",
"1074 -74 OFFCURVE",
"1054 -72 OFFCURVE",
"1038 -68 CURVE",
"956 -428 LINE",
"1014 -442 OFFCURVE",
"1078 -448 OFFCURVE",
"1150 -448 CURVE SMOOTH",
"1538 -448 OFFCURVE",
"1690 -280 OFFCURVE",
"1690 -6 CURVE SMOOTH",
"1690 1130 LINE",
"1800 1130 LINE",
"1800 1544 LINE",
"1064 1544 LINE"
);
}
);
width = 1804;
},
{
layerId = "A59F1195-5331-40FD-8BD6-3900E1073F61";
paths = (
{
closed = 1;
nodes = (
"336 1460 LINE",
"336 46 LINE",
"54 46 LINE",
"54 0 LINE",
"662 0 LINE",
"662 46 LINE",
"382 46 LINE",
"382 1450 LINE",
"410 1450 LINE",
"412 1504 LINE",
"54 1504 LINE",
"54 1460 LINE"
);
},
{
closed = 1;
nodes = (
"1164 1458 LINE",
"1470 1458 LINE",
"1470 -150 LINE SMOOTH",
"1470 -314 OFFCURVE",
"1382 -390 OFFCURVE",
"1244 -390 CURVE SMOOTH",
"1214 -390 OFFCURVE",
"1188 -386 OFFCURVE",
"1164 -378 CURVE",
"1148 -422 LINE",
"1180 -430 OFFCURVE",
"1214 -436 OFFCURVE",
"1250 -436 CURVE SMOOTH",
"1416 -436 OFFCURVE",
"1516 -340 OFFCURVE",
"1516 -150 CURVE SMOOTH",
"1516 1458 LINE",
"1798 1458 LINE",
"1798 1504 LINE",
"1164 1504 LINE"
);
},
{
closed = 1;
nodes = (
"1510 28 LINE",
"412 1504 LINE",
"350 1504 LINE",
"1478 -12 LINE"
);
}
);
width = 1832;
},
{
associatedMasterId = "2C5E45D0-97E8-45AA-A5B2-946753DF54E1";
layerId = "107BFF17-E548-46BE-88AD-6329FDDB8028";
name = "May 29 18, 15:26";
paths = (
{
closed = 1;
nodes = (
"272 1318 LINE",
"272 186 LINE",
"52 186 LINE",
"52 0 LINE",
"682 0 LINE",
"682 186 LINE",
"462 186 LINE",
"462 1282 LINE",
"568 1282 LINE",
"576 1504 LINE",
"52 1504 LINE",
"52 1318 LINE"
);
},
{
closed = 1;
nodes = (
"1128 1318 LINE",
"1348 1318 LINE",
"1348 -78 LINE SMOOTH",
"1348 -200 OFFCURVE",
"1292 -256 OFFCURVE",
"1178 -256 CURVE SMOOTH",
"1148 -256 OFFCURVE",
"1116 -252 OFFCURVE",
"1084 -242 CURVE",
"1028 -412 LINE",
"1088 -430 OFFCURVE",
"1142 -440 OFFCURVE",
"1206 -440 CURVE SMOOTH",
"1434 -440 OFFCURVE",
"1538 -304 OFFCURVE",
"1538 -84 CURVE SMOOTH",
"1538 1318 LINE",
"1758 1318 LINE",
"1758 1504 LINE",
"1128 1504 LINE"
);
},
{
closed = 1;
nodes = (
"1504 134 LINE",
"576 1504 LINE",
"322 1504 LINE",
"1360 -16 LINE"
);
}
);
width = 1786;
}
);
leftKerningGroup = H;
leftMetricsKey = N;
rightKerningGroup = N;
rightMetricsKey = N;
unicode = 014A;
},
{
glyphname = O;
layers = (
{
anchors = (
{
name = bottom;
position = "{862, 0}";
},
{
name = horn;
position = "{1020, 1504}";
},
{
name = ogonek;
position = "{1110, 22}";
},
{
name = top;
position = "{862, 1464}";
}
);
layerId = "67AEAADB-8447-4819-9D92-8BB76BD22042";
leftMetricsKey = "=o-10";
paths = (
{
closed = 1;
nodes = (
"1310 -14 OFFCURVE",
"1620 302 OFFCURVE",
"1620 756 CURVE SMOOTH",
"1620 1204 OFFCURVE",
"1310 1518 OFFCURVE",
"862 1518 CURVE SMOOTH",
"414 1518 OFFCURVE",
"104 1204 OFFCURVE",
"104 756 CURVE SMOOTH",
"104 302 OFFCURVE",
"414 -14 OFFCURVE",
"862 -14 CURVE SMOOTH"
);
},
{
closed = 1;
nodes = (
"418 -4 OFFCURVE",
"114 308 OFFCURVE",
"114 756 CURVE SMOOTH",
"114 1198 OFFCURVE",
"418 1508 OFFCURVE",
"862 1508 CURVE SMOOTH",
"1306 1508 OFFCURVE",
"1610 1198 OFFCURVE",
"1610 756 CURVE SMOOTH",
"1610 308 OFFCURVE",
"1306 -4 OFFCURVE",
"862 -4 CURVE SMOOTH"
);
}
);
width = 1724;
},
{
anchors = (
{
name = bottom;
position = "{872, 0}";
},
{
name = horn;
position = "{1082, 1504}";
},
{
name = ogonek;
position = "{1200, 38}";
},
{
name = top;
position = "{872, 1464}";
}
);
layerId = "2C5E45D0-97E8-45AA-A5B2-946753DF54E1";
leftMetricsKey = "=o-16";
paths = (
{
closed = 1;
nodes = (
"1334 -24 OFFCURVE",
"1652 296 OFFCURVE",
"1652 756 CURVE SMOOTH",
"1652 1210 OFFCURVE",
"1334 1528 OFFCURVE",
"872 1528 CURVE SMOOTH",
"410 1528 OFFCURVE",
"92 1210 OFFCURVE",
"92 756 CURVE SMOOTH",
"92 296 OFFCURVE",
"410 -24 OFFCURVE",
"872 -24 CURVE SMOOTH"
);
},
{
closed = 1;
nodes = (
"538 176 OFFCURVE",
"308 414 OFFCURVE",
"308 756 CURVE SMOOTH",
"308 1096 OFFCURVE",
"538 1328 OFFCURVE",
"872 1328 CURVE SMOOTH",
"1206 1328 OFFCURVE",
"1436 1096 OFFCURVE",
"1436 756 CURVE SMOOTH",
"1436 414 OFFCURVE",
"1206 176 OFFCURVE",
"872 176 CURVE SMOOTH"
);
}
);
width = 1744;
},
{
anchors = (
{
name = bottom;
position = "{864, 0}";
},
{
name = horn;
position = "{1032, 1504}";
},
{
name = ogonek;
position = "{1140, 26}";
},
{
name = top;
position = "{864, 1464}";
}
);
layerId = "A59F1195-5331-40FD-8BD6-3900E1073F61";
leftMetricsKey = "=o-10";
paths = (
{
closed = 1;
nodes = (
"1314 -16 OFFCURVE",
"1626 300 OFFCURVE",
"1626 756 CURVE SMOOTH",
"1626 1206 OFFCURVE",
"1314 1520 OFFCURVE",
"864 1520 CURVE SMOOTH",
"414 1520 OFFCURVE",
"102 1206 OFFCURVE",
"102 756 CURVE SMOOTH",
"102 300 OFFCURVE",
"414 -16 OFFCURVE",
"864 -16 CURVE SMOOTH"
);
},
{
closed = 1;
nodes = (
"442 32 OFFCURVE",
"154 330 OFFCURVE",
"154 756 CURVE SMOOTH",
"154 1178 OFFCURVE",
"442 1472 OFFCURVE",
"864 1472 CURVE SMOOTH",
"1286 1472 OFFCURVE",
"1574 1178 OFFCURVE",
"1574 756 CURVE SMOOTH",
"1574 330 OFFCURVE",
"1286 32 OFFCURVE",
"864 32 CURVE SMOOTH"
);
}
);
width = 1728;
},
{
anchors = (
{
name = bottom;
position = "{868, 0}";
},
{
name = horn;
position = "{1110, 1544}";
},
{
name = ogonek;
position = "{1256, 50}";
},
{
name = top;
position = "{868, 1544}";
}
);
layerId = "BE4E587A-F76C-447B-AA28-A45E40876AAF";
leftMetricsKey = "=o-6";
paths = (
{
closed = 1;
nodes = (
"1368 -28 OFFCURVE",
"1714 302 OFFCURVE",
"1714 776 CURVE SMOOTH",
"1714 1244 OFFCURVE",
"1368 1572 OFFCURVE",
"868 1572 CURVE SMOOTH",
"368 1572 OFFCURVE",
"22 1244 OFFCURVE",
"22 776 CURVE SMOOTH",
"22 302 OFFCURVE",
"368 -28 OFFCURVE",
"868 -28 CURVE SMOOTH"
);
},
{
closed = 1;
nodes = (
"684 460 OFFCURVE",
"556 590 OFFCURVE",
"556 776 CURVE SMOOTH",
"556 958 OFFCURVE",
"684 1084 OFFCURVE",
"868 1084 CURVE SMOOTH",
"1052 1084 OFFCURVE",
"1180 958 OFFCURVE",
"1180 776 CURVE SMOOTH",
"1180 590 OFFCURVE",
"1052 460 OFFCURVE",
"868 460 CURVE SMOOTH"
);
}
);
width = 1736;
}
);
leftKerningGroup = O;
rightKerningGroup = O;
rightMetricsKey = "=|";
unicode = 004F;
},
{
glyphname = Ohorn;
layers = (
{
components = (
{
name = O;
},
{
name = horncomb.case;
transform = "{1, 0, 0, 1, 940, 0}";
}
);
layerId = "67AEAADB-8447-4819-9D92-8BB76BD22042";
width = 1724;
},
{
components = (
{
name = O;
},
{
name = horncomb.case;
transform = "{1, 0, 0, 1, 1002, 0}";
}
);
layerId = "2C5E45D0-97E8-45AA-A5B2-946753DF54E1";
width = 1744;
},
{
components = (
{
name = O;
},
{
name = horncomb.case;
transform = "{1, 0, 0, 1, 1030, 0}";
}
);
layerId = "BE4E587A-F76C-447B-AA28-A45E40876AAF";
rightMetricsKey = "=O+12";
width = 1736;
},
{
anchors = (
{
name = _horn;
position = "{1054, 1508}";
}
);
associatedMasterId = "2C5E45D0-97E8-45AA-A5B2-946753DF54E1";
components = (
{
name = O;
}
);
layerId = "9679794A-02BB-4919-A1CE-3AAAE12FF15B";
name = "May 7 18, 14:37";
paths = (
{
closed = 1;
nodes = (
"1402 1760 LINE",
"1402 1674 LINE SMOOTH",
"1402 1526 OFFCURVE",
"1322 1484 OFFCURVE",
"1198 1484 CURVE SMOOTH",
"1160 1484 OFFCURVE",
"1132 1488 OFFCURVE",
"1054 1508 CURVE",
"1268 1270 LINE",
"1350 1382 LINE",
"1514 1382 OFFCURVE",
"1598 1486 OFFCURVE",
"1598 1654 CURVE SMOOTH",
"1598 1760 LINE"
);
}
);
width = 1724;
},
{
components = (
{
name = O;
},
{
name = horncomb.case;
transform = "{1, 0, 0, 1, 952, 0}";
}
);
layerId = "A59F1195-5331-40FD-8BD6-3900E1073F61";
width = 1728;
}
);
leftKerningGroup = O;
leftMetricsKey = O;
rightKerningGroup = Ohorn;
unicode = 01A0;
},
{
color = 9;
glyphname = Oslash;
layers = (
{
components = (
{
name = O;
}
);
layerId = "67AEAADB-8447-4819-9D92-8BB76BD22042";
paths = (
{
closed = 1;
nodes = (
"120 16 LINE",
"126 8 LINE",
"1606 1488 LINE",
"1600 1496 LINE"
);
}
);
width = 1724;
},
{
associatedMasterId = "2C5E45D0-97E8-45AA-A5B2-946753DF54E1";
components = (
{
name = O;
}
);
layerId = "6CEF171D-687B-4F8D-ACAF-400EC1BA9329";
name = "[98]";
paths = (
{
closed = 1;
nodes = (
"330 358 LINE",
"98 126 LINE",
"236 -12 LINE",
"476 226 LINE"
);
},
{
closed = 1;
nodes = (
"1372 1122 LINE",
"1626 1378 LINE",
"1488 1516 LINE",
"1238 1266 LINE"
);
}
);
width = 1744;
},
{
associatedMasterId = "2C5E45D0-97E8-45AA-A5B2-946753DF54E1";
components = (
{
name = O;
},
{
name = slashlongcomb;
transform = "{1, 0, 0, 1, 34, 0}";
}
);
layerId = "6EADB275-6630-4101-822D-F9080CBAB25E";
name = "May 8 18, 13:57";
width = 1744;
},
{
components = (
{
name = O;
}
);
layerId = "2C5E45D0-97E8-45AA-A5B2-946753DF54E1";
paths = (
{
closed = 1;
nodes = (
"98 126 LINE",
"236 -12 LINE",
"1626 1378 LINE",
"1488 1516 LINE"
);
}
);
width = 1744;
},
{
associatedMasterId = "BE4E587A-F76C-447B-AA28-A45E40876AAF";
components = (
{
name = O;
},
{
name = slashlongcomb;
transform = "{1, 0, 0, 1, 56, 56}";
}
);
layerId = "B65038C9-3B75-46CA-AA3B-96D40CFA0361";
name = Orig;
width = 1736;
},
{
components = (
{
alignment = -1;
name = O;
}
);
layerId = "A59F1195-5331-40FD-8BD6-3900E1073F61";
paths = (
{
closed = 1;
nodes = (
"122 38 LINE",
"150 8 LINE",
"1608 1466 LINE",
"1578 1496 LINE"
);
}
);
width = 1728;
},
{
associatedMasterId = "BE4E587A-F76C-447B-AA28-A45E40876AAF";
components = (
{
name = O;
}
);
layerId = "20C0F25D-9F6C-4998-9C27-057DC4A88671";
name = "]98]";
paths = (
{
closed = 1;
nodes = (
"136 90 LINE",
"186 40 LINE",
"1602 1456 LINE",
"1550 1506 LINE"
);
}
);
width = 1736;
},
{
components = (
{
name = O;
transform = "{1, 0, 0, 1, 14, 0}";
}
);
layerId = "BE4E587A-F76C-447B-AA28-A45E40876AAF";
paths = (
{
closed = 1;
nodes = (
"470 662 LINE",
"22 210 LINE",
"340 -108 LINE",
"784 336 LINE"
);
},
{
closed = 1;
nodes = (
"1376 968 LINE",
"1748 1338 LINE",
"1422 1652 LINE",
"1022 1252 LINE"
);
}
);
width = 1770;
},
{
associatedMasterId = "A59F1195-5331-40FD-8BD6-3900E1073F61";
components = (
{
alignment = -1;
name = O;
}
);
layerId = "198570E5-97A9-42B8-8B55-1AAA2444EC39";
name = "[98]";
paths = (
{
closed = 1;
nodes = (
"314 230 LINE",
"122 38 LINE",
"150 8 LINE",
"344 202 LINE"
);
},
{
closed = 1;
nodes = (
"1414 1272 LINE",
"1608 1466 LINE",
"1578 1496 LINE",
"1384 1300 LINE"
);
}
);
width = 1728;
},
{
associatedMasterId = "67AEAADB-8447-4819-9D92-8BB76BD22042";
components = (
{
name = O;
}
);
layerId = "C69538CB-189B-43B5-B6BC-8914B647232D";
name = "[98]";
paths = (
{
closed = 1;
nodes = (
"316 212 LINE",
"120 16 LINE",
"126 8 LINE",
"322 204 LINE"
);
},
{
closed = 1;
nodes = (
"1412 1294 LINE",
"1606 1488 LINE",
"1600 1496 LINE",
"1406 1302 LINE"
);
}
);
width = 1724;
}
);
leftKerningGroup = Oslash;
leftMetricsKey = O;
rightKerningGroup = Oslash;
rightMetricsKey = O;
unicode = 00D8;
},
{
glyphname = Oslashacute;
layers = (
{
components = (
{
name = Oslash;
},
{
name = acutecomb;
transform = "{1, 0, 0, 1, 640, 416}";
}
);
layerId = "67AEAADB-8447-4819-9D92-8BB76BD22042";
width = 1724;
},
{
components = (
{
name = Oslash;
},
{
name = acutecomb;
transform = "{1, 0, 0, 1, 590, 392}";
}
);
layerId = "2C5E45D0-97E8-45AA-A5B2-946753DF54E1";
width = 1744;
},
{
components = (
{
name = Oslash;
},
{
name = acutecomb;
transform = "{1, 0, 0, 1, 528, 384}";
}
);
layerId = "BE4E587A-F76C-447B-AA28-A45E40876AAF";
width = 1770;
},
{
associatedMasterId = "BE4E587A-F76C-447B-AA28-A45E40876AAF";
components = (
{
name = O;
},
{
name = acutecomb;
transform = "{1, 0, 0, 1, 462, 384}";
}
);
layerId = "55508343-4652-4635-92A8-08DE24B0C04F";
name = "May 4 18, 19:25";
paths = (
{
closed = 1;
nodes = (
"456 662 LINE",
"8 210 LINE",
"326 -108 LINE",
"770 336 LINE"
);
},
{
closed = 1;
nodes = (
"1362 968 LINE",
"1734 1338 LINE",
"1408 1652 LINE",
"1008 1252 LINE"
);
}
);
width = 1736;
},
{
components = (
{
name = Oslash;
},
{
name = acutecomb;
transform = "{1, 0, 0, 1, 630, 412}";
}
);
layerId = "A59F1195-5331-40FD-8BD6-3900E1073F61";
width = 1728;
}
);
leftKerningGroup = O;
rightKerningGroup = O;
unicode = 01FE;
},
{
glyphname = OE;
layers = (
{
anchors = (
{
name = bottom;
position = "{1218, 0}";
},
{
name = top;
position = "{1218, 1464}";
}
);
layerId = "67AEAADB-8447-4819-9D92-8BB76BD22042";
paths = (
{
closed = 1;
nodes = (
"1050 -14 OFFCURVE",
"1212 0 OFFCURVE",
"1266 0 CURVE",
"1242 10 LINE",
"1124 2 OFFCURVE",
"992 -4 OFFCURVE",
"928 -4 CURVE SMOOTH",
"418 -4 OFFCURVE",
"114 306 OFFCURVE",
"114 752 CURVE SMOOTH",
"114 1198 OFFCURVE",
"418 1508 OFFCURVE",
"928 1508 CURVE SMOOTH",
"992 1508 OFFCURVE",
"1124 1502 OFFCURVE",
"1242 1494 CURVE",
"1266 1504 LINE",
"1212 1504 OFFCURVE",
"1050 1518 OFFCURVE",
"928 1518 CURVE SMOOTH",
"414 1518 OFFCURVE",
"104 1204 OFFCURVE",
"104 752 CURVE SMOOTH",
"104 300 OFFCURVE",
"414 -14 OFFCURVE",
"928 -14 CURVE SMOOTH"
);
},
{
closed = 1;
nodes = (
"1926 754 LINE",
"1926 764 LINE",
"1244 764 LINE",
"1244 754 LINE"
);
},
{
closed = 1;
nodes = (
"2324 0 LINE",
"2324 374 LINE",
"2314 374 LINE",
"2314 10 LINE",
"1250 10 LINE",
"1250 1494 LINE",
"2296 1494 LINE",
"2296 1130 LINE",
"2306 1130 LINE",
"2306 1504 LINE",
"1240 1504 LINE",
"1240 0 LINE"
);
}
);
width = 2442;
},
{
anchors = (
{
name = bottom;
position = "{1272, 0}";
},
{
name = top;
position = "{1284, 1504}";
}
);
layerId = "2C5E45D0-97E8-45AA-A5B2-946753DF54E1";
paths = (
{
closed = 1;
nodes = (
"1060 -24 OFFCURVE",
"1170 0 OFFCURVE",
"1288 0 CURVE",
"1296 230 LINE",
"1172 192 OFFCURVE",
"1024 176 OFFCURVE",
"926 176 CURVE SMOOTH",
"538 176 OFFCURVE",
"308 414 OFFCURVE",
"308 756 CURVE SMOOTH",
"308 1096 OFFCURVE",
"538 1328 OFFCURVE",
"926 1328 CURVE SMOOTH",
"1036 1328 OFFCURVE",
"1172 1308 OFFCURVE",
"1296 1274 CURVE",
"1288 1504 LINE",
"1162 1504 OFFCURVE",
"1060 1528 OFFCURVE",
"924 1528 CURVE SMOOTH",
"410 1528 OFFCURVE",
"92 1210 OFFCURVE",
"92 756 CURVE SMOOTH",
"92 296 OFFCURVE",
"410 -24 OFFCURVE",
"924 -24 CURVE SMOOTH"
);
},
{
closed = 1;
nodes = (
"2034 668 LINE",
"2034 848 LINE",
"1350 848 LINE",
"1350 668 LINE"
);
},
{
closed = 1;
nodes = (
"2434 0 LINE",
"2434 454 LINE",
"2230 454 LINE",
"2230 186 LINE",
"1438 186 LINE",
"1438 1318 LINE",
"2212 1318 LINE",
"2212 1050 LINE",
"2416 1050 LINE",
"2416 1504 LINE",
"1234 1504 LINE",
"1234 0 LINE"
);
}
);
width = 2546;
},
{
associatedMasterId = "2C5E45D0-97E8-45AA-A5B2-946753DF54E1";
layerId = "B4E20D7F-CD3C-4546-9F14-F33F99BDB661";
name = "Jan 3 18, 01:05";
paths = (
{
closed = 1;
nodes = (
"1254 848 LINE",
"1254 668 LINE",
"1938 668 LINE",
"1938 848 LINE"
);
},
{
closed = 1;
nodes = (
"1138 1318 LINE",
"1138 186 LINE",
"1094 186 LINE",
"918 0 LINE",
"2214 0 LINE",
"2214 186 LINE",
"1342 186 LINE",
"1342 1318 LINE",
"2196 1318 LINE",
"2196 1504 LINE",
"918 1504 LINE",
"1094 1318 LINE"
);
},
{
closed = 1;
nodes = (
"2116 1504 LINE",
"2116 1050 LINE",
"2320 1050 LINE",
"2320 1504 LINE"
);
},
{
closed = 1;
nodes = (
"2134 454 LINE",
"2134 0 LINE",
"2338 0 LINE",
"2338 454 LINE"
);
},
{
closed = 1;
nodes = (
"928 -24 OFFCURVE",
"1014 0 OFFCURVE",
"1230 0 CURVE",
"1364 60 LINE",
"766 132 LINE",
"802 -24 LINE"
);
},
{
closed = 1;
nodes = (
"744 1372 LINE",
"1364 1444 LINE",
"1230 1504 LINE",
"1014 1504 OFFCURVE",
"928 1528 OFFCURVE",
"802 1528 CURVE"
);
},
{
closed = 1;
nodes = (
"802 176 LINE",
"470 176 OFFCURVE",
"240 414 OFFCURVE",
"240 756 CURVE SMOOTH",
"240 1096 OFFCURVE",
"470 1328 OFFCURVE",
"802 1328 CURVE",
"802 1528 LINE",
"340 1528 OFFCURVE",
"22 1210 OFFCURVE",
"22 756 CURVE SMOOTH",
"22 296 OFFCURVE",
"340 -24 OFFCURVE",
"802 -24 CURVE"
);
},
{
closed = 1;
nodes = (
"872 1328 OFFCURVE",
"914 1318 OFFCURVE",
"1094 1318 CURVE",
"1364 1412 LINE",
"778 1484 LINE",
"802 1328 LINE"
);
},
{
closed = 1;
nodes = (
"778 20 LINE",
"1364 92 LINE",
"1094 186 LINE",
"914 186 OFFCURVE",
"872 176 OFFCURVE",
"802 176 CURVE"
);
}
);
width = 2660;
},
{
associatedMasterId = "BE4E587A-F76C-447B-AA28-A45E40876AAF";
layerId = "F3B76260-9BAB-4A31-9F7E-D69395F920B8";
name = "Feb 21 18, 16:44";
paths = (
{
closed = 1;
nodes = (
"1300 166 LINE",
"1246 240 LINE",
"1566 424 OFFCURVE",
"1714 568 OFFCURVE",
"1714 776 CURVE SMOOTH",
"1714 978 OFFCURVE",
"1566 1120 OFFCURVE",
"1246 1304 CURVE",
"1300 1392 LINE",
"868 1572 LINE",
"366 1572 OFFCURVE",
"22 1244 OFFCURVE",
"22 776 CURVE SMOOTH",
"22 302 OFFCURVE",
"366 -28 OFFCURVE",
"868 -28 CURVE"
);
},
{
closed = 1;
nodes = (
"684 458 OFFCURVE",
"556 588 OFFCURVE",
"556 776 CURVE SMOOTH",
"556 960 OFFCURVE",
"684 1086 OFFCURVE",
"868 1086 CURVE SMOOTH",
"1052 1086 OFFCURVE",
"1180 960 OFFCURVE",
"1180 776 CURVE SMOOTH",
"1180 588 OFFCURVE",
"1052 458 OFFCURVE",
"868 458 CURVE SMOOTH"
);
},
{
closed = 1;
nodes = (
"994 -28 OFFCURVE",
"1080 0 OFFCURVE",
"1296 0 CURVE SMOOTH",
"2684 0 LINE",
"2684 654 LINE",
"2168 654 LINE",
"2168 414 LINE",
"1832 414 LINE",
"1592 414 OFFCURVE",
"1394 312 OFFCURVE",
"1154 142 CURVE",
"892 92 LINE",
"868 -28 LINE"
);
},
{
closed = 1;
nodes = (
"2034 600 LINE",
"2034 954 LINE",
"1562 954 LINE",
"1562 600 LINE"
);
},
{
closed = 1;
nodes = (
"2666 930 LINE",
"2666 1544 LINE",
"1296 1544 LINE SMOOTH",
"1080 1544 OFFCURVE",
"994 1572 OFFCURVE",
"868 1572 CURVE",
"882 1452 LINE",
"1154 1402 LINE",
"1394 1232 OFFCURVE",
"1590 1130 OFFCURVE",
"1832 1130 CURVE",
"2150 1130 LINE",
"2150 930 LINE"
);
}
);
width = 2732;
},
{
anchors = (
{
name = bottom;
position = "{1326, 0}";
},
{
name = top;
position = "{1326, 1544}";
}
);
layerId = "BE4E587A-F76C-447B-AA28-A45E40876AAF";
paths = (
{
closed = 1;
nodes = (
"1048 -28 OFFCURVE",
"1122 0 OFFCURVE",
"1242 0 CURVE",
"1142 456 LINE",
"1066 434 OFFCURVE",
"990 420 OFFCURVE",
"922 420 CURVE SMOOTH",
"704 420 OFFCURVE",
"556 566 OFFCURVE",
"556 776 CURVE SMOOTH",
"556 986 OFFCURVE",
"704 1124 OFFCURVE",
"922 1124 CURVE SMOOTH",
"990 1124 OFFCURVE",
"1066 1110 OFFCURVE",
"1142 1088 CURVE",
"1242 1544 LINE",
"1122 1544 OFFCURVE",
"1048 1572 OFFCURVE",
"898 1572 CURVE SMOOTH",
"380 1572 OFFCURVE",
"22 1244 OFFCURVE",
"22 776 CURVE SMOOTH",
"22 302 OFFCURVE",
"380 -28 OFFCURVE",
"898 -28 CURVE SMOOTH"
);
},
{
closed = 1;
nodes = (
"1936 600 LINE",
"1936 954 LINE",
"1368 954 LINE",
"1368 600 LINE"
);
},
{
closed = 1;
nodes = (
"2586 0 LINE",
"2586 654 LINE",
"2070 654 LINE",
"2070 414 LINE",
"1630 414 LINE",
"1630 1130 LINE",
"2052 1130 LINE",
"2052 890 LINE",
"2568 890 LINE",
"2568 1544 LINE",
"1114 1544 LINE",
"1114 0 LINE"
);
}
);
width = 2652;
},
{
associatedMasterId = "2C5E45D0-97E8-45AA-A5B2-946753DF54E1";
components = (
{
alignment = -1;
name = E;
transform = "{1, 0, 0, 1, 908, 0}";
},
{
alignment = -1;
name = D;
transform = "{-1, 0, 0, 1, 1664, 0}";
}
);
layerId = "858785A6-E3A3-44FE-8D8B-6ED84D74DC74";
name = "Mar 14 18, 14:26";
width = 2496;
},
{
anchors = (
{
name = bottom;
position = "{1230, 0}";
},
{
name = top;
position = "{1232, 1472}";
}
);
layerId = "A59F1195-5331-40FD-8BD6-3900E1073F61";
paths = (
{
closed = 1;
nodes = (
"1052 -16 OFFCURVE",
"1204 0 OFFCURVE",
"1270 0 CURVE",
"1254 54 LINE",
"1134 40 OFFCURVE",
"998 32 OFFCURVE",
"928 32 CURVE SMOOTH",
"442 32 OFFCURVE",
"154 328 OFFCURVE",
"154 752 CURVE SMOOTH",
"154 1178 OFFCURVE",
"442 1472 OFFCURVE",
"928 1472 CURVE SMOOTH",
"1000 1472 OFFCURVE",
"1134 1462 OFFCURVE",
"1254 1450 CURVE",
"1270 1504 LINE",
"1202 1504 OFFCURVE",
"1052 1520 OFFCURVE",
"928 1520 CURVE SMOOTH",
"414 1520 OFFCURVE",
"102 1206 OFFCURVE",
"102 752 CURVE SMOOTH",
"102 300 OFFCURVE",
"414 -16 OFFCURVE",
"928 -16 CURVE SMOOTH"
);
},
{
closed = 1;
nodes = (
"1948 736 LINE",
"1948 782 LINE",
"1266 782 LINE",
"1266 736 LINE"
);
},
{
closed = 1;
nodes = (
"2346 0 LINE",
"2346 390 LINE",
"2296 390 LINE",
"2296 46 LINE",
"1288 46 LINE",
"1288 1458 LINE",
"2278 1458 LINE",
"2278 1114 LINE",
"2328 1114 LINE",
"2328 1504 LINE",
"1238 1504 LINE",
"1238 0 LINE"
);
}
);
width = 2462;
},
{
anchors = (
{
name = bottom;
position = "{1370, 0}";
},
{
name = top;
position = "{1370, 1464}";
}
);
associatedMasterId = "2C5E45D0-97E8-45AA-A5B2-946753DF54E1";
layerId = "55ED4503-68A3-4FCF-A30C-5343E82E22AB";
name = "Jun 20 18, 11:42";
paths = (
{
closed = 1;
nodes = (
"1204 110 LINE",
"1204 194 LINE",
"1470 216 OFFCURVE",
"1652 444 OFFCURVE",
"1652 756 CURVE SMOOTH",
"1652 1062 OFFCURVE",
"1470 1288 OFFCURVE",
"1204 1310 CURVE",
"1204 1408 LINE",
"872 1528 LINE",
"410 1528 OFFCURVE",
"92 1210 OFFCURVE",
"92 756 CURVE SMOOTH",
"92 296 OFFCURVE",
"410 -24 OFFCURVE",
"872 -24 CURVE"
);
},
{
closed = 1;
nodes = (
"540 176 OFFCURVE",
"310 414 OFFCURVE",
"310 756 CURVE SMOOTH",
"310 1096 OFFCURVE",
"540 1328 OFFCURVE",
"872 1328 CURVE SMOOTH",
"1202 1328 OFFCURVE",
"1434 1096 OFFCURVE",
"1434 756 CURVE SMOOTH",
"1434 414 OFFCURVE",
"1204 176 OFFCURVE",
"872 176 CURVE SMOOTH"
);
},
{
closed = 1;
nodes = (
"998 -24 OFFCURVE",
"1084 0 OFFCURVE",
"1300 0 CURVE SMOOTH",
"2518 0 LINE",
"2518 454 LINE",
"2314 454 LINE",
"2314 186 LINE",
"1114 186 LINE",
"896 92 LINE",
"872 -24 LINE"
);
},
{
closed = 1;
nodes = (
"2118 668 LINE",
"2118 848 LINE",
"1568 848 LINE",
"1568 668 LINE"
);
},
{
closed = 1;
nodes = (
"2500 1050 LINE",
"2500 1504 LINE",
"1300 1504 LINE SMOOTH",
"1084 1504 OFFCURVE",
"998 1528 OFFCURVE",
"872 1528 CURVE",
"886 1412 LINE",
"1134 1318 LINE",
"2296 1318 LINE",
"2296 1050 LINE"
);
}
);
width = 2630;
},
{
anchors = (
{
name = bottom;
position = "{852, 0}";
},
{
name = horn;
position = "{564, 1504}";
},
{
name = ogonek;
position = "{2636, 0}";
},
{
name = top;
position = "{852, 1464}";
}
);
associatedMasterId = "2C5E45D0-97E8-45AA-A5B2-946753DF54E1";
layerId = "14983B8F-25DB-4851-B902-4D1EDCC4ECFB";
name = "Jun 20 18, 11:47";
paths = (
{
closed = 1;
nodes = (
"1552 848 LINE",
"1552 668 LINE",
"2188 668 LINE",
"2188 848 LINE"
);
},
{
closed = 1;
nodes = (
"2384 186 LINE",
"1640 186 LINE",
"1640 1318 LINE",
"2366 1318 LINE",
"2366 1050 LINE",
"2570 1050 LINE",
"2570 1504 LINE",
"1436 1504 LINE",
"1436 0 LINE",
"2588 0 LINE",
"2588 454 LINE",
"2384 454 LINE"
);
},
{
closed = 1;
nodes = (
"1168 -24 OFFCURVE",
"1388 168 OFFCURVE",
"1428 448 CURVE",
"1478 448 LINE",
"1478 1064 LINE",
"1428 1064 LINE",
"1388 1336 OFFCURVE",
"1170 1528 OFFCURVE",
"838 1528 CURVE SMOOTH",
"410 1528 OFFCURVE",
"92 1210 OFFCURVE",
"92 756 CURVE SMOOTH",
"92 296 OFFCURVE",
"410 -24 OFFCURVE",
"838 -24 CURVE SMOOTH"
);
},
{
closed = 1;
nodes = (
"538 176 OFFCURVE",
"308 414 OFFCURVE",
"308 756 CURVE SMOOTH",
"308 1096 OFFCURVE",
"538 1328 OFFCURVE",
"872 1328 CURVE SMOOTH",
"1206 1328 OFFCURVE",
"1436 1096 OFFCURVE",
"1436 756 CURVE SMOOTH",
"1436 414 OFFCURVE",
"1206 176 OFFCURVE",
"872 176 CURVE SMOOTH"
);
}
);
width = 2700;
},
{
anchors = (
{
name = bottom;
position = "{852, 0}";
},
{
name = top;
position = "{852, 1464}";
}
);
associatedMasterId = "2C5E45D0-97E8-45AA-A5B2-946753DF54E1";
components = (
{
name = E;
transform = "{1, 0, 0, 1, 1678, 0}";
}
);
layerId = "6B78C044-3653-40A5-B49D-3E9EC5692803";
name = "Jun 20 18, 11:48";
paths = (
{
closed = 1;
nodes = (
"1668 646 LINE",
"1624 364 OFFCURVE",
"1410 176 OFFCURVE",
"1112 176 CURVE SMOOTH",
"778 176 OFFCURVE",
"548 414 OFFCURVE",
"548 756 CURVE SMOOTH",
"548 1096 OFFCURVE",
"778 1328 OFFCURVE",
"1112 1328 CURVE SMOOTH",
"1398 1328 OFFCURVE",
"1608 1158 OFFCURVE",
"1662 894 CURVE",
"1882 894 LINE",
"1824 1274 OFFCURVE",
"1526 1528 OFFCURVE",
"1112 1528 CURVE SMOOTH",
"650 1528 OFFCURVE",
"332 1210 OFFCURVE",
"332 756 CURVE SMOOTH",
"332 296 OFFCURVE",
"650 -24 OFFCURVE",
"1112 -24 CURVE SMOOTH",
"1536 -24 OFFCURVE",
"1840 246 OFFCURVE",
"1886 646 CURVE"
);
}
);
width = 3266;
},
{
anchors = (
{
name = bottom;
position = "{1412, 0}";
},
{
name = top;
position = "{1412, 1544}";
}
);
associatedMasterId = "BE4E587A-F76C-447B-AA28-A45E40876AAF";
layerId = "A68C9430-E67F-4079-A86D-94317AC3A705";
name = "Jun 20 18, 14:35";
paths = (
{
closed = 1;
nodes = (
"1362 346 LINE",
"1362 430 LINE",
"1570 444 OFFCURVE",
"1714 584 OFFCURVE",
"1714 776 CURVE SMOOTH",
"1714 966 OFFCURVE",
"1570 1104 OFFCURVE",
"1362 1114 CURVE",
"1362 1212 LINE",
"868 1572 LINE",
"366 1572 OFFCURVE",
"22 1244 OFFCURVE",
"22 776 CURVE SMOOTH",
"22 302 OFFCURVE",
"366 -28 OFFCURVE",
"868 -28 CURVE"
);
},
{
closed = 1;
nodes = (
"684 458 OFFCURVE",
"556 588 OFFCURVE",
"556 776 CURVE SMOOTH",
"556 960 OFFCURVE",
"684 1086 OFFCURVE",
"868 1086 CURVE SMOOTH",
"1052 1086 OFFCURVE",
"1180 960 OFFCURVE",
"1180 776 CURVE SMOOTH",
"1180 588 OFFCURVE",
"1052 458 OFFCURVE",
"868 458 CURVE SMOOTH"
);
},
{
closed = 1;
nodes = (
"994 -28 OFFCURVE",
"1080 0 OFFCURVE",
"1296 0 CURVE SMOOTH",
"2560 0 LINE",
"2560 654 LINE",
"2044 654 LINE",
"2044 414 LINE",
"1054 414 LINE",
"892 92 LINE",
"868 -28 LINE"
);
},
{
closed = 1;
nodes = (
"1922 600 LINE",
"1922 954 LINE",
"1562 954 LINE",
"1562 600 LINE"
);
},
{
closed = 1;
nodes = (
"2542 930 LINE",
"2542 1544 LINE",
"1296 1544 LINE SMOOTH",
"1080 1544 OFFCURVE",
"994 1572 OFFCURVE",
"868 1572 CURVE",
"882 1452 LINE",
"1054 1130 LINE",
"2026 1130 LINE",
"2026 930 LINE"
);
}
);
width = 2626;
},
{
anchors = (
{
name = bottom;
position = "{1290, 0}";
},
{
name = top;
position = "{1290, 1464}";
}
);
associatedMasterId = "67AEAADB-8447-4819-9D92-8BB76BD22042";
layerId = "812C185E-5140-4A9A-85D2-242B0AC6B3FF";
name = "Jun 20 18, 14:47";
paths = (
{
closed = 1;
nodes = (
"1080 6 LINE",
"1080 12 LINE",
"1422 96 OFFCURVE",
"1640 378 OFFCURVE",
"1640 756 CURVE SMOOTH",
"1640 1128 OFFCURVE",
"1420 1408 OFFCURVE",
"1080 1492 CURVE",
"1080 1500 LINE",
"872 1518 LINE",
"418 1518 OFFCURVE",
"104 1204 OFFCURVE",
"104 756 CURVE SMOOTH",
"104 302 OFFCURVE",
"418 -14 OFFCURVE",
"872 -14 CURVE"
);
},
{
closed = 1;
nodes = (
"422 -4 OFFCURVE",
"114 308 OFFCURVE",
"114 756 CURVE SMOOTH",
"114 1198 OFFCURVE",
"422 1508 OFFCURVE",
"872 1508 CURVE SMOOTH",
"1322 1508 OFFCURVE",
"1630 1198 OFFCURVE",
"1630 756 CURVE SMOOTH",
"1630 308 OFFCURVE",
"1322 -4 OFFCURVE",
"872 -4 CURVE SMOOTH"
);
},
{
closed = 1;
nodes = (
"974 -14 OFFCURVE",
"1044 0 OFFCURVE",
"1140 0 CURVE SMOOTH",
"2436 0 LINE",
"2436 374 LINE",
"2426 374 LINE",
"2426 10 LINE",
"1054 10 LINE",
"936 -4 LINE",
"872 -14 LINE"
);
},
{
closed = 1;
nodes = (
"2112 754 LINE",
"2112 764 LINE",
"1634 764 LINE",
"1634 754 LINE"
);
},
{
closed = 1;
nodes = (
"2418 1130 LINE",
"2418 1504 LINE",
"1140 1504 LINE SMOOTH",
"1044 1504 OFFCURVE",
"974 1518 OFFCURVE",
"872 1518 CURVE",
"938 1510 LINE",
"1062 1494 LINE",
"2408 1494 LINE",
"2408 1130 LINE"
);
}
);
width = 2554;
},
{
anchors = (
{
name = bottom;
position = "{1272, 0}";
},
{
name = top;
position = "{1284, 1504}";
}
);
associatedMasterId = "2C5E45D0-97E8-45AA-A5B2-946753DF54E1";
layerId = "992AFCC7-4C64-40AF-93C2-6BF4BA1CEF7A";
name = "Jun 22 18, 11:10";
paths = (
{
closed = 1;
nodes = (
"1010 -24 OFFCURVE",
"1144 0 OFFCURVE",
"1288 0 CURVE",
"1294 776 LINE",
"1294 490 OFFCURVE",
"1252 336 OFFCURVE",
"1172 264 CURVE SMOOTH",
"1096 192 OFFCURVE",
"960 176 OFFCURVE",
"866 176 CURVE SMOOTH",
"508 176 OFFCURVE",
"368 414 OFFCURVE",
"368 756 CURVE SMOOTH",
"368 1096 OFFCURVE",
"528 1328 OFFCURVE",
"866 1328 CURVE SMOOTH",
"1170 1328 OFFCURVE",
"1294 1244 OFFCURVE",
"1294 776 CURVE",
"1288 1504 LINE",
"1134 1504 OFFCURVE",
"1010 1528 OFFCURVE",
"864 1528 CURVE SMOOTH",
"398 1528 OFFCURVE",
"152 1210 OFFCURVE",
"152 756 CURVE SMOOTH",
"152 296 OFFCURVE",
"378 -24 OFFCURVE",
"864 -24 CURVE SMOOTH"
);
},
{
closed = 1;
nodes = (
"2004 668 LINE",
"2004 848 LINE",
"1350 848 LINE",
"1350 668 LINE"
);
},
{
closed = 1;
nodes = (
"2404 0 LINE",
"2404 454 LINE",
"2200 454 LINE",
"2200 186 LINE",
"1398 186 LINE",
"1482 382 OFFCURVE",
"1504 580 OFFCURVE",
"1504 776 CURVE SMOOTH",
"1504 956 OFFCURVE",
"1482 1138 OFFCURVE",
"1398 1318 CURVE",
"2182 1318 LINE",
"2182 1050 LINE",
"2386 1050 LINE",
"2386 1504 LINE",
"1234 1504 LINE",
"1294 1258 OFFCURVE",
"1294 1012 OFFCURVE",
"1294 776 CURVE SMOOTH",
"1294 510 OFFCURVE",
"1294 256 OFFCURVE",
"1234 0 CURVE"
);
}
);
width = 2546;
}
);
leftKerningGroup = O;
leftMetricsKey = O;
rightKerningGroup = E;
rightMetricsKey = E;
unicode = 0152;
},
{
glyphname = P;
layers = (
{
anchors = (
{
name = bottom;
position = "{358, 0}";
},
{
name = top;
position = "{748, 1464}";
}
);
layerId = "67AEAADB-8447-4819-9D92-8BB76BD22042";
rightMetricsKey = "=F+24";
paths = (
{
closed = 1;
nodes = (
"660 0 LINE",
"660 10 LINE",
"362 10 LINE",
"362 1504 LINE",
"54 1504 LINE",
"54 1494 LINE",
"352 1494 LINE",
"352 10 LINE",
"54 10 LINE",
"54 0 LINE"
);
},
{
closed = 1;
nodes = (
"872 754 LINE SMOOTH",
"1212 754 OFFCURVE",
"1382 896 OFFCURVE",
"1382 1130 CURVE SMOOTH",
"1382 1364 OFFCURVE",
"1212 1504 OFFCURVE",
"872 1504 CURVE SMOOTH",
"356 1504 LINE",
"356 1494 LINE",
"872 1494 LINE SMOOTH",
"1206 1494 OFFCURVE",
"1372 1358 OFFCURVE",
"1372 1130 CURVE SMOOTH",
"1372 904 OFFCURVE",
"1206 764 OFFCURVE",
"872 764 CURVE SMOOTH",
"358 764 LINE",
"358 754 LINE"
);
}
);
width = 1456;
},
{
anchors = (
{
name = bottom;
position = "{422, 0}";
},
{
name = top;
position = "{802, 1544}";
}
);
layerId = "BE4E587A-F76C-447B-AA28-A45E40876AAF";
rightMetricsKey = "=F+24";
paths = (
{
closed = 1;
nodes = (
"786 0 LINE",
"786 414 LINE",
"672 414 LINE",
"672 1544 LINE",
"42 1544 LINE",
"42 1130 LINE",
"156 1130 LINE",
"156 414 LINE",
"42 414 LINE",
"42 0 LINE"
);
},
{
closed = 1;
nodes = (
"894 600 LINE SMOOTH",
"1316 600 OFFCURVE",
"1546 776 OFFCURVE",
"1546 1074 CURVE SMOOTH",
"1546 1368 OFFCURVE",
"1330 1544 OFFCURVE",
"900 1544 CURVE SMOOTH",
"580 1544 LINE",
"580 1130 LINE",
"880 1130 LINE SMOOTH",
"956 1130 OFFCURVE",
"1008 1104 OFFCURVE",
"1008 1044 CURVE SMOOTH",
"1008 984 OFFCURVE",
"964 954 OFFCURVE",
"878 954 CURVE SMOOTH",
"546 954 LINE",
"546 600 LINE"
);
}
);
width = 1588;
},
{
anchors = (
{
name = bottom;
position = "{382, 0}";
},
{
name = top;
position = "{732, 1464}";
}
);
layerId = "2C5E45D0-97E8-45AA-A5B2-946753DF54E1";
rightMetricsKey = "=F+24";
paths = (
{
closed = 1;
nodes = (
"700 0 LINE",
"700 186 LINE",
"480 186 LINE",
"480 1504 LINE",
"56 1504 LINE",
"56 1318 LINE",
"276 1318 LINE",
"276 186 LINE",
"56 186 LINE",
"56 0 LINE"
);
},
{
closed = 1;
nodes = (
"842 668 LINE SMOOTH",
"1288 668 OFFCURVE",
"1374 916 OFFCURVE",
"1374 1094 CURVE SMOOTH",
"1374 1352 OFFCURVE",
"1200 1504 OFFCURVE",
"856 1504 CURVE SMOOTH",
"428 1504 LINE",
"428 1318 LINE",
"848 1318 LINE SMOOTH",
"1040 1318 OFFCURVE",
"1166 1246 OFFCURVE",
"1166 1080 CURVE SMOOTH",
"1166 924 OFFCURVE",
"1056 848 OFFCURVE",
"852 848 CURVE SMOOTH",
"452 848 LINE",
"452 668 LINE"
);
}
);
width = 1442;
},
{
associatedMasterId = "67AEAADB-8447-4819-9D92-8BB76BD22042";
layerId = "63AA5395-74B9-4844-978E-A61BF9631CDC";
name = "Dec 23 17, 15:53";
paths = (
{
closed = 1;
nodes = (
"824 1190 LINE SMOOTH",
"958 1190 OFFCURVE",
"1046 1138 OFFCURVE",
"1046 1012 CURVE SMOOTH",
"1046 884 OFFCURVE",
"968 824 OFFCURVE",
"822 824 CURVE SMOOTH",
"556 824 LINE",
"556 508 LINE",
"802 508 LINE SMOOTH",
"1202 508 OFFCURVE",
"1418 724 OFFCURVE",
"1418 1012 CURVE SMOOTH",
"1418 1310 OFFCURVE",
"1222 1504 OFFCURVE",
"832 1504 CURVE SMOOTH",
"590 1504 LINE",
"590 1190 LINE"
);
},
{
closed = 1;
nodes = (
"254 1190 LINE",
"254 314 LINE",
"66 314 LINE",
"66 0 LINE",
"798 0 LINE",
"798 314 LINE",
"610 314 LINE",
"610 1504 LINE",
"66 1504 LINE",
"66 1190 LINE"
);
}
);
width = 1454;
},
{
anchors = (
{
name = bottom;
position = "{362, 0}";
},
{
name = top;
position = "{744, 1464}";
}
);
layerId = "A59F1195-5331-40FD-8BD6-3900E1073F61";
rightMetricsKey = "=F+26";
paths = (
{
closed = 1;
nodes = (
"666 0 LINE",
"666 46 LINE",
"384 46 LINE",
"384 1504 LINE",
"54 1504 LINE",
"54 1458 LINE",
"336 1458 LINE",
"336 46 LINE",
"54 46 LINE",
"54 0 LINE"
);
},
{
closed = 1;
nodes = (
"874 736 LINE SMOOTH",
"1236 736 OFFCURVE",
"1388 900 OFFCURVE",
"1388 1122 CURVE SMOOTH",
"1388 1362 OFFCURVE",
"1218 1504 OFFCURVE",
"878 1504 CURVE SMOOTH",
"370 1504 LINE",
"370 1458 LINE",
"876 1458 LINE SMOOTH",
"1180 1458 OFFCURVE",
"1338 1336 OFFCURVE",
"1338 1120 CURVE SMOOTH",
"1338 908 OFFCURVE",
"1184 782 OFFCURVE",
"876 782 CURVE SMOOTH",
"376 782 LINE",
"376 736 LINE"
);
}
);
width = 1462;
}
);
leftKerningGroup = H;
leftMetricsKey = H;
rightKerningGroup = P;
rightMetricsKey = "F+24";
unicode = 0050;
},
{
color = 9;
glyphname = Thorn;
layers = (
{
anchors = (
{
name = bottom;
position = "{694, 0}";
},
{
name = top;
position = "{694, 1464}";
}
);
layerId = "67AEAADB-8447-4819-9D92-8BB76BD22042";
paths = (
{
closed = 1;
nodes = (
"352 1494 LINE",
"352 10 LINE",
"54 10 LINE",
"54 0 LINE",
"684 0 LINE",
"684 10 LINE",
"362 10 LINE",
"362 1494 LINE",
"684 1494 LINE",
"684 1504 LINE",
"54 1504 LINE",
"54 1494 LINE"
);
},
{
closed = 1;
nodes = (
"804 1124 LINE SMOOTH",
"1138 1124 OFFCURVE",
"1304 988 OFFCURVE",
"1304 760 CURVE SMOOTH",
"1304 534 OFFCURVE",
"1138 394 OFFCURVE",
"804 394 CURVE SMOOTH",
"358 394 LINE",
"358 384 LINE",
"804 384 LINE SMOOTH",
"1144 384 OFFCURVE",
"1314 526 OFFCURVE",
"1314 760 CURVE SMOOTH",
"1314 994 OFFCURVE",
"1144 1134 OFFCURVE",
"804 1134 CURVE SMOOTH",
"356 1134 LINE",
"356 1124 LINE"
);
}
);
width = 1388;
},
{
anchors = (
{
name = bottom;
position = "{692, 0}";
},
{
name = top;
position = "{692, 1464}";
}
);
layerId = "2C5E45D0-97E8-45AA-A5B2-946753DF54E1";
paths = (
{
closed = 1;
nodes = (
"276 1318 LINE",
"276 186 LINE",
"56 186 LINE",
"56 0 LINE",
"700 0 LINE",
"700 186 LINE",
"480 186 LINE",
"480 1318 LINE",
"700 1318 LINE",
"700 1504 LINE",
"56 1504 LINE",
"56 1318 LINE"
);
},
{
closed = 1;
nodes = (
"788 962 LINE SMOOTH",
"980 962 OFFCURVE",
"1106 898 OFFCURVE",
"1106 756 CURVE SMOOTH",
"1106 618 OFFCURVE",
"996 552 OFFCURVE",
"792 552 CURVE SMOOTH",
"452 552 LINE",
"452 366 LINE",
"782 366 LINE SMOOTH",
"1228 366 OFFCURVE",
"1314 594 OFFCURVE",
"1314 756 CURVE SMOOTH",
"1314 1002 OFFCURVE",
"1140 1148 OFFCURVE",
"796 1148 CURVE SMOOTH",
"426 1148 LINE",
"426 962 LINE"
);
}
);
width = 1382;
},
{
anchors = (
{
name = bottom;
position = "{692, 0}";
},
{
name = top;
position = "{692, 1464}";
}
);
associatedMasterId = "2C5E45D0-97E8-45AA-A5B2-946753DF54E1";
layerId = "81DC54D9-03EB-4C52-B5E0-B7460E1DD03C";
name = "[130]";
paths = (
{
closed = 1;
nodes = (
"276 1318 LINE",
"276 186 LINE",
"56 186 LINE",
"56 0 LINE",
"480 0 LINE",
"480 1504 LINE",
"56 1504 LINE",
"56 1318 LINE"
);
},
{
closed = 1;
nodes = (
"788 962 LINE SMOOTH",
"980 962 OFFCURVE",
"1106 898 OFFCURVE",
"1106 756 CURVE SMOOTH",
"1106 618 OFFCURVE",
"996 552 OFFCURVE",
"792 552 CURVE SMOOTH",
"452 552 LINE",
"452 366 LINE",
"782 366 LINE SMOOTH",
"1228 366 OFFCURVE",
"1314 594 OFFCURVE",
"1314 756 CURVE SMOOTH",
"1314 1002 OFFCURVE",
"1140 1148 OFFCURVE",
"796 1148 CURVE SMOOTH",
"426 1148 LINE",
"426 962 LINE"
);
}
);
width = 1382;
},
{
anchors = (
{
name = bottom;
position = "{692, 0}";
},
{
name = top;
position = "{692, 1464}";
}
);
layerId = "A59F1195-5331-40FD-8BD6-3900E1073F61";
paths = (
{
closed = 1;
nodes = (
"336 1458 LINE",
"336 46 LINE",
"54 46 LINE",
"54 0 LINE",
"686 0 LINE",
"686 46 LINE",
"384 46 LINE",
"384 1458 LINE",
"686 1458 LINE",
"686 1504 LINE",
"54 1504 LINE",
"54 1458 LINE"
);
},
{
closed = 1;
nodes = (
"800 1090 LINE SMOOTH",
"1104 1090 OFFCURVE",
"1262 970 OFFCURVE",
"1262 760 CURVE SMOOTH",
"1262 552 OFFCURVE",
"1108 426 OFFCURVE",
"800 426 CURVE SMOOTH",
"376 426 LINE",
"376 380 LINE",
"798 380 LINE SMOOTH",
"1160 380 OFFCURVE",
"1312 540 OFFCURVE",
"1312 760 CURVE SMOOTH",
"1312 996 OFFCURVE",
"1142 1136 OFFCURVE",
"802 1136 CURVE SMOOTH",
"370 1136 LINE",
"370 1090 LINE"
);
}
);
width = 1386;
},
{
anchors = (
{
name = bottom;
position = "{734, 0}";
},
{
name = top;
position = "{734, 1544}";
}
);
associatedMasterId = "BE4E587A-F76C-447B-AA28-A45E40876AAF";
layerId = "EE2FD1E3-476F-4C8C-ADC9-9298FA48E216";
name = "]130]";
paths = (
{
closed = 1;
nodes = (
"156 1130 LINE",
"156 414 LINE",
"42 414 LINE",
"42 0 LINE",
"786 0 LINE",
"786 414 LINE",
"672 414 LINE",
"672 1130 LINE",
"786 1130 LINE",
"786 1544 LINE",
"42 1544 LINE",
"42 1130 LINE"
);
},
{
closed = 1;
nodes = (
"780 844 LINE SMOOTH",
"844 844 OFFCURVE",
"888 824 OFFCURVE",
"888 774 CURVE SMOOTH",
"888 730 OFFCURVE",
"852 708 OFFCURVE",
"778 708 CURVE SMOOTH",
"464 708 LINE",
"464 362 LINE",
"834 362 LINE SMOOTH",
"1214 362 OFFCURVE",
"1424 518 OFFCURVE",
"1424 778 CURVE SMOOTH",
"1424 1036 OFFCURVE",
"1228 1190 OFFCURVE",
"840 1190 CURVE SMOOTH",
"464 1190 LINE",
"464 844 LINE"
);
}
);
width = 1466;
},
{
anchors = (
{
name = bottom;
position = "{776, 0}";
},
{
name = top;
position = "{776, 1544}";
}
);
layerId = "BE4E587A-F76C-447B-AA28-A45E40876AAF";
paths = (
{
closed = 1;
nodes = (
"156 1130 LINE",
"156 414 LINE",
"42 414 LINE",
"42 0 LINE",
"672 0 LINE",
"672 1544 LINE",
"42 1544 LINE",
"42 1130 LINE"
);
},
{
closed = 1;
nodes = (
"838 874 LINE SMOOTH",
"918 874 OFFCURVE",
"972 846 OFFCURVE",
"972 780 CURVE SMOOTH",
"972 714 OFFCURVE",
"926 682 OFFCURVE",
"836 682 CURVE SMOOTH",
"524 682 LINE",
"524 328 LINE",
"852 328 LINE SMOOTH",
"1276 328 OFFCURVE",
"1508 494 OFFCURVE",
"1508 780 CURVE SMOOTH",
"1508 1062 OFFCURVE",
"1290 1228 OFFCURVE",
"858 1228 CURVE SMOOTH",
"558 1228 LINE",
"558 874 LINE"
);
}
);
width = 1550;
},
{
anchors = (
{
name = bottom;
position = "{692, 0}";
},
{
name = top;
position = "{692, 1464}";
}
);
associatedMasterId = "A59F1195-5331-40FD-8BD6-3900E1073F61";
layerId = "26FAE16C-F7B8-4BFD-B4C9-EF1548CB81C4";
name = "[130]";
paths = (
{
closed = 1;
nodes = (
"336 1458 LINE",
"336 46 LINE",
"54 46 LINE",
"54 0 LINE",
"384 0 LINE",
"384 1504 LINE",
"54 1504 LINE",
"54 1458 LINE"
);
},
{
closed = 1;
nodes = (
"800 1090 LINE SMOOTH",
"1104 1090 OFFCURVE",
"1262 970 OFFCURVE",
"1262 760 CURVE SMOOTH",
"1262 552 OFFCURVE",
"1108 426 OFFCURVE",
"800 426 CURVE SMOOTH",
"376 426 LINE",
"376 380 LINE",
"798 380 LINE SMOOTH",
"1160 380 OFFCURVE",
"1312 540 OFFCURVE",
"1312 760 CURVE SMOOTH",
"1312 996 OFFCURVE",
"1142 1136 OFFCURVE",
"802 1136 CURVE SMOOTH",
"370 1136 LINE",
"370 1090 LINE"
);
}
);
width = 1386;
},
{
anchors = (
{
name = bottom;
position = "{694, 0}";
},
{
name = top;
position = "{694, 1464}";
}
);
associatedMasterId = "67AEAADB-8447-4819-9D92-8BB76BD22042";
layerId = "1A528B60-01A2-46F0-A13F-DA1F75FCA657";
name = "[130]";
paths = (
{
closed = 1;
nodes = (
"352 1494 LINE",
"352 10 LINE",
"54 10 LINE",
"54 0 LINE",
"362 0 LINE",
"362 1504 LINE",
"54 1504 LINE",
"54 1494 LINE"
);
},
{
closed = 1;
nodes = (
"804 1124 LINE SMOOTH",
"1138 1124 OFFCURVE",
"1304 988 OFFCURVE",
"1304 760 CURVE SMOOTH",
"1304 534 OFFCURVE",
"1138 394 OFFCURVE",
"804 394 CURVE SMOOTH",
"358 394 LINE",
"358 384 LINE",
"804 384 LINE SMOOTH",
"1144 384 OFFCURVE",
"1314 526 OFFCURVE",
"1314 760 CURVE SMOOTH",
"1314 994 OFFCURVE",
"1144 1134 OFFCURVE",
"804 1134 CURVE SMOOTH",
"356 1134 LINE",
"356 1124 LINE"
);
}
);
width = 1388;
}
);
leftKerningGroup = H;
leftMetricsKey = H;
rightKerningGroup = Thorn;
rightMetricsKey = P;
unicode = 00DE;
},
{
glyphname = Q;
layers = (
{
anchors = (
{
name = bottom;
position = "{862, -364}";
},
{
name = top;
position = "{862, 1464}";
}
);
layerId = "67AEAADB-8447-4819-9D92-8BB76BD22042";
paths = (
{
closed = 1;
nodes = (
"1310 -14 OFFCURVE",
"1620 302 OFFCURVE",
"1620 756 CURVE SMOOTH",
"1620 1204 OFFCURVE",
"1310 1518 OFFCURVE",
"862 1518 CURVE SMOOTH",
"414 1518 OFFCURVE",
"104 1204 OFFCURVE",
"104 756 CURVE SMOOTH",
"104 302 OFFCURVE",
"414 -14 OFFCURVE",
"862 -14 CURVE SMOOTH"
);
},
{
closed = 1;
nodes = (
"418 -4 OFFCURVE",
"114 308 OFFCURVE",
"114 756 CURVE SMOOTH",
"114 1198 OFFCURVE",
"418 1508 OFFCURVE",
"862 1508 CURVE SMOOTH",
"1306 1508 OFFCURVE",
"1610 1198 OFFCURVE",
"1610 756 CURVE SMOOTH",
"1610 308 OFFCURVE",
"1306 -4 OFFCURVE",
"862 -4 CURVE SMOOTH"
);
},
{
closed = 1;
nodes = (
"1058 14 LINE",
"774 -42 OFFCURVE",
"666 -96 OFFCURVE",
"666 -212 CURVE SMOOTH",
"666 -302 OFFCURVE",
"728 -364 OFFCURVE",
"886 -364 CURVE SMOOTH",
"1512 -364 LINE",
"1512 -354 LINE",
"886 -354 LINE SMOOTH",
"734 -354 OFFCURVE",
"676 -294 OFFCURVE",
"676 -212 CURVE SMOOTH",
"676 -102 OFFCURVE",
"774 -52 OFFCURVE",
"1058 8 CURVE"
);
}
);
width = 1724;
},
{
anchors = (
{
name = bottom;
position = "{872, -364}";
},
{
name = top;
position = "{872, 1464}";
}
);
layerId = "2C5E45D0-97E8-45AA-A5B2-946753DF54E1";
paths = (
{
closed = 1;
nodes = (
"1334 -22 OFFCURVE",
"1652 298 OFFCURVE",
"1652 756 CURVE SMOOTH",
"1652 1208 OFFCURVE",
"1334 1526 OFFCURVE",
"872 1526 CURVE SMOOTH",
"410 1526 OFFCURVE",
"92 1208 OFFCURVE",
"92 756 CURVE SMOOTH",
"92 298 OFFCURVE",
"408 -20 OFFCURVE",
"872 -22 CURVE SMOOTH"
);
},
{
closed = 1;
nodes = (
"540 178 OFFCURVE",
"310 416 OFFCURVE",
"310 756 CURVE SMOOTH",
"310 1094 OFFCURVE",
"540 1326 OFFCURVE",
"872 1326 CURVE SMOOTH",
"1204 1326 OFFCURVE",
"1434 1094 OFFCURVE",
"1434 756 CURVE SMOOTH",
"1434 416 OFFCURVE",
"1204 178 OFFCURVE",
"872 178 CURVE SMOOTH"
);
},
{
closed = 1;
nodes = (
"976 164 LINE",
"744 104 OFFCURVE",
"654 32 OFFCURVE",
"654 -112 CURVE SMOOTH",
"654 -268 OFFCURVE",
"746 -364 OFFCURVE",
"982 -364 CURVE SMOOTH",
"1596 -364 LINE",
"1596 -178 LINE",
"994 -178 LINE SMOOTH",
"898 -178 OFFCURVE",
"858 -156 OFFCURVE",
"858 -90 CURVE SMOOTH",
"858 -30 OFFCURVE",
"894 -2 OFFCURVE",
"980 58 CURVE"
);
}
);
width = 1740;
},
{
associatedMasterId = "2C5E45D0-97E8-45AA-A5B2-946753DF54E1";
backgroundImage = {
crop = "{{0, 0}, {2448, 3264}}";
imagePath = "../../../Design/Reference/Bruce/Bruce1848/1848 George Bruce & Co. type specimen book..jpg";
locked = "1";
transform = "{6.87522, 0, 0, 6.87522, -1066, -8409}";
};
layerId = "335EA497-6E32-4BE1-8A61-C06F4C286B9A";
name = "Dec 24 17, 01:19";
paths = (
{
closed = 1;
nodes = (
"1320 -22 OFFCURVE",
"1638 298 OFFCURVE",
"1638 756 CURVE SMOOTH",
"1638 1208 OFFCURVE",
"1320 1526 OFFCURVE",
"858 1526 CURVE SMOOTH",
"396 1526 OFFCURVE",
"78 1208 OFFCURVE",
"78 756 CURVE SMOOTH",
"78 316 OFFCURVE",
"392 10 OFFCURVE",
"854 8 CURVE",
"858 -22 LINE"
);
},
{
closed = 1;
nodes = (
"526 178 OFFCURVE",
"296 416 OFFCURVE",
"296 756 CURVE SMOOTH",
"296 1094 OFFCURVE",
"526 1326 OFFCURVE",
"858 1326 CURVE SMOOTH",
"1190 1326 OFFCURVE",
"1420 1094 OFFCURVE",
"1420 756 CURVE SMOOTH",
"1420 416 OFFCURVE",
"1190 178 OFFCURVE",
"858 178 CURVE SMOOTH"
);
},
{
closed = 1;
nodes = (
"854 84 LINE",
"612 84 OFFCURVE",
"518 18 OFFCURVE",
"518 -124 CURVE SMOOTH",
"518 -268 OFFCURVE",
"610 -364 OFFCURVE",
"846 -364 CURVE SMOOTH",
"1540 -364 LINE",
"1540 -178 LINE",
"858 -178 LINE SMOOTH",
"762 -178 OFFCURVE",
"722 -156 OFFCURVE",
"722 -100 CURVE SMOOTH",
"722 -44 OFFCURVE",
"762 -22 OFFCURVE",
"858 -22 CURVE"
);
}
);
width = 1716;
},
{
anchors = (
{
name = bottom;
position = "{868, -420}";
},
{
name = top;
position = "{868, 1504}";
}
);
layerId = "BE4E587A-F76C-447B-AA28-A45E40876AAF";
paths = (
{
closed = 1;
nodes = (
"1368 -28 OFFCURVE",
"1714 302 OFFCURVE",
"1714 776 CURVE SMOOTH",
"1714 1244 OFFCURVE",
"1368 1572 OFFCURVE",
"868 1572 CURVE SMOOTH",
"368 1572 OFFCURVE",
"22 1244 OFFCURVE",
"22 776 CURVE SMOOTH",
"22 302 OFFCURVE",
"368 -28 OFFCURVE",
"868 -28 CURVE SMOOTH"
);
},
{
closed = 1;
nodes = (
"684 458 OFFCURVE",
"556 588 OFFCURVE",
"556 776 CURVE SMOOTH",
"556 960 OFFCURVE",
"684 1086 OFFCURVE",
"868 1086 CURVE SMOOTH",
"1052 1086 OFFCURVE",
"1180 960 OFFCURVE",
"1180 776 CURVE SMOOTH",
"1180 588 OFFCURVE",
"1052 458 OFFCURVE",
"868 458 CURVE SMOOTH"
);
},
{
closed = 1;
nodes = (
"1046 184 LINE",
"654 150 OFFCURVE",
"504 20 OFFCURVE",
"504 -164 CURVE SMOOTH",
"504 -320 OFFCURVE",
"608 -420 OFFCURVE",
"874 -420 CURVE SMOOTH",
"1526 -420 LINE",
"1526 -68 LINE",
"1036 -68 LINE SMOOTH",
"992 -68 OFFCURVE",
"974 -62 OFFCURVE",
"974 -40 CURVE SMOOTH",
"974 -16 OFFCURVE",
"994 2 OFFCURVE",
"1050 18 CURVE"
);
}
);
width = 1736;
},
{
anchors = (
{
name = bottom;
position = "{864, -364}";
},
{
name = top;
position = "{864, 1464}";
}
);
layerId = "A59F1195-5331-40FD-8BD6-3900E1073F61";
paths = (
{
closed = 1;
nodes = (
"1314 -16 OFFCURVE",
"1626 302 OFFCURVE",
"1626 756 CURVE SMOOTH",
"1626 1204 OFFCURVE",
"1314 1520 OFFCURVE",
"864 1520 CURVE SMOOTH",
"414 1520 OFFCURVE",
"102 1204 OFFCURVE",
"102 756 CURVE SMOOTH",
"102 302 OFFCURVE",
"412 -16 OFFCURVE",
"864 -16 CURVE SMOOTH"
);
},
{
closed = 1;
nodes = (
"442 34 OFFCURVE",
"154 330 OFFCURVE",
"154 756 CURVE SMOOTH",
"154 1176 OFFCURVE",
"442 1470 OFFCURVE",
"864 1470 CURVE SMOOTH",
"1286 1470 OFFCURVE",
"1574 1176 OFFCURVE",
"1574 756 CURVE SMOOTH",
"1574 330 OFFCURVE",
"1286 34 OFFCURVE",
"864 34 CURVE SMOOTH"
);
},
{
closed = 1;
nodes = (
"1042 28 LINE",
"762 -18 OFFCURVE",
"664 -76 OFFCURVE",
"664 -196 CURVE SMOOTH",
"664 -296 OFFCURVE",
"732 -364 OFFCURVE",
"906 -364 CURVE SMOOTH",
"1530 -364 LINE",
"1530 -318 LINE",
"908 -318 LINE SMOOTH",
"768 -318 OFFCURVE",
"714 -266 OFFCURVE",
"714 -188 CURVE SMOOTH",
"714 -92 OFFCURVE",
"798 -50 OFFCURVE",
"1042 2 CURVE"
);
}
);
width = 1728;
},
{
anchors = (
{
name = bottom;
position = "{868, -364}";
},
{
name = top;
position = "{868, 1464}";
}
);
associatedMasterId = "2C5E45D0-97E8-45AA-A5B2-946753DF54E1";
layerId = "DA4EFF85-A7BA-4B74-A3D4-1A741C06E649";
name = "Jun 5 18, 16:23";
paths = (
{
closed = 1;
nodes = (
"1330 -22 OFFCURVE",
"1648 298 OFFCURVE",
"1648 756 CURVE SMOOTH",
"1648 1208 OFFCURVE",
"1330 1526 OFFCURVE",
"868 1526 CURVE SMOOTH",
"406 1526 OFFCURVE",
"88 1208 OFFCURVE",
"88 756 CURVE SMOOTH",
"88 298 OFFCURVE",
"404 -20 OFFCURVE",
"868 -22 CURVE SMOOTH"
);
},
{
closed = 1;
nodes = (
"536 178 OFFCURVE",
"306 416 OFFCURVE",
"306 756 CURVE SMOOTH",
"306 1094 OFFCURVE",
"536 1326 OFFCURVE",
"868 1326 CURVE SMOOTH",
"1200 1326 OFFCURVE",
"1430 1094 OFFCURVE",
"1430 756 CURVE SMOOTH",
"1430 416 OFFCURVE",
"1200 178 OFFCURVE",
"868 178 CURVE SMOOTH"
);
},
{
closed = 1;
nodes = (
"1644 -56 OFFCURVE",
"1564 -124 OFFCURVE",
"1462 -124 CURVE SMOOTH",
"1146 -124 OFFCURVE",
"1290 548 OFFCURVE",
"842 548 CURVE SMOOTH",
"698 548 OFFCURVE",
"574 480 OFFCURVE",
"574 358 CURVE SMOOTH",
"574 302 OFFCURVE",
"600 264 OFFCURVE",
"654 226 CURVE",
"630 128 LINE",
"868 178 LINE",
"776 178 OFFCURVE",
"718 212 OFFCURVE",
"718 282 CURVE SMOOTH",
"718 350 OFFCURVE",
"774 386 OFFCURVE",
"836 386 CURVE SMOOTH",
"1104 386 OFFCURVE",
"958 -308 OFFCURVE",
"1450 -314 CURVE SMOOTH",
"1654 -316 OFFCURVE",
"1798 -208 OFFCURVE",
"1866 -2 CURVE",
"1680 68 LINE"
);
}
);
width = 1736;
}
);
leftKerningGroup = O;
leftMetricsKey = O;
rightKerningGroup = O;
unicode = 0051;
},
{
color = 0;
glyphname = R;
layers = (
{
anchors = (
{
name = bottom;
position = "{788, 0}";
},
{
name = top;
position = "{788, 1464}";
}
);
layerId = "67AEAADB-8447-4819-9D92-8BB76BD22042";
paths = (
{
closed = 1;
nodes = (
"886 754 LINE",
"948 754 LINE SMOOTH",
"1048 754 OFFCURVE",
"1098 720 OFFCURVE",
"1134 616 CURVE SMOOTH",
"1348 0 LINE",
"1540 0 LINE",
"1540 10 LINE",
"1356 10 LINE",
"1144 620 LINE SMOOTH",
"1110 716 OFFCURVE",
"1074 762 OFFCURVE",
"936 762 CURVE"
);
},
{
closed = 1;
nodes = (
"884 1494 LINE SMOOTH",
"1218 1494 OFFCURVE",
"1384 1354 OFFCURVE",
"1384 1148 CURVE SMOOTH",
"1384 936 OFFCURVE",
"1208 764 OFFCURVE",
"882 764 CURVE SMOOTH",
"358 764 LINE",
"358 754 LINE",
"930 754 LINE",
"978 756 LINE",
"978 762 LINE",
"1210 780 OFFCURVE",
"1394 928 OFFCURVE",
"1394 1148 CURVE SMOOTH",
"1394 1360 OFFCURVE",
"1224 1504 OFFCURVE",
"884 1504 CURVE SMOOTH",
"606 1504 LINE",
"606 1494 LINE"
);
},
{
closed = 1;
nodes = (
"352 1494 LINE",
"352 10 LINE",
"54 10 LINE",
"54 0 LINE",
"660 0 LINE",
"660 10 LINE",
"362 10 LINE",
"362 1494 LINE",
"660 1494 LINE",
"660 1504 LINE",
"54 1504 LINE",
"54 1494 LINE"
);
}
);
width = 1614;
},
{
anchors = (
{
name = bottom;
position = "{756, 0}";
},
{
name = top;
position = "{756, 1464}";
}
);
layerId = "2C5E45D0-97E8-45AA-A5B2-946753DF54E1";
rightMetricsKey = "=P+8";
paths = (
{
closed = 1;
nodes = (
"706 668 LINE",
"784 668 LINE",
"884 668 OFFCURVE",
"926 632 OFFCURVE",
"962 530 CURVE SMOOTH",
"1146 0 LINE",
"1454 0 LINE",
"1454 186 LINE",
"1296 186 LINE",
"1126 648 LINE SMOOTH",
"1096 730 OFFCURVE",
"1004 780 OFFCURVE",
"926 796 CURVE"
);
},
{
closed = 1;
nodes = (
"848 1318 LINE SMOOTH",
"1040 1318 OFFCURVE",
"1166 1250 OFFCURVE",
"1166 1092 CURVE SMOOTH",
"1166 928 OFFCURVE",
"1054 848 OFFCURVE",
"846 848 CURVE SMOOTH",
"452 848 LINE",
"452 668 LINE",
"830 668 LINE",
"1084 690 LINE",
"1084 724 LINE",
"1274 774 OFFCURVE",
"1374 922 OFFCURVE",
"1374 1106 CURVE SMOOTH",
"1374 1356 OFFCURVE",
"1200 1504 OFFCURVE",
"856 1504 CURVE SMOOTH",
"586 1504 LINE",
"586 1318 LINE"
);
},
{
closed = 1;
nodes = (
"276 1318 LINE",
"276 186 LINE",
"56 186 LINE",
"56 0 LINE",
"700 0 LINE",
"700 186 LINE",
"480 186 LINE",
"480 1318 LINE",
"700 1318 LINE",
"700 1504 LINE",
"56 1504 LINE",
"56 1318 LINE"
);
}
);
width = 1530;
},
{
anchors = (
{
name = bottom;
position = "{890, 0}";
},
{
name = top;
position = "{822, 1464}";
}
);
associatedMasterId = "67AEAADB-8447-4819-9D92-8BB76BD22042";
layerId = "28A20D30-0F77-4469-942E-7EA5F3C357A7";
name = "Apr 14 18, 00:17";
paths = (
{
closed = 1;
nodes = (
"924 756 LINE",
"984 754 LINE",
"996 754 OFFCURVE",
"1002 750 OFFCURVE",
"1006 740 CURVE SMOOTH",
"1322 0 LINE",
"1468 0 LINE",
"1468 10 LINE",
"1330 10 LINE",
"1016 744 LINE SMOOTH",
"1012 752 OFFCURVE",
"1006 760 OFFCURVE",
"992 764 CURVE"
);
},
{
closed = 1;
nodes = (
"880 1494 LINE SMOOTH",
"1214 1494 OFFCURVE",
"1380 1354 OFFCURVE",
"1380 1142 CURVE SMOOTH",
"1380 938 OFFCURVE",
"1220 764 OFFCURVE",
"918 764 CURVE SMOOTH",
"344 764 LINE",
"344 754 LINE",
"992 754 LINE",
"1004 756 LINE",
"1004 760 LINE",
"1220 782 OFFCURVE",
"1390 922 OFFCURVE",
"1390 1142 CURVE SMOOTH",
"1390 1360 OFFCURVE",
"1220 1504 OFFCURVE",
"880 1504 CURVE SMOOTH",
"602 1504 LINE",
"602 1494 LINE"
);
},
{
closed = 1;
nodes = (
"338 1494 LINE",
"338 10 LINE",
"40 10 LINE",
"40 0 LINE",
"646 0 LINE",
"646 10 LINE",
"348 10 LINE",
"348 1494 LINE",
"646 1494 LINE",
"646 1504 LINE",
"40 1504 LINE",
"40 1494 LINE"
);
}
);
width = 1586;
},
{
anchors = (
{
name = bottom;
position = "{834, 0}";
},
{
name = top;
position = "{780, 1464}";
}
);
layerId = "A59F1195-5331-40FD-8BD6-3900E1073F61";
rightMetricsKey = "=P+0";
paths = (
{
closed = 1;
nodes = (
"848 736 LINE",
"914 736 LINE",
"1014 736 OFFCURVE",
"1060 702 OFFCURVE",
"1098 598 CURVE SMOOTH",
"1312 0 LINE",
"1524 0 LINE",
"1524 46 LINE",
"1346 46 LINE",
"1138 626 LINE SMOOTH",
"1106 718 OFFCURVE",
"1058 766 OFFCURVE",
"932 768 CURVE"
);
},
{
closed = 1;
nodes = (
"876 1458 LINE SMOOTH",
"1180 1458 OFFCURVE",
"1338 1332 OFFCURVE",
"1338 1136 CURVE SMOOTH",
"1338 934 OFFCURVE",
"1176 782 OFFCURVE",
"874 782 CURVE SMOOTH",
"376 782 LINE",
"376 736 LINE",
"908 736 LINE",
"998 742 LINE",
"998 754 LINE",
"1222 778 OFFCURVE",
"1388 926 OFFCURVE",
"1388 1140 CURVE SMOOTH",
"1388 1360 OFFCURVE",
"1218 1504 OFFCURVE",
"878 1504 CURVE SMOOTH",
"600 1504 LINE",
"600 1458 LINE"
);
},
{
closed = 1;
nodes = (
"336 1458 LINE",
"336 46 LINE",
"54 46 LINE",
"54 0 LINE",
"666 0 LINE",
"666 46 LINE",
"384 46 LINE",
"384 1458 LINE",
"666 1458 LINE",
"666 1504 LINE",
"54 1504 LINE",
"54 1458 LINE"
);
}
);
width = 1598;
},
{
anchors = (
{
name = bottom;
position = "{752, 0}";
},
{
name = top;
position = "{752, 1464}";
}
);
associatedMasterId = "2C5E45D0-97E8-45AA-A5B2-946753DF54E1";
layerId = "920DDCBD-CA2D-40FA-B236-FE30E01EC45F";
name = "May 29 18, 15:18";
paths = (
{
closed = 1;
nodes = (
"702 668 LINE",
"780 668 LINE",
"880 668 OFFCURVE",
"922 632 OFFCURVE",
"958 530 CURVE SMOOTH",
"1142 0 LINE",
"1466 0 LINE",
"1466 186 LINE",
"1308 186 LINE",
"1124 648 LINE SMOOTH",
"1092 730 OFFCURVE",
"1000 780 OFFCURVE",
"922 796 CURVE"
);
},
{
closed = 1;
nodes = (
"844 1318 LINE SMOOTH",
"1036 1318 OFFCURVE",
"1162 1250 OFFCURVE",
"1162 1092 CURVE SMOOTH",
"1162 928 OFFCURVE",
"1050 848 OFFCURVE",
"842 848 CURVE SMOOTH",
"448 848 LINE",
"448 668 LINE",
"826 668 LINE",
"1080 690 LINE",
"1080 724 LINE",
"1270 774 OFFCURVE",
"1370 922 OFFCURVE",
"1370 1106 CURVE SMOOTH",
"1370 1356 OFFCURVE",
"1196 1504 OFFCURVE",
"852 1504 CURVE SMOOTH",
"582 1504 LINE",
"582 1318 LINE"
);
},
{
closed = 1;
nodes = (
"272 1318 LINE",
"272 186 LINE",
"52 186 LINE",
"52 0 LINE",
"696 0 LINE",
"696 186 LINE",
"476 186 LINE",
"476 1318 LINE",
"696 1318 LINE",
"696 1504 LINE",
"52 1504 LINE",
"52 1318 LINE"
);
}
);
width = 1530;
},
{
anchors = (
{
name = bottom;
position = "{832, 0}";
},
{
name = top;
position = "{816, 1544}";
}
);
layerId = "BE4E587A-F76C-447B-AA28-A45E40876AAF";
rightMetricsKey = "=P+12";
paths = (
{
closed = 1;
nodes = (
"658 594 LINE",
"842 594 LINE",
"872 594 OFFCURVE",
"884 584 OFFCURVE",
"896 544 CURVE SMOOTH",
"1058 0 LINE",
"1578 0 LINE",
"1578 414 LINE",
"1496 414 LINE",
"1372 710 LINE SMOOTH",
"1344 776 OFFCURVE",
"1268 876 OFFCURVE",
"1102 916 CURVE"
);
},
{
closed = 1;
nodes = (
"894 1130 LINE SMOOTH",
"974 1130 OFFCURVE",
"1028 1102 OFFCURVE",
"1028 1038 CURVE SMOOTH",
"1028 978 OFFCURVE",
"980 948 OFFCURVE",
"892 948 CURVE SMOOTH",
"498 948 LINE",
"498 594 LINE",
"996 594 LINE",
"1344 736 LINE",
"1344 770 LINE",
"1468 838 OFFCURVE",
"1562 930 OFFCURVE",
"1562 1104 CURVE SMOOTH",
"1562 1380 OFFCURVE",
"1340 1544 OFFCURVE",
"902 1544 CURVE SMOOTH",
"632 1544 LINE",
"632 1130 LINE"
);
},
{
closed = 1;
nodes = (
"156 1130 LINE",
"156 414 LINE",
"42 414 LINE",
"42 0 LINE",
"794 0 LINE",
"794 414 LINE",
"672 414 LINE",
"672 1130 LINE",
"786 1130 LINE",
"786 1544 LINE",
"42 1544 LINE",
"42 1130 LINE"
);
}
);
width = 1632;
},
{
anchors = (
{
name = bottom;
position = "{832, 0}";
},
{
name = top;
position = "{816, 1544}";
}
);
associatedMasterId = "BE4E587A-F76C-447B-AA28-A45E40876AAF";
layerId = "40B89D66-E47A-4BA0-80B8-2ABF5EF51902";
rightMetricsKey = "=P+12";
name = "Jun 4 18, 09:59";
paths = (
{
closed = 1;
nodes = (
"670 594 LINE",
"854 594 LINE",
"884 594 OFFCURVE",
"898 584 OFFCURVE",
"908 544 CURVE SMOOTH",
"1038 0 LINE",
"1578 0 LINE",
"1578 414 LINE",
"1476 414 LINE",
"1384 710 LINE SMOOTH",
"1362 780 OFFCURVE",
"1280 876 OFFCURVE",
"1114 916 CURVE"
);
},
{
closed = 1;
nodes = (
"906 1130 LINE SMOOTH",
"986 1130 OFFCURVE",
"1040 1102 OFFCURVE",
"1040 1038 CURVE SMOOTH",
"1040 978 OFFCURVE",
"992 948 OFFCURVE",
"904 948 CURVE SMOOTH",
"510 948 LINE",
"510 594 LINE",
"1008 594 LINE",
"1362 734 LINE",
"1362 768 LINE",
"1484 836 OFFCURVE",
"1574 928 OFFCURVE",
"1574 1104 CURVE SMOOTH",
"1574 1380 OFFCURVE",
"1352 1544 OFFCURVE",
"914 1544 CURVE SMOOTH",
"644 1544 LINE",
"644 1130 LINE"
);
},
{
closed = 1;
nodes = (
"156 1130 LINE",
"156 414 LINE",
"42 414 LINE",
"42 0 LINE",
"786 0 LINE",
"786 414 LINE",
"672 414 LINE",
"672 1130 LINE",
"786 1130 LINE",
"786 1544 LINE",
"42 1544 LINE",
"42 1130 LINE"
);
}
);
width = 1632;
}
);
leftKerningGroup = H;
leftMetricsKey = H;
rightKerningGroup = R;
rightMetricsKey = P;
unicode = 0052;
},
{
color = 0;
glyphname = S;
layers = (
{
anchors = (
{
name = bottom;
position = "{658, 0}";
},
{
name = top;
position = "{658, 1464}";
}
);
layerId = "67AEAADB-8447-4819-9D92-8BB76BD22042";
leftMetricsKey = "=O+18";
rightMetricsKey = "=O+8";
paths = (
{
closed = 1;
nodes = (
"1038 -20 OFFCURVE",
"1206 118 OFFCURVE",
"1206 366 CURVE SMOOTH",
"1206 602 OFFCURVE",
"1056 718 OFFCURVE",
"670 782 CURVE SMOOTH",
"270 848 OFFCURVE",
"138 946 OFFCURVE",
"138 1154 CURVE SMOOTH",
"138 1388 OFFCURVE",
"312 1514 OFFCURVE",
"598 1514 CURVE SMOOTH",
"920 1514 OFFCURVE",
"1094 1358 OFFCURVE",
"1140 1048 CURVE",
"1146 1092 LINE",
"1138 1092 LINE",
"1094 1360 OFFCURVE",
"926 1524 OFFCURVE",
"598 1524 CURVE SMOOTH",
"306 1524 OFFCURVE",
"128 1394 OFFCURVE",
"128 1154 CURVE SMOOTH",
"128 938 OFFCURVE",
"270 838 OFFCURVE",
"668 772 CURVE SMOOTH",
"1054 708 OFFCURVE",
"1196 596 OFFCURVE",
"1196 366 CURVE SMOOTH",
"1196 124 OFFCURVE",
"1032 -10 OFFCURVE",
"732 -10 CURVE SMOOTH",
"384 -10 OFFCURVE",
"174 152 OFFCURVE",
"132 456 CURVE",
"128 416 LINE",
"134 416 LINE",
"180 142 OFFCURVE",
"386 -20 OFFCURVE",
"732 -20 CURVE SMOOTH"
);
},
{
closed = 1;
nodes = (
"132 0 LINE",
"132 456 LINE",
"122 456 LINE",
"122 0 LINE"
);
},
{
closed = 1;
nodes = (
"1150 1048 LINE",
"1150 1504 LINE",
"1140 1504 LINE",
"1140 1048 LINE"
);
}
);
width = 1318;
},
{
anchors = (
{
name = bottom;
position = "{774, 0}";
},
{
name = top;
position = "{774, 1544}";
}
);
layerId = "BE4E587A-F76C-447B-AA28-A45E40876AAF";
leftMetricsKey = "=O+28";
rightMetricsKey = "=O+10";
paths = (
{
closed = 1;
nodes = (
"1344 -20 OFFCURVE",
"1518 148 OFFCURVE",
"1518 458 CURVE SMOOTH",
"1518 814 OFFCURVE",
"1284 1010 OFFCURVE",
"820 1044 CURVE SMOOTH",
"642 1058 OFFCURVE",
"586 1106 OFFCURVE",
"586 1166 CURVE SMOOTH",
"586 1222 OFFCURVE",
"636 1250 OFFCURVE",
"716 1250 CURVE SMOOTH",
"850 1250 OFFCURVE",
"942 1176 OFFCURVE",
"960 1056 CURVE",
"990 1260 LINE",
"944 1260 LINE",
"924 1464 OFFCURVE",
"784 1572 OFFCURVE",
"544 1572 CURVE SMOOTH",
"226 1572 OFFCURVE",
"50 1394 OFFCURVE",
"50 1102 CURVE SMOOTH",
"50 744 OFFCURVE",
"278 548 OFFCURVE",
"748 510 CURVE SMOOTH",
"916 496 OFFCURVE",
"982 466 OFFCURVE",
"982 400 CURVE SMOOTH",
"982 338 OFFCURVE",
"928 302 OFFCURVE",
"840 302 CURVE SMOOTH",
"714 302 OFFCURVE",
"614 382 OFFCURVE",
"592 496 CURVE",
"562 286 LINE",
"608 286 LINE",
"632 76 OFFCURVE",
"762 -20 OFFCURVE",
"1010 -20 CURVE SMOOTH"
);
},
{
closed = 1;
nodes = (
"592 0 LINE",
"592 496 LINE",
"76 496 LINE",
"76 0 LINE"
);
},
{
closed = 1;
nodes = (
"1476 1056 LINE",
"1476 1544 LINE",
"960 1544 LINE",
"960 1056 LINE"
);
}
);
width = 1550;
},
{
anchors = (
{
name = bottom;
position = "{698, 0}";
},
{
name = top;
position = "{698, 1464}";
}
);
layerId = "2C5E45D0-97E8-45AA-A5B2-946753DF54E1";
leftMetricsKey = "=O+16";
rightMetricsKey = "=O-32";
paths = (
{
closed = 1;
nodes = (
"1090 -20 OFFCURVE",
"1274 142 OFFCURVE",
"1274 416 CURVE SMOOTH",
"1274 684 OFFCURVE",
"1114 816 OFFCURVE",
"710 878 CURVE SMOOTH",
"434 930 OFFCURVE",
"318 1006 OFFCURVE",
"318 1140 CURVE SMOOTH",
"318 1268 OFFCURVE",
"430 1346 OFFCURVE",
"610 1346 CURVE SMOOTH",
"822 1346 OFFCURVE",
"986 1228 OFFCURVE",
"1018 1048 CURVE",
"1056 1200 LINE",
"1010 1200 LINE",
"984 1414 OFFCURVE",
"838 1524 OFFCURVE",
"582 1524 CURVE SMOOTH",
"288 1524 OFFCURVE",
"110 1376 OFFCURVE",
"110 1130 CURVE SMOOTH",
"110 880 OFFCURVE",
"298 728 OFFCURVE",
"678 676 CURVE SMOOTH",
"962 636 OFFCURVE",
"1066 562 OFFCURVE",
"1066 402 CURVE SMOOTH",
"1066 244 OFFCURVE",
"952 158 OFFCURVE",
"746 158 CURVE SMOOTH",
"514 158 OFFCURVE",
"346 272 OFFCURVE",
"312 456 CURVE",
"274 298 LINE",
"320 298 LINE",
"350 94 OFFCURVE",
"514 -20 OFFCURVE",
"778 -20 CURVE SMOOTH"
);
},
{
closed = 1;
nodes = (
"312 0 LINE",
"312 456 LINE",
"108 456 LINE",
"108 0 LINE"
);
},
{
closed = 1;
nodes = (
"1222 1048 LINE",
"1222 1504 LINE",
"1018 1504 LINE",
"1018 1048 LINE"
);
}
);
width = 1334;
},
{
anchors = (
{
name = bottom;
position = "{822, 0}";
},
{
name = top;
position = "{688, 1464}";
}
);
associatedMasterId = "BE4E587A-F76C-447B-AA28-A45E40876AAF";
layerId = "F8ECC15C-CBDE-49AD-B5FB-69E86B5BF4A4";
leftMetricsKey = "=H+8";
name = "Mar 20 18, 14:45";
paths = (
{
closed = 1;
nodes = (
"1338 -20 OFFCURVE",
"1512 148 OFFCURVE",
"1512 458 CURVE SMOOTH",
"1512 814 OFFCURVE",
"1278 1010 OFFCURVE",
"814 1044 CURVE SMOOTH",
"636 1058 OFFCURVE",
"580 1106 OFFCURVE",
"580 1170 CURVE SMOOTH",
"580 1228 OFFCURVE",
"630 1258 OFFCURVE",
"710 1258 CURVE SMOOTH",
"844 1258 OFFCURVE",
"936 1180 OFFCURVE",
"954 1056 CURVE",
"984 1168 LINE",
"938 1168 LINE",
"918 1442 OFFCURVE",
"778 1572 OFFCURVE",
"518 1572 CURVE SMOOTH",
"220 1572 OFFCURVE",
"44 1394 OFFCURVE",
"44 1102 CURVE SMOOTH",
"44 742 OFFCURVE",
"274 548 OFFCURVE",
"742 510 CURVE SMOOTH",
"910 496 OFFCURVE",
"976 466 OFFCURVE",
"976 396 CURVE SMOOTH",
"976 332 OFFCURVE",
"922 294 OFFCURVE",
"828 294 CURVE SMOOTH",
"708 294 OFFCURVE",
"608 378 OFFCURVE",
"586 496 CURVE",
"556 378 LINE",
"602 378 LINE",
"626 104 OFFCURVE",
"756 -20 OFFCURVE",
"1024 -20 CURVE SMOOTH"
);
},
{
closed = 1;
nodes = (
"586 0 LINE",
"586 496 LINE",
"70 496 LINE",
"70 0 LINE"
);
},
{
closed = 1;
nodes = (
"1470 1056 LINE",
"1470 1544 LINE",
"954 1544 LINE",
"954 1056 LINE"
);
}
);
width = 1534;
},
{
anchors = (
{
name = bottom;
position = "{668, 0}";
},
{
name = top;
position = "{668, 1464}";
}
);
layerId = "A59F1195-5331-40FD-8BD6-3900E1073F61";
leftMetricsKey = "=O+18";
rightMetricsKey = "=O+0";
paths = (
{
closed = 1;
nodes = (
"1050 -20 OFFCURVE",
"1222 122 OFFCURVE",
"1222 376 CURVE SMOOTH",
"1222 618 OFFCURVE",
"1070 738 OFFCURVE",
"680 802 CURVE SMOOTH",
"304 864 OFFCURVE",
"176 958 OFFCURVE",
"176 1152 CURVE SMOOTH",
"176 1364 OFFCURVE",
"338 1480 OFFCURVE",
"602 1480 CURVE SMOOTH",
"902 1480 OFFCURVE",
"1074 1332 OFFCURVE",
"1116 1048 CURVE",
"1128 1186 LINE",
"1114 1186 LINE",
"1068 1372 OFFCURVE",
"910 1524 OFFCURVE",
"596 1524 CURVE SMOOTH",
"304 1524 OFFCURVE",
"126 1390 OFFCURVE",
"126 1150 CURVE SMOOTH",
"126 926 OFFCURVE",
"278 816 OFFCURVE",
"672 752 CURVE SMOOTH",
"1036 694 OFFCURVE",
"1170 590 OFFCURVE",
"1170 374 CURVE SMOOTH",
"1170 148 OFFCURVE",
"1018 24 OFFCURVE",
"732 24 CURVE SMOOTH",
"412 24 OFFCURVE",
"210 176 OFFCURVE",
"170 456 CURVE",
"160 320 LINE",
"174 320 LINE",
"230 124 OFFCURVE",
"414 -20 OFFCURVE",
"734 -20 CURVE SMOOTH"
);
},
{
closed = 1;
nodes = (
"170 0 LINE",
"170 456 LINE",
"120 456 LINE",
"120 0 LINE"
);
},
{
closed = 1;
nodes = (
"1166 1048 LINE",
"1166 1504 LINE",
"1116 1504 LINE",
"1116 1048 LINE"
);
}
);
width = 1324;
},
{
anchors = (
{
name = bottom;
position = "{698, 0}";
},
{
name = top;
position = "{698, 1464}";
}
);
associatedMasterId = "2C5E45D0-97E8-45AA-A5B2-946753DF54E1";
layerId = "8DF604F3-4F8C-4D1E-A128-23E4E2E9A99E";
leftMetricsKey = "=O+16";
rightMetricsKey = "=O-32";
name = "Jun 12 18, 15:36";
paths = (
{
closed = 1;
nodes = (
"1090 -20 OFFCURVE",
"1274 142 OFFCURVE",
"1274 416 CURVE SMOOTH",
"1274 684 OFFCURVE",
"1114 816 OFFCURVE",
"710 878 CURVE SMOOTH",
"434 930 OFFCURVE",
"318 1006 OFFCURVE",
"318 1140 CURVE SMOOTH",
"318 1268 OFFCURVE",
"430 1346 OFFCURVE",
"610 1346 CURVE SMOOTH",
"822 1346 OFFCURVE",
"986 1228 OFFCURVE",
"1018 1048 CURVE",
"1056 1200 LINE",
"1010 1200 LINE",
"984 1414 OFFCURVE",
"838 1524 OFFCURVE",
"582 1524 CURVE SMOOTH",
"288 1524 OFFCURVE",
"110 1376 OFFCURVE",
"110 1130 CURVE SMOOTH",
"110 880 OFFCURVE",
"298 728 OFFCURVE",
"678 676 CURVE SMOOTH",
"962 636 OFFCURVE",
"1066 562 OFFCURVE",
"1066 402 CURVE SMOOTH",
"1066 244 OFFCURVE",
"952 158 OFFCURVE",
"746 158 CURVE SMOOTH",
"514 158 OFFCURVE",
"346 272 OFFCURVE",
"312 456 CURVE",
"274 298 LINE",
"320 298 LINE",
"350 94 OFFCURVE",
"514 -20 OFFCURVE",
"778 -20 CURVE SMOOTH"
);
},
{
closed = 1;
nodes = (
"312 0 LINE",
"312 456 LINE",
"108 456 LINE",
"108 0 LINE"
);
},
{
closed = 1;
nodes = (
"1222 1048 LINE",
"1222 1504 LINE",
"1018 1504 LINE",
"1018 1048 LINE"
);
}
);
width = 1334;
},
{
anchors = (
{
name = bottom;
position = "{725, 0}";
},
{
name = top;
position = "{725, 1494}";
}
);
associatedMasterId = "BE4E587A-F76C-447B-AA28-A45E40876AAF";
layerId = "7FAB5E9E-7120-435E-AF43-519611FAD226";
leftMetricsKey = "=O+20";
rightMetricsKey = "=O-14";
name = "{158}";
paths = (
{
closed = 1;
nodes = (
"1185 -20 OFFCURVE",
"1365 144 OFFCURVE",
"1365 432 CURVE SMOOTH",
"1365 734 OFFCURVE",
"1177 890 OFFCURVE",
"749 942 CURVE SMOOTH",
"511 978 OFFCURVE",
"419 1040 OFFCURVE",
"419 1134 CURVE SMOOTH",
"419 1222 OFFCURVE",
"493 1270 OFFCURVE",
"627 1270 CURVE SMOOTH",
"815 1270 OFFCURVE",
"965 1184 OFFCURVE",
"993 1052 CURVE",
"1029 1224 LINE",
"983 1224 LINE",
"959 1434 OFFCURVE",
"815 1542 OFFCURVE",
"565 1542 CURVE SMOOTH",
"261 1542 OFFCURVE",
"85 1382 OFFCURVE",
"85 1120 CURVE SMOOTH",
"85 826 OFFCURVE",
"289 658 OFFCURVE",
"703 612 CURVE SMOOTH",
"941 584 OFFCURVE",
"1031 530 OFFCURVE",
"1031 418 CURVE SMOOTH",
"1031 310 OFFCURVE",
"953 254 OFFCURVE",
"797 254 CURVE SMOOTH",
"605 254 OFFCURVE",
"449 338 OFFCURVE",
"417 472 CURVE",
"383 294 LINE",
"429 294 LINE",
"455 88 OFFCURVE",
"607 -20 OFFCURVE",
"865 -20 CURVE SMOOTH"
);
},
{
closed = 1;
nodes = (
"417 0 LINE",
"417 472 LINE",
"93 472 LINE",
"93 0 LINE"
);
},
{
closed = 1;
nodes = (
"1317 1052 LINE",
"1317 1520 LINE",
"993 1520 LINE",
"993 1052 LINE"
);
}
);
width = 1416;
}
);
leftKerningGroup = S;
rightKerningGroup = S;
rightMetricsKey = "=|-18";
unicode = 0053;
},
{
color = 3;
glyphname = Germandbls;
layers = (
{
anchors = (
{
name = bottom;
position = "{832, 0}";
},
{
name = top;
position = "{832, 1464}";
}
);
layerId = "67AEAADB-8447-4819-9D92-8BB76BD22042";
rightMetricsKey = "=S-20";
paths = (
{
closed = 1;
nodes = (
"658 0 LINE",
"658 10 LINE",
"362 10 LINE",
"362 1494 LINE",
"1438 1494 LINE",
"1438 1504 LINE",
"54 1504 LINE",
"54 1494 LINE",
"352 1494 LINE",
"352 10 LINE",
"54 10 LINE",
"54 0 LINE"
);
},
{
closed = 1;
nodes = (
"1420 -14 OFFCURVE",
"1566 156 OFFCURVE",
"1566 402 CURVE SMOOTH",
"1566 668 OFFCURVE",
"1398 844 OFFCURVE",
"1070 844 CURVE SMOOTH",
"938 844 LINE",
"938 834 LINE",
"1070 834 LINE SMOOTH",
"1394 834 OFFCURVE",
"1556 662 OFFCURVE",
"1556 402 CURVE SMOOTH",
"1556 160 OFFCURVE",
"1414 -4 OFFCURVE",
"1102 -4 CURVE SMOOTH",
"1002 -4 OFFCURVE",
"920 12 OFFCURVE",
"856 44 CURVE",
"852 36 LINE",
"918 4 OFFCURVE",
"1000 -14 OFFCURVE",
"1102 -14 CURVE SMOOTH"
);
},
{
closed = 1;
nodes = (
"950 836 LINE",
"950 846 LINE",
"1438 1492 LINE",
"1438 1502 LINE",
"1426 1498 LINE",
"1426 1492 LINE",
"938 846 LINE",
"938 836 LINE"
);
}
);
width = 1658;
},
{
associatedMasterId = "67AEAADB-8447-4819-9D92-8BB76BD22042";
layerId = "5D449654-87D6-4E8D-B954-DA4B523FA6C0";
leftMetricsKey = "=n+24";
name = "Mar 14 18, 15:13";
paths = (
{
closed = 1;
nodes = (
"770 834 LINE",
"782 834 LINE",
"782 844 LINE",
"1328 1334 LINE",
"1328 1338 LINE",
"1316 1342 LINE",
"1316 1336 LINE",
"770 846 LINE"
);
},
{
closed = 1;
nodes = (
"370 1114 LINE SMOOTH",
"370 1394 OFFCURVE",
"504 1584 OFFCURVE",
"808 1584 CURVE SMOOTH",
"1006 1584 OFFCURVE",
"1192 1506 OFFCURVE",
"1320 1332 CURVE",
"1328 1338 LINE",
"1200 1512 OFFCURVE",
"1012 1594 OFFCURVE",
"808 1594 CURVE SMOOTH",
"498 1594 OFFCURVE",
"360 1400 OFFCURVE",
"360 1114 CURVE SMOOTH",
"360 1048 LINE",
"102 1048 LINE",
"102 1038 LINE",
"360 1038 LINE",
"360 10 LINE",
"102 10 LINE",
"102 0 LINE",
"370 0 LINE"
);
},
{
closed = 1;
nodes = (
"770 834 LINE",
"1264 800 OFFCURVE",
"1456 662 OFFCURVE",
"1456 398 CURVE SMOOTH",
"1456 162 OFFCURVE",
"1308 -4 OFFCURVE",
"982 -4 CURVE SMOOTH",
"718 -4 OFFCURVE",
"582 100 OFFCURVE",
"544 288 CURVE",
"534 286 LINE",
"572 98 OFFCURVE",
"712 -14 OFFCURVE",
"982 -14 CURVE SMOOTH",
"1314 -14 OFFCURVE",
"1466 156 OFFCURVE",
"1466 398 CURVE SMOOTH",
"1466 668 OFFCURVE",
"1266 810 OFFCURVE",
"772 844 CURVE"
);
}
);
width = 1588;
},
{
anchors = (
{
name = bottom;
position = "{836, 0}";
},
{
name = top;
position = "{836, 1464}";
}
);
layerId = "A59F1195-5331-40FD-8BD6-3900E1073F61";
rightMetricsKey = "=S-42";
paths = (
{
closed = 1;
nodes = (
"662 0 LINE",
"662 46 LINE",
"386 46 LINE",
"386 1458 LINE",
"1442 1458 LINE",
"1442 1504 LINE",
"54 1504 LINE",
"54 1458 LINE",
"336 1458 LINE",
"336 46 LINE",
"54 46 LINE",
"54 0 LINE"
);
},
{
closed = 1;
nodes = (
"1412 -14 OFFCURVE",
"1570 152 OFFCURVE",
"1570 408 CURVE SMOOTH",
"1570 682 OFFCURVE",
"1394 856 OFFCURVE",
"1070 856 CURVE SMOOTH",
"932 856 LINE",
"932 810 LINE",
"1070 810 LINE SMOOTH",
"1364 810 OFFCURVE",
"1520 652 OFFCURVE",
"1520 408 CURVE SMOOTH",
"1520 180 OFFCURVE",
"1380 30 OFFCURVE",
"1098 30 CURVE SMOOTH",
"1008 30 OFFCURVE",
"932 44 OFFCURVE",
"870 74 CURVE",
"852 34 LINE",
"920 2 OFFCURVE",
"1000 -14 OFFCURVE",
"1096 -14 CURVE SMOOTH"
);
},
{
closed = 1;
nodes = (
"992 838 LINE",
"992 858 LINE",
"1442 1450 LINE",
"1442 1496 LINE",
"1382 1472 LINE",
"1382 1454 LINE",
"932 862 LINE",
"932 812 LINE"
);
}
);
width = 1630;
},
{
anchors = (
{
name = bottom;
position = "{852, 0}";
},
{
name = top;
position = "{852, 1464}";
}
);
layerId = "2C5E45D0-97E8-45AA-A5B2-946753DF54E1";
rightMetricsKey = "=S-24";
paths = (
{
closed = 1;
nodes = (
"682 0 LINE",
"682 186 LINE",
"480 186 LINE",
"480 1318 LINE",
"1460 1318 LINE",
"1460 1504 LINE",
"56 1504 LINE",
"56 1318 LINE",
"276 1318 LINE",
"276 186 LINE",
"56 186 LINE",
"56 0 LINE"
);
},
{
closed = 1;
nodes = (
"1384 -18 OFFCURVE",
"1586 140 OFFCURVE",
"1586 434 CURVE SMOOTH",
"1586 732 OFFCURVE",
"1380 902 OFFCURVE",
"1072 902 CURVE SMOOTH",
"910 902 LINE",
"910 716 LINE",
"1072 716 LINE SMOOTH",
"1244 716 OFFCURVE",
"1378 614 OFFCURVE",
"1378 436 CURVE SMOOTH",
"1378 258 OFFCURVE",
"1248 162 OFFCURVE",
"1082 162 CURVE SMOOTH",
"1028 162 OFFCURVE",
"980 172 OFFCURVE",
"926 192 CURVE",
"854 26 LINE",
"932 -6 OFFCURVE",
"996 -18 OFFCURVE",
"1076 -18 CURVE SMOOTH"
);
},
{
closed = 1;
nodes = (
"1160 842 LINE",
"1160 906 LINE",
"1460 1288 LINE",
"1460 1474 LINE",
"1208 1368 LINE",
"1208 1310 LINE",
"910 926 LINE",
"910 718 LINE"
);
}
);
width = 1622;
},
{
associatedMasterId = "2C5E45D0-97E8-45AA-A5B2-946753DF54E1";
layerId = "FE80F295-343F-470D-BC19-20BD28AC8CD9";
rightMetricsKey = "=s-32";
name = "Jan 3 18, 14:29";
paths = (
{
closed = 1;
nodes = (
"724 674 LINE",
"966 758 LINE",
"966 822 LINE",
"1262 1346 LINE",
"1262 1518 LINE",
"1064 1440 LINE",
"1064 1382 LINE",
"724 808 LINE"
);
},
{
closed = 1;
nodes = (
"724 674 LINE",
"1076 650 OFFCURVE",
"1212 562 OFFCURVE",
"1212 382 CURVE SMOOTH",
"1212 230 OFFCURVE",
"1118 156 OFFCURVE",
"944 156 CURVE SMOOTH",
"822 156 OFFCURVE",
"738 214 OFFCURVE",
"722 296 CURVE",
"528 260 LINE",
"564 84 OFFCURVE",
"684 -20 OFFCURVE",
"950 -20 CURVE SMOOTH",
"1250 -20 OFFCURVE",
"1400 142 OFFCURVE",
"1400 396 CURVE SMOOTH",
"1400 658 OFFCURVE",
"1244 798 OFFCURVE",
"816 860 CURVE"
);
},
{
closed = 1;
nodes = (
"464 1168 LINE SMOOTH",
"464 1350 OFFCURVE",
"564 1422 OFFCURVE",
"790 1422 CURVE SMOOTH",
"940 1422 OFFCURVE",
"1072 1390 OFFCURVE",
"1222 1344 CURVE",
"1262 1518 LINE",
"1092 1564 OFFCURVE",
"918 1600 OFFCURVE",
"760 1600 CURVE SMOOTH",
"424 1600 OFFCURVE",
"270 1434 OFFCURVE",
"270 1168 CURVE SMOOTH",
"270 1072 LINE",
"64 1072 LINE",
"64 904 LINE",
"268 904 LINE",
"268 168 LINE",
"64 168 LINE",
"64 0 LINE",
"464 0 LINE",
"464 904 LINE",
"464 1072 LINE"
);
}
);
width = 1464;
},
{
associatedMasterId = "2C5E45D0-97E8-45AA-A5B2-946753DF54E1";
layerId = "EB730B4A-FF7D-4771-98D9-8E290D735F46";
rightMetricsKey = "=s-32";
name = "Jan 3 18, 14:37";
paths = (
{
closed = 1;
nodes = (
"804 734 LINE",
"1046 818 LINE",
"1046 882 LINE",
"1370 1312 LINE",
"1370 1380 LINE",
"1150 1370 LINE",
"1150 1312 LINE",
"804 868 LINE"
);
},
{
closed = 1;
nodes = (
"804 734 LINE",
"1156 708 OFFCURVE",
"1292 614 OFFCURVE",
"1292 420 CURVE SMOOTH",
"1292 252 OFFCURVE",
"1180 152 OFFCURVE",
"1000 152 CURVE SMOOTH",
"846 152 OFFCURVE",
"742 226 OFFCURVE",
"722 330 CURVE",
"528 294 LINE",
"568 94 OFFCURVE",
"710 -24 OFFCURVE",
"998 -24 CURVE SMOOTH",
"1330 -24 OFFCURVE",
"1480 148 OFFCURVE",
"1480 422 CURVE SMOOTH",
"1480 710 OFFCURVE",
"1324 856 OFFCURVE",
"896 920 CURVE"
);
},
{
closed = 1;
nodes = (
"268 1318 LINE",
"268 186 LINE",
"48 186 LINE",
"48 0 LINE",
"472 0 LINE",
"472 1318 LINE",
"1370 1318 LINE",
"1370 1504 LINE",
"48 1504 LINE",
"48 1318 LINE"
);
}
);
width = 1544;
},
{
associatedMasterId = "2C5E45D0-97E8-45AA-A5B2-946753DF54E1";
layerId = "7A2D836D-4BFC-4F42-A04F-CB07B7DAE8B8";
leftMetricsKey = "=H";
rightMetricsKey = "=S-32";
name = "Mar 14 18, 15:13";
paths = (
{
closed = 1;
nodes = (
"844 734 LINE",
"1086 834 LINE",
"1086 898 LINE",
"1402 1152 LINE",
"1402 1338 LINE",
"1222 1328 LINE",
"1222 1270 LINE",
"844 942 LINE"
);
},
{
closed = 1;
nodes = (
"504 1114 LINE SMOOTH",
"504 1308 OFFCURVE",
"638 1400 OFFCURVE",
"850 1400 CURVE SMOOTH",
"1084 1400 OFFCURVE",
"1230 1286 OFFCURVE",
"1282 1170 CURVE",
"1402 1338 LINE",
"1274 1516 OFFCURVE",
"1086 1600 OFFCURVE",
"840 1600 CURVE SMOOTH",
"476 1600 OFFCURVE",
"302 1404 OFFCURVE",
"302 1114 CURVE SMOOTH",
"302 1072 LINE",
"96 1072 LINE",
"96 886 LINE",
"300 886 LINE",
"300 186 LINE",
"96 186 LINE",
"96 0 LINE",
"504 0 LINE"
);
},
{
closed = 1;
nodes = (
"844 734 LINE",
"1196 708 OFFCURVE",
"1332 614 OFFCURVE",
"1332 424 CURVE SMOOTH",
"1332 260 OFFCURVE",
"1226 166 OFFCURVE",
"1058 166 CURVE SMOOTH",
"914 166 OFFCURVE",
"820 234 OFFCURVE",
"802 330 CURVE",
"608 286 LINE",
"646 92 OFFCURVE",
"780 -24 OFFCURVE",
"1056 -24 CURVE SMOOTH",
"1388 -24 OFFCURVE",
"1540 148 OFFCURVE",
"1540 422 CURVE SMOOTH",
"1540 710 OFFCURVE",
"1378 856 OFFCURVE",
"936 920 CURVE"
);
}
);
width = 1620;
},
{
anchors = (
{
name = bottom;
position = "{894, 0}";
},
{
name = top;
position = "{894, 1464}";
}
);
associatedMasterId = "2C5E45D0-97E8-45AA-A5B2-946753DF54E1";
layerId = "627AB63C-256E-461F-972E-59130295B5CC";
leftMetricsKey = "=H";
rightMetricsKey = "=S-32";
name = "Jun 10 18, 20:46";
paths = (
{
closed = 1;
nodes = (
"648 188 LINE",
"460 188 LINE",
"460 938 LINE SMOOTH",
"460 1200 OFFCURVE",
"640 1324 OFFCURVE",
"950 1324 CURVE SMOOTH",
"1042 1324 OFFCURVE",
"1200 1314 OFFCURVE",
"1350 1282 CURVE",
"1384 1472 LINE",
"1220 1510 OFFCURVE",
"1042 1524 OFFCURVE",
"940 1524 CURVE SMOOTH",
"470 1524 OFFCURVE",
"258 1288 OFFCURVE",
"258 938 CURVE SMOOTH",
"256 186 LINE",
"52 186 LINE",
"52 0 LINE",
"648 0 LINE"
);
},
{
closed = 1;
nodes = (
"1526 -20 OFFCURVE",
"1678 134 OFFCURVE",
"1678 392 CURVE SMOOTH",
"1678 898 OFFCURVE",
"1082 806 OFFCURVE",
"1082 1100 CURVE SMOOTH",
"1082 1220 OFFCURVE",
"1184 1282 OFFCURVE",
"1350 1282 CURVE",
"1142 1396 LINE",
"1142 1306 LINE",
"976 1288 OFFCURVE",
"874 1222 OFFCURVE",
"874 1048 CURVE SMOOTH",
"874 628 OFFCURVE",
"1470 768 OFFCURVE",
"1470 378 CURVE SMOOTH",
"1470 236 OFFCURVE",
"1386 158 OFFCURVE",
"1244 158 CURVE SMOOTH",
"1086 158 OFFCURVE",
"978 256 OFFCURVE",
"956 414 CURVE",
"918 256 LINE",
"964 256 LINE",
"984 78 OFFCURVE",
"1092 -20 OFFCURVE",
"1290 -20 CURVE SMOOTH"
);
},
{
closed = 1;
nodes = (
"956 0 LINE",
"956 414 LINE",
"752 414 LINE",
"752 0 LINE"
);
}
);
width = 1738;
},
{
anchors = (
{
name = bottom;
position = "{876, 0}";
},
{
name = top;
position = "{876, 1544}";
}
);
associatedMasterId = "BE4E587A-F76C-447B-AA28-A45E40876AAF";
layerId = "CE1F9310-FA2A-4087-91CD-6DEBA15548DB";
leftMetricsKey = "=n+24";
name = "Jun 10 18, 20:46";
paths = (
{
closed = 1;
nodes = (
"696 0 LINE",
"696 862 LINE SMOOTH",
"696 1044 OFFCURVE",
"768 1100 OFFCURVE",
"976 1100 CURVE SMOOTH",
"1156 1100 OFFCURVE",
"1448 1070 OFFCURVE",
"1654 1034 CURVE",
"1760 1480 LINE",
"1548 1542 OFFCURVE",
"1200 1570 OFFCURVE",
"940 1570 CURVE SMOOTH",
"396 1570 OFFCURVE",
"176 1312 OFFCURVE",
"178 862 CURVE SMOOTH",
"180 406 LINE",
"66 406 LINE",
"66 0 LINE"
);
},
{
closed = 1;
nodes = (
"1884 -20 OFFCURVE",
"2012 148 OFFCURVE",
"2012 376 CURVE SMOOTH",
"2012 806 OFFCURVE",
"1544 792 OFFCURVE",
"1544 958 CURVE SMOOTH",
"1544 1006 OFFCURVE",
"1586 1034 OFFCURVE",
"1654 1034 CURVE",
"1406 1154 LINE",
"1406 1054 LINE",
"1176 1054 OFFCURVE",
"1048 994 OFFCURVE",
"1048 834 CURVE SMOOTH",
"1048 542 OFFCURVE",
"1476 532 OFFCURVE",
"1476 376 CURVE SMOOTH",
"1476 332 OFFCURVE",
"1442 302 OFFCURVE",
"1398 302 CURVE SMOOTH",
"1332 302 OFFCURVE",
"1306 366 OFFCURVE",
"1300 456 CURVE",
"1270 246 LINE",
"1316 246 LINE",
"1350 64 OFFCURVE",
"1420 -20 OFFCURVE",
"1612 -20 CURVE SMOOTH"
);
},
{
closed = 1;
nodes = (
"1300 0 LINE",
"1300 456 LINE",
"784 456 LINE",
"784 0 LINE"
);
}
);
width = 2016;
},
{
anchors = (
{
name = bottom;
position = "{890, 0}";
},
{
name = top;
position = "{890, 1544}";
}
);
layerId = "BE4E587A-F76C-447B-AA28-A45E40876AAF";
paths = (
{
closed = 1;
nodes = (
"786 0 LINE",
"786 406 LINE",
"672 406 LINE",
"672 1138 LINE",
"1616 1138 LINE",
"1616 1544 LINE",
"42 1544 LINE",
"42 1138 LINE",
"156 1138 LINE",
"156 406 LINE",
"42 406 LINE",
"42 0 LINE"
);
},
{
closed = 1;
nodes = (
"1516 -20 OFFCURVE",
"1734 146 OFFCURVE",
"1734 446 CURVE SMOOTH",
"1734 804 OFFCURVE",
"1434 948 OFFCURVE",
"1122 948 CURVE SMOOTH",
"970 948 LINE",
"850 526 LINE",
"1104 526 LINE SMOOTH",
"1174 526 OFFCURVE",
"1210 490 OFFCURVE",
"1210 444 CURVE SMOOTH",
"1210 404 OFFCURVE",
"1184 364 OFFCURVE",
"1100 364 CURVE SMOOTH",
"1064 364 OFFCURVE",
"1024 372 OFFCURVE",
"986 388 CURVE",
"850 36 LINE",
"922 -2 OFFCURVE",
"1002 -20 OFFCURVE",
"1140 -20 CURVE SMOOTH"
);
},
{
closed = 1;
nodes = (
"1410 846 LINE",
"1410 910 LINE",
"1616 1138 LINE",
"1616 1458 LINE",
"1018 1180 LINE",
"1018 1122 LINE",
"850 928 LINE",
"850 526 LINE"
);
}
);
width = 1748;
},
{
anchors = (
{
name = bottom;
position = "{910, 0}";
},
{
name = top;
position = "{910, 1544}";
}
);
associatedMasterId = "BE4E587A-F76C-447B-AA28-A45E40876AAF";
layerId = "86D9BB7B-DD62-4807-B8F5-5731CDCBAAC4";
leftMetricsKey = "=n+24";
name = "Jun 10 18, 20:48";
paths = (
{
closed = 1;
nodes = (
"902 554 LINE",
"1450 778 LINE",
"1450 842 LINE",
"1622 1044 LINE",
"1622 1278 LINE",
"1066 1156 LINE",
"1066 1098 LINE",
"902 924 LINE"
);
},
{
closed = 1;
nodes = (
"808 406 LINE",
"708 406 LINE",
"708 992 LINE SMOOTH",
"708 1086 OFFCURVE",
"768 1130 OFFCURVE",
"870 1130 CURVE SMOOTH",
"988 1130 OFFCURVE",
"1070 1088 OFFCURVE",
"1100 1026 CURVE",
"1622 1278 LINE",
"1448 1496 OFFCURVE",
"1194 1600 OFFCURVE",
"874 1600 CURVE SMOOTH",
"412 1600 OFFCURVE",
"188 1356 OFFCURVE",
"190 992 CURVE SMOOTH",
"192 406 LINE",
"66 406 LINE",
"66 0 LINE",
"808 0 LINE"
);
},
{
closed = 1;
nodes = (
"902 554 LINE",
"1154 544 OFFCURVE",
"1252 508 OFFCURVE",
"1252 430 CURVE SMOOTH",
"1252 384 OFFCURVE",
"1214 360 OFFCURVE",
"1156 360 CURVE SMOOTH",
"1116 360 OFFCURVE",
"1084 370 OFFCURVE",
"1056 388 CURVE",
"868 32 LINE",
"944 -6 OFFCURVE",
"1022 -24 OFFCURVE",
"1168 -24 CURVE SMOOTH",
"1588 -24 OFFCURVE",
"1776 148 OFFCURVE",
"1776 440 CURVE SMOOTH",
"1776 688 OFFCURVE",
"1624 822 OFFCURVE",
"1212 880 CURVE"
);
}
);
width = 1780;
},
{
anchors = (
{
name = bottom;
position = "{846, 0}";
},
{
name = top;
position = "{846, 1464}";
}
);
associatedMasterId = "2C5E45D0-97E8-45AA-A5B2-946753DF54E1";
layerId = "25941123-A98D-4E34-87C6-BD73FA2E6359";
leftMetricsKey = "=H";
rightMetricsKey = "=S-32";
name = "Jun 10 18, 20:50";
paths = (
{
closed = 1;
nodes = (
"880 734 LINE",
"1122 834 LINE",
"1122 898 LINE",
"1450 1152 LINE",
"1450 1338 LINE",
"1270 1328 LINE",
"1270 1270 LINE",
"880 942 LINE"
);
},
{
closed = 1;
nodes = (
"592 188 LINE",
"466 188 LINE",
"466 1114 LINE SMOOTH",
"466 1308 OFFCURVE",
"614 1400 OFFCURVE",
"848 1400 CURVE SMOOTH",
"1108 1400 OFFCURVE",
"1272 1284 OFFCURVE",
"1330 1170 CURVE",
"1450 1338 LINE",
"1308 1518 OFFCURVE",
"1100 1600 OFFCURVE",
"838 1600 CURVE SMOOTH",
"450 1600 OFFCURVE",
"264 1404 OFFCURVE",
"264 1114 CURVE",
"262 186 LINE",
"52 186 LINE",
"52 0 LINE",
"592 0 LINE"
);
},
{
closed = 1;
nodes = (
"880 734 LINE",
"1244 708 OFFCURVE",
"1384 612 OFFCURVE",
"1384 424 CURVE SMOOTH",
"1384 260 OFFCURVE",
"1274 166 OFFCURVE",
"1098 166 CURVE SMOOTH",
"948 166 OFFCURVE",
"850 234 OFFCURVE",
"832 330 CURVE",
"638 286 LINE",
"676 92 OFFCURVE",
"814 -24 OFFCURVE",
"1096 -24 CURVE SMOOTH",
"1436 -24 OFFCURVE",
"1592 148 OFFCURVE",
"1592 422 CURVE SMOOTH",
"1592 708 OFFCURVE",
"1426 856 OFFCURVE",
"972 920 CURVE"
);
}
);
width = 1652;
},
{
anchors = (
{
name = bottom;
position = "{878, 0}";
},
{
name = top;
position = "{878, 1464}";
}
);
associatedMasterId = "67AEAADB-8447-4819-9D92-8BB76BD22042";
layerId = "CA4E73A8-506C-4719-95AC-BF889DB01003";
rightMetricsKey = "=S+82";
name = "Jun 11 18, 10:18";
paths = (
{
closed = 1;
nodes = (
"900 834 LINE",
"912 834 LINE",
"912 844 LINE",
"1402 1334 LINE",
"1402 1338 LINE",
"1390 1342 LINE",
"1390 1336 LINE",
"900 846 LINE"
);
},
{
closed = 1;
nodes = (
"604 10 LINE",
"392 10 LINE",
"392 1114 LINE SMOOTH",
"392 1394 OFFCURVE",
"534 1584 OFFCURVE",
"856 1584 CURVE SMOOTH",
"1064 1584 OFFCURVE",
"1260 1506 OFFCURVE",
"1394 1332 CURVE",
"1402 1338 LINE",
"1268 1512 OFFCURVE",
"1070 1594 OFFCURVE",
"856 1594 CURVE SMOOTH",
"528 1594 OFFCURVE",
"382 1400 OFFCURVE",
"382 1114 CURVE SMOOTH",
"382 10 LINE",
"124 10 LINE",
"124 0 LINE",
"604 0 LINE"
);
},
{
closed = 1;
nodes = (
"900 834 LINE",
"1354 800 OFFCURVE",
"1530 662 OFFCURVE",
"1530 398 CURVE SMOOTH",
"1530 160 OFFCURVE",
"1388 -4 OFFCURVE",
"1076 -4 CURVE SMOOTH",
"824 -4 OFFCURVE",
"694 100 OFFCURVE",
"658 288 CURVE",
"648 286 LINE",
"684 98 OFFCURVE",
"818 -14 OFFCURVE",
"1076 -14 CURVE SMOOTH",
"1394 -14 OFFCURVE",
"1540 156 OFFCURVE",
"1540 398 CURVE SMOOTH",
"1540 668 OFFCURVE",
"1356 810 OFFCURVE",
"902 844 CURVE"
);
}
);
width = 1654;
},
{
anchors = (
{
name = bottom;
position = "{878, 0}";
},
{
name = top;
position = "{878, 1544}";
}
);
associatedMasterId = "BE4E587A-F76C-447B-AA28-A45E40876AAF";
layerId = "72A3E15A-42F6-4541-972D-AB2C241D5601";
rightMetricsKey = "=S-14";
name = "Jun 14 18, 18:25";
paths = (
{
closed = 1;
nodes = (
"870 554 LINE",
"1418 778 LINE",
"1418 842 LINE",
"1590 1044 LINE",
"1590 1458 LINE",
"1034 1156 LINE",
"1034 1098 LINE",
"870 924 LINE"
);
},
{
closed = 1;
nodes = (
"774 406 LINE",
"660 406 LINE",
"660 962 LINE SMOOTH",
"660 1086 OFFCURVE",
"722 1130 OFFCURVE",
"916 1130 CURVE SMOOTH",
"1060 1130 OFFCURVE",
"1238 1106 OFFCURVE",
"1438 1038 CURVE",
"1590 1458 LINE",
"1370 1554 OFFCURVE",
"1112 1600 OFFCURVE",
"874 1600 CURVE SMOOTH",
"366 1600 OFFCURVE",
"140 1356 OFFCURVE",
"142 962 CURVE SMOOTH",
"144 406 LINE",
"30 406 LINE",
"30 0 LINE",
"774 0 LINE"
);
},
{
closed = 1;
nodes = (
"870 554 LINE",
"1122 548 OFFCURVE",
"1220 512 OFFCURVE",
"1220 434 CURVE SMOOTH",
"1220 384 OFFCURVE",
"1180 360 OFFCURVE",
"1124 360 CURVE SMOOTH",
"1088 360 OFFCURVE",
"1056 370 OFFCURVE",
"1024 388 CURVE",
"844 32 LINE",
"918 -6 OFFCURVE",
"1004 -24 OFFCURVE",
"1138 -24 CURVE SMOOTH",
"1556 -24 OFFCURVE",
"1744 148 OFFCURVE",
"1744 432 CURVE SMOOTH",
"1744 688 OFFCURVE",
"1592 822 OFFCURVE",
"1180 880 CURVE"
);
}
);
width = 1762;
},
{
anchors = (
{
name = bottom;
position = "{912, 0}";
},
{
name = top;
position = "{912, 1544}";
}
);
associatedMasterId = "BE4E587A-F76C-447B-AA28-A45E40876AAF";
layerId = "978908E6-F923-4EFA-A0A6-280AD933EC35";
leftMetricsKey = "=n+24";
name = "Jun 14 18, 18:35";
paths = (
{
closed = 1;
nodes = (
"696 1138 LINE",
"1626 1138 LINE",
"1626 1544 LINE",
"66 1544 LINE",
"66 1138 LINE",
"180 1138 LINE",
"180 406 LINE",
"66 406 LINE",
"66 0 LINE",
"810 0 LINE",
"810 406 LINE",
"696 406 LINE"
);
},
{
closed = 1;
nodes = (
"1476 1074 OFFCURVE",
"1534 1138 OFFCURVE",
"1626 1138 CURVE",
"1378 1258 LINE",
"1378 1158 LINE",
"1122 1158 OFFCURVE",
"980 1070 OFFCURVE",
"980 876 CURVE SMOOTH",
"980 602 OFFCURVE",
"1276 596 OFFCURVE",
"1276 468 CURVE SMOOTH",
"1276 420 OFFCURVE",
"1236 396 OFFCURVE",
"1180 396 CURVE SMOOTH",
"1144 396 OFFCURVE",
"1112 406 OFFCURVE",
"1080 424 CURVE",
"960 32 LINE",
"1018 -6 OFFCURVE",
"1088 -24 OFFCURVE",
"1194 -24 CURVE SMOOTH",
"1612 -24 OFFCURVE",
"1800 162 OFFCURVE",
"1800 448 CURVE SMOOTH",
"1800 832 OFFCURVE",
"1476 820 OFFCURVE",
"1476 996 CURVE SMOOTH"
);
}
);
width = 1804;
},
{
anchors = (
{
name = bottom;
position = "{878, 0}";
},
{
name = top;
position = "{878, 1544}";
}
);
associatedMasterId = "BE4E587A-F76C-447B-AA28-A45E40876AAF";
layerId = "8D85FC48-847F-4CE8-811B-F2DD12B9D3BB";
rightMetricsKey = "=S-14";
name = "Jun 14 18, 18:44";
paths = (
{
closed = 1;
nodes = (
"870 554 LINE",
"1406 782 LINE",
"1406 846 LINE",
"1590 1138 LINE",
"1590 1458 LINE",
"1000 1180 LINE",
"1000 1122 LINE",
"870 928 LINE"
);
},
{
closed = 1;
nodes = (
"870 554 LINE",
"1122 548 OFFCURVE",
"1220 512 OFFCURVE",
"1220 434 CURVE SMOOTH",
"1220 384 OFFCURVE",
"1180 360 OFFCURVE",
"1124 360 CURVE SMOOTH",
"1088 360 OFFCURVE",
"1056 370 OFFCURVE",
"1024 388 CURVE",
"844 32 LINE",
"918 -6 OFFCURVE",
"1004 -24 OFFCURVE",
"1138 -24 CURVE SMOOTH",
"1556 -24 OFFCURVE",
"1744 148 OFFCURVE",
"1744 432 CURVE SMOOTH",
"1744 688 OFFCURVE",
"1592 822 OFFCURVE",
"1180 880 CURVE"
);
},
{
closed = 1;
nodes = (
"660 1138 LINE",
"1590 1138 LINE",
"1590 1544 LINE",
"30 1544 LINE",
"30 1138 LINE",
"144 1138 LINE",
"144 406 LINE",
"30 406 LINE",
"30 0 LINE",
"774 0 LINE",
"774 406 LINE",
"660 406 LINE"
);
}
);
width = 1762;
},
{
anchors = (
{
name = bottom;
position = "{816, 0}";
},
{
name = top;
position = "{816, 1464}";
}
);
associatedMasterId = "2C5E45D0-97E8-45AA-A5B2-946753DF54E1";
layerId = "6979CB2E-6BA5-445D-83C5-231F14143F5E";
rightMetricsKey = "=S-24";
name = "Jun 19 18, 16:21";
paths = (
{
closed = 1;
nodes = (
"874 718 LINE",
"1116 818 LINE",
"1116 882 LINE",
"1424 1242 LINE",
"1424 1428 LINE",
"1172 1322 LINE",
"1172 1264 LINE",
"874 926 LINE"
);
},
{
closed = 1;
nodes = (
"636 188 LINE",
"432 188 LINE",
"432 976 LINE SMOOTH",
"432 1212 OFFCURVE",
"582 1324 OFFCURVE",
"882 1324 CURVE SMOOTH",
"1004 1324 OFFCURVE",
"1182 1306 OFFCURVE",
"1390 1238 CURVE",
"1424 1428 LINE",
"1204 1500 OFFCURVE",
"1006 1524 OFFCURVE",
"872 1524 CURVE SMOOTH",
"418 1524 OFFCURVE",
"230 1304 OFFCURVE",
"230 976 CURVE SMOOTH",
"228 186 LINE",
"24 186 LINE",
"24 0 LINE",
"636 0 LINE"
);
},
{
closed = 1;
nodes = (
"874 718 LINE",
"1220 694 OFFCURVE",
"1354 602 OFFCURVE",
"1354 424 CURVE SMOOTH",
"1354 260 OFFCURVE",
"1244 166 OFFCURVE",
"1068 166 CURVE SMOOTH",
"986 166 OFFCURVE",
"920 186 OFFCURVE",
"872 220 CURVE",
"766 52 LINE",
"838 2 OFFCURVE",
"936 -24 OFFCURVE",
"1066 -24 CURVE SMOOTH",
"1406 -24 OFFCURVE",
"1562 148 OFFCURVE",
"1562 422 CURVE SMOOTH",
"1562 698 OFFCURVE",
"1402 842 OFFCURVE",
"966 904 CURVE"
);
}
);
width = 1598;
},
{
anchors = (
{
name = bottom;
position = "{848, 0}";
},
{
name = top;
position = "{848, 1464}";
}
);
associatedMasterId = "67AEAADB-8447-4819-9D92-8BB76BD22042";
layerId = "524FC7C3-7809-4A0E-9271-AEA2F9F18816";
rightMetricsKey = "=S-20";
name = "Jun 20 18, 09:55";
paths = (
{
closed = 1;
nodes = (
"1030 834 LINE",
"1040 834 LINE",
"1040 844 LINE",
"1454 1402 LINE",
"1454 1416 LINE",
"1444 1412 LINE",
"1444 1406 LINE",
"1030 848 LINE"
);
},
{
closed = 1;
nodes = (
"660 10 LINE",
"362 10 LINE",
"362 1010 LINE SMOOTH",
"362 1310 OFFCURVE",
"512 1508 OFFCURVE",
"910 1508 CURVE SMOOTH",
"1074 1508 OFFCURVE",
"1282 1478 OFFCURVE",
"1446 1408 CURVE",
"1454 1416 LINE",
"1290 1486 OFFCURVE",
"1080 1518 OFFCURVE",
"910 1518 CURVE SMOOTH",
"506 1518 OFFCURVE",
"352 1316 OFFCURVE",
"352 1010 CURVE SMOOTH",
"352 10 LINE",
"54 10 LINE",
"54 0 LINE",
"660 0 LINE"
);
},
{
closed = 1;
nodes = (
"1030 834 LINE",
"1372 800 OFFCURVE",
"1546 662 OFFCURVE",
"1546 398 CURVE SMOOTH",
"1546 160 OFFCURVE",
"1404 -4 OFFCURVE",
"1092 -4 CURVE SMOOTH",
"992 -4 OFFCURVE",
"910 12 OFFCURVE",
"846 44 CURVE",
"842 36 LINE",
"908 4 OFFCURVE",
"990 -14 OFFCURVE",
"1092 -14 CURVE SMOOTH",
"1410 -14 OFFCURVE",
"1556 156 OFFCURVE",
"1556 398 CURVE SMOOTH",
"1556 668 OFFCURVE",
"1376 810 OFFCURVE",
"1032 844 CURVE"
);
}
);
width = 1648;
}
);
leftKerningGroup = H;
leftMetricsKey = "=H";
rightKerningGroup = B;
rightMetricsKey = "=B";
unicode = 1E9E;
},
{
color = 3;
glyphname = Schwa;
layers = (
{
anchors = (
{
name = bottom;
position = "{862, 0}";
},
{
name = top;
position = "{862, 1464}";
}
);
layerId = "67AEAADB-8447-4819-9D92-8BB76BD22042";
leftMetricsKey = "=O-4";
paths = (
{
closed = 1;
nodes = (
"104 772 LINE",
"104 762 LINE",
"1614 762 LINE",
"1614 772 LINE"
);
},
{
closed = 1;
nodes = (
"540 1518 OFFCURVE",
"274 1370 OFFCURVE",
"156 1076 CURVE",
"166 1072 LINE",
"284 1364 OFFCURVE",
"546 1508 OFFCURVE",
"860 1508 CURVE SMOOTH",
"1312 1508 OFFCURVE",
"1610 1198 OFFCURVE",
"1610 756 CURVE SMOOTH",
"1610 308 OFFCURVE",
"1302 -4 OFFCURVE",
"860 -4 CURVE SMOOTH",
"416 -4 OFFCURVE",
"110 308 OFFCURVE",
"110 756 CURVE SMOOTH",
"110 762 OFFCURVE",
"110 766 OFFCURVE",
"110 772 CURVE",
"100 772 LINE",
"100 768 OFFCURVE",
"100 762 OFFCURVE",
"100 756 CURVE SMOOTH",
"100 302 OFFCURVE",
"410 -14 OFFCURVE",
"860 -14 CURVE SMOOTH",
"1308 -14 OFFCURVE",
"1620 302 OFFCURVE",
"1620 756 CURVE SMOOTH",
"1620 1204 OFFCURVE",
"1318 1518 OFFCURVE",
"860 1518 CURVE SMOOTH"
);
}
);
width = 1724;
},
{
anchors = (
{
name = bottom;
position = "{852, 0}";
},
{
name = top;
position = "{852, 1464}";
}
);
layerId = "2C5E45D0-97E8-45AA-A5B2-946753DF54E1";
leftMetricsKey = "=O-6";
rightMetricsKey = "=O+4";
paths = (
{
closed = 1;
nodes = (
"90 856 LINE",
"106 676 LINE",
"1450 676 LINE",
"1450 856 LINE"
);
},
{
closed = 1;
nodes = (
"526 1526 OFFCURVE",
"260 1376 OFFCURVE",
"142 1076 CURVE",
"342 1000 LINE",
"416 1196 OFFCURVE",
"608 1326 OFFCURVE",
"846 1326 CURVE SMOOTH",
"1170 1326 OFFCURVE",
"1388 1094 OFFCURVE",
"1388 756 CURVE SMOOTH",
"1388 416 OFFCURVE",
"1164 178 OFFCURVE",
"846 178 CURVE SMOOTH",
"524 178 OFFCURVE",
"304 416 OFFCURVE",
"304 756 CURVE SMOOTH",
"304 782 OFFCURVE",
"304 806 OFFCURVE",
"304 834 CURVE",
"90 856 LINE",
"88 828 OFFCURVE",
"86 792 OFFCURVE",
"86 756 CURVE SMOOTH",
"86 298 OFFCURVE",
"396 -22 OFFCURVE",
"846 -22 CURVE SMOOTH",
"1294 -22 OFFCURVE",
"1606 298 OFFCURVE",
"1606 756 CURVE SMOOTH",
"1606 1208 OFFCURVE",
"1304 1526 OFFCURVE",
"846 1526 CURVE SMOOTH"
);
}
);
width = 1702;
},
{
anchors = (
{
name = bottom;
position = "{870, 0}";
},
{
name = top;
position = "{870, 1544}";
}
);
layerId = "BE4E587A-F76C-447B-AA28-A45E40876AAF";
leftMetricsKey = "=O+4";
paths = (
{
closed = 1;
nodes = (
"84 868 LINE",
"100 676 LINE",
"1444 676 LINE",
"1444 868 LINE"
);
},
{
closed = 1;
nodes = (
"504 1572 OFFCURVE",
"220 1394 OFFCURVE",
"94 1114 CURVE",
"582 900 LINE",
"626 1014 OFFCURVE",
"732 1086 OFFCURVE",
"872 1086 CURVE SMOOTH",
"1056 1086 OFFCURVE",
"1184 960 OFFCURVE",
"1184 776 CURVE SMOOTH",
"1184 588 OFFCURVE",
"1056 458 OFFCURVE",
"872 458 CURVE SMOOTH",
"688 458 OFFCURVE",
"560 588 OFFCURVE",
"560 776 CURVE SMOOTH",
"560 808 OFFCURVE",
"564 840 OFFCURVE",
"572 868 CURVE",
"30 868 LINE",
"28 838 OFFCURVE",
"26 808 OFFCURVE",
"26 776 CURVE SMOOTH",
"26 302 OFFCURVE",
"372 -28 OFFCURVE",
"872 -28 CURVE SMOOTH",
"1372 -28 OFFCURVE",
"1718 302 OFFCURVE",
"1718 776 CURVE SMOOTH",
"1718 1244 OFFCURVE",
"1372 1572 OFFCURVE",
"872 1572 CURVE SMOOTH"
);
}
);
width = 1740;
},
{
associatedMasterId = "BE4E587A-F76C-447B-AA28-A45E40876AAF";
layerId = "C52F069E-406C-4236-8650-9E28C7D0ABB4";
leftMetricsKey = "=O+4";
name = "Feb 21 18, 17:49";
paths = (
{
closed = 1;
nodes = (
"84 868 LINE",
"100 676 LINE",
"1444 676 LINE",
"1444 868 LINE"
);
},
{
closed = 1;
nodes = (
"576 1544 LINE",
"68 1544 LINE",
"68 904 LINE",
"576 904 LINE"
);
},
{
closed = 1;
nodes = (
"720 1572 OFFCURVE",
"610 1346 OFFCURVE",
"592 1012 CURVE",
"496 1012 LINE",
"576 904 LINE",
"614 1016 OFFCURVE",
"730 1086 OFFCURVE",
"874 1086 CURVE SMOOTH",
"1064 1086 OFFCURVE",
"1184 960 OFFCURVE",
"1184 776 CURVE SMOOTH",
"1184 588 OFFCURVE",
"1056 458 OFFCURVE",
"872 458 CURVE SMOOTH",
"688 458 OFFCURVE",
"560 588 OFFCURVE",
"560 776 CURVE SMOOTH",
"560 808 OFFCURVE",
"564 840 OFFCURVE",
"572 868 CURVE",
"30 868 LINE",
"28 838 OFFCURVE",
"26 808 OFFCURVE",
"26 776 CURVE SMOOTH",
"26 302 OFFCURVE",
"372 -28 OFFCURVE",
"872 -28 CURVE SMOOTH",
"1372 -28 OFFCURVE",
"1718 302 OFFCURVE",
"1718 776 CURVE SMOOTH",
"1718 1244 OFFCURVE",
"1374 1572 OFFCURVE",
"1018 1572 CURVE SMOOTH"
);
}
);
width = 1740;
},
{
anchors = (
{
name = bottom;
position = "{850, 0}";
},
{
name = top;
position = "{850, 1464}";
}
);
layerId = "A59F1195-5331-40FD-8BD6-3900E1073F61";
paths = (
{
closed = 1;
nodes = (
"91 789 LINE",
"94 744 LINE",
"1570 744 LINE",
"1570 789 LINE"
);
},
{
closed = 1;
nodes = (
"527 1520 OFFCURVE",
"261 1371 OFFCURVE",
"143 1076 CURVE",
"192 1057 LINE",
"301 1330 OFFCURVE",
"549 1471 OFFCURVE",
"847 1471 CURVE SMOOTH",
"1273 1471 OFFCURVE",
"1555 1177 OFFCURVE",
"1555 756 CURVE SMOOTH",
"1555 330 OFFCURVE",
"1264 33 OFFCURVE",
"847 33 CURVE SMOOTH",
"428 33 OFFCURVE",
"140 330 OFFCURVE",
"140 756 CURVE SMOOTH",
"140 766 OFFCURVE",
"140 774 OFFCURVE",
"140 785 CURVE",
"88 789 LINE",
"88 780 OFFCURVE",
"87 768 OFFCURVE",
"87 756 CURVE SMOOTH",
"87 301 OFFCURVE",
"397 -16 OFFCURVE",
"847 -16 CURVE SMOOTH",
"1295 -16 OFFCURVE",
"1607 301 OFFCURVE",
"1607 756 CURVE SMOOTH",
"1607 1205 OFFCURVE",
"1305 1520 OFFCURVE",
"847 1520 CURVE SMOOTH"
);
}
);
width = 1709;
}
);
leftKerningGroup = O;
rightKerningGroup = O;
rightMetricsKey = O;
unicode = 018F;
},
{
glyphname = T;
layers = (
{
anchors = (
{
name = bottom;
position = "{734, 0}";
},
{
name = top;
position = "{734, 1464}";
}
);
layerId = "67AEAADB-8447-4819-9D92-8BB76BD22042";
leftMetricsKey = "=|F+6";
paths = (
{
closed = 1;
nodes = (
"56 1504 LINE",
"56 1082 LINE",
"66 1082 LINE",
"66 1494 LINE",
"730 1494 LINE",
"730 10 LINE",
"432 10 LINE",
"432 0 LINE",
"1036 0 LINE",
"1036 10 LINE",
"740 10 LINE",
"740 1494 LINE",
"1404 1494 LINE",
"1404 1082 LINE",
"1414 1082 LINE",
"1414 1504 LINE"
);
}
);
width = 1470;
},
{
anchors = (
{
name = bottom;
position = "{772, 0}";
},
{
name = top;
position = "{772, 1464}";
}
);
layerId = "2C5E45D0-97E8-45AA-A5B2-946753DF54E1";
leftMetricsKey = "=|F+6";
paths = (
{
closed = 1;
nodes = (
"50 1504 LINE",
"50 1000 LINE",
"254 1000 LINE",
"254 1318 LINE",
"670 1318 LINE",
"670 186 LINE",
"450 186 LINE",
"450 0 LINE",
"1094 0 LINE",
"1094 186 LINE",
"874 186 LINE",
"874 1318 LINE",
"1290 1318 LINE",
"1290 1000 LINE",
"1494 1000 LINE",
"1494 1504 LINE"
);
}
);
width = 1544;
},
{
anchors = (
{
name = bottom;
position = "{892, 0}";
},
{
name = top;
position = "{892, 1464}";
}
);
associatedMasterId = "BE4E587A-F76C-447B-AA28-A45E40876AAF";
layerId = "1DCD6A0C-C43B-49AE-9011-5337C9DC4995";
name = "Feb 18 18, 17:30";
paths = (
{
closed = 1;
nodes = (
"14 1544 LINE",
"14 802 LINE",
"530 802 LINE",
"530 1130 LINE",
"634 1130 LINE",
"634 414 LINE",
"524 414 LINE",
"524 0 LINE",
"1260 0 LINE",
"1260 414 LINE",
"1150 414 LINE",
"1150 1130 LINE",
"1254 1130 LINE",
"1254 802 LINE",
"1770 802 LINE",
"1770 1544 LINE"
);
}
);
width = 1784;
},
{
anchors = (
{
name = bottom;
position = "{836, 0}";
},
{
name = top;
position = "{836, 1544}";
}
);
layerId = "BE4E587A-F76C-447B-AA28-A45E40876AAF";
leftMetricsKey = "=|F+6";
paths = (
{
closed = 1;
nodes = (
"24 1544 LINE",
"24 866 LINE",
"470 866 LINE",
"470 1130 LINE",
"578 1130 LINE",
"578 414 LINE",
"464 414 LINE",
"464 0 LINE",
"1208 0 LINE",
"1208 414 LINE",
"1094 414 LINE",
"1094 1130 LINE",
"1202 1130 LINE",
"1202 866 LINE",
"1648 866 LINE",
"1648 1544 LINE"
);
}
);
width = 1672;
},
{
anchors = (
{
name = bottom;
position = "{740, 0}";
},
{
name = top;
position = "{740, 1464}";
}
);
layerId = "A59F1195-5331-40FD-8BD6-3900E1073F61";
leftMetricsKey = "=|F+6";
paths = (
{
closed = 1;
nodes = (
"54 1504 LINE",
"54 1066 LINE",
"104 1066 LINE",
"104 1458 LINE",
"716 1458 LINE",
"716 46 LINE",
"434 46 LINE",
"434 0 LINE",
"1046 0 LINE",
"1046 46 LINE",
"766 46 LINE",
"766 1458 LINE",
"1380 1458 LINE",
"1380 1066 LINE",
"1430 1066 LINE",
"1430 1504 LINE"
);
}
);
width = 1484;
},
{
anchors = (
{
name = bottom;
position = "{754, 0}";
},
{
name = top;
position = "{754, 1544}";
}
);
associatedMasterId = "BE4E587A-F76C-447B-AA28-A45E40876AAF";
layerId = "FFB08B79-ED1A-4E7E-B83E-5CCF1D8EA113";
leftMetricsKey = "=|F+6";
name = "Jun 1 18, 23:39";
paths = (
{
closed = 1;
nodes = (
"24 1544 LINE",
"24 826 LINE",
"412 826 LINE",
"412 1130 LINE",
"496 1130 LINE",
"496 414 LINE",
"382 414 LINE",
"382 0 LINE",
"1126 0 LINE",
"1126 414 LINE",
"1012 414 LINE",
"1012 1130 LINE",
"1096 1130 LINE",
"1096 826 LINE",
"1484 826 LINE",
"1484 1544 LINE"
);
}
);
width = 1508;
}
);
leftKerningGroup = T;
leftMetricsKey = "=|F+6";
rightKerningGroup = T;
rightMetricsKey = "=|";
unicode = 0054;
},
{
glyphname = Tbar;
layers = (
{
components = (
{
name = T;
}
);
layerId = "67AEAADB-8447-4819-9D92-8BB76BD22042";
paths = (
{
closed = 1;
nodes = (
"1078 718 LINE",
"1078 728 LINE",
"364 728 LINE",
"364 718 LINE"
);
}
);
width = 1470;
},
{
components = (
{
name = T;
}
);
layerId = "2C5E45D0-97E8-45AA-A5B2-946753DF54E1";
paths = (
{
closed = 1;
nodes = (
"1134 674 LINE",
"1134 842 LINE",
"416 842 LINE",
"416 674 LINE"
);
}
);
width = 1544;
},
{
associatedMasterId = "BE4E587A-F76C-447B-AA28-A45E40876AAF";
components = (
{
name = T;
},
{
name = strokeshortcomb;
transform = "{1, 0, 0, 1, 216, -352}";
}
);
layerId = "4852D486-0973-4C57-ADF1-15C60083A50B";
name = "May 8 18, 14:12";
width = 1672;
},
{
components = (
{
name = T;
}
);
layerId = "BE4E587A-F76C-447B-AA28-A45E40876AAF";
paths = (
{
closed = 1;
nodes = (
"1206 482 LINE",
"1206 818 LINE",
"462 818 LINE",
"462 482 LINE"
);
}
);
width = 1672;
},
{
components = (
{
alignment = -1;
name = T;
}
);
layerId = "A59F1195-5331-40FD-8BD6-3900E1073F61";
paths = (
{
closed = 1;
nodes = (
"1088 704 LINE",
"1088 746 LINE",
"374 746 LINE",
"374 704 LINE"
);
}
);
width = 1484;
}
);
leftKerningGroup = T;
leftMetricsKey = T;
rightKerningGroup = T;
rightMetricsKey = T;
unicode = 0166;
},
{
glyphname = U;
layers = (
{
anchors = (
{
name = bottom;
position = "{878, 0}";
},
{
name = horn;
position = "{1548, 1504}";
},
{
name = ogonek;
position = "{1128, 26}";
},
{
name = top;
position = "{864, 1464}";
}
);
layerId = "67AEAADB-8447-4819-9D92-8BB76BD22042";
leftMetricsKey = "=|N-4";
rightMetricsKey = "=|+0";
paths = (
{
closed = 1;
nodes = (
"1122 1494 LINE",
"1420 1494 LINE",
"1420 598 LINE SMOOTH",
"1420 230 OFFCURVE",
"1282 -4 OFFCURVE",
"878 -4 CURVE SMOOTH",
"474 -4 OFFCURVE",
"338 230 OFFCURVE",
"338 598 CURVE SMOOTH",
"338 1494 LINE",
"634 1494 LINE",
"634 1504 LINE",
"30 1504 LINE",
"30 1494 LINE",
"328 1494 LINE",
"328 598 LINE SMOOTH",
"328 226 OFFCURVE",
"468 -14 OFFCURVE",
"878 -14 CURVE SMOOTH",
"1288 -14 OFFCURVE",
"1430 226 OFFCURVE",
"1430 598 CURVE SMOOTH",
"1430 1494 LINE",
"1726 1494 LINE",
"1726 1504 LINE",
"1122 1504 LINE"
);
}
);
width = 1756;
},
{
anchors = (
{
name = bottom;
position = "{864, 0}";
},
{
name = horn;
position = "{1336, 1544}";
},
{
name = ogonek;
position = "{1184, 50}";
},
{
name = top;
position = "{864, 1544}";
}
);
layerId = "BE4E587A-F76C-447B-AA28-A45E40876AAF";
leftMetricsKey = "=|J";
paths = (
{
closed = 1;
nodes = (
"936 1130 LINE",
"1064 1130 LINE",
"1064 666 LINE SMOOTH",
"1064 536 OFFCURVE",
"996 464 OFFCURVE",
"874 464 CURVE SMOOTH",
"750 464 OFFCURVE",
"676 536 OFFCURVE",
"676 666 CURVE SMOOTH",
"676 1130 LINE",
"804 1130 LINE",
"804 1544 LINE",
"30 1544 LINE",
"30 1130 LINE",
"140 1130 LINE",
"140 646 LINE SMOOTH",
"140 234 OFFCURVE",
"410 -22 OFFCURVE",
"842 -22 CURVE SMOOTH",
"1280 -22 OFFCURVE",
"1550 234 OFFCURVE",
"1550 646 CURVE SMOOTH",
"1550 1130 LINE",
"1660 1130 LINE",
"1660 1544 LINE",
"936 1544 LINE"
);
}
);
width = 1690;
},
{
anchors = (
{
name = bottom;
position = "{836, 0}";
},
{
name = horn;
position = "{1372, 1504}";
},
{
name = ogonek;
position = "{1130, 38}";
},
{
name = top;
position = "{836, 1464}";
}
);
layerId = "2C5E45D0-97E8-45AA-A5B2-946753DF54E1";
leftMetricsKey = "=|N-8";
rightMetricsKey = "=|";
paths = (
{
closed = 1;
nodes = (
"1024 1318 LINE",
"1244 1318 LINE",
"1244 574 LINE SMOOTH",
"1244 324 OFFCURVE",
"1090 174 OFFCURVE",
"838 174 CURVE SMOOTH",
"588 174 OFFCURVE",
"440 322 OFFCURVE",
"440 574 CURVE SMOOTH",
"440 1318 LINE",
"660 1318 LINE",
"660 1504 LINE",
"24 1504 LINE",
"24 1318 LINE",
"236 1318 LINE",
"236 574 LINE SMOOTH",
"236 202 OFFCURVE",
"464 -22 OFFCURVE",
"836 -22 CURVE SMOOTH",
"1208 -22 OFFCURVE",
"1436 202 OFFCURVE",
"1436 574 CURVE SMOOTH",
"1436 1318 LINE",
"1648 1318 LINE",
"1648 1504 LINE",
"1024 1504 LINE"
);
}
);
width = 1672;
},
{
anchors = (
{
name = bottom;
position = "{868, 0}";
},
{
name = horn;
position = "{1512, 1504}";
},
{
name = ogonek;
position = "{1128, 28}";
},
{
name = top;
position = "{858, 1464}";
}
);
layerId = "A59F1195-5331-40FD-8BD6-3900E1073F61";
leftMetricsKey = "=|N-6";
rightMetricsKey = "=|+0";
paths = (
{
closed = 1;
nodes = (
"1102 1458 LINE",
"1384 1458 LINE",
"1384 592 LINE SMOOTH",
"1384 250 OFFCURVE",
"1242 32 OFFCURVE",
"870 32 CURVE SMOOTH",
"496 32 OFFCURVE",
"358 250 OFFCURVE",
"358 592 CURVE SMOOTH",
"358 1458 LINE",
"638 1458 LINE",
"638 1504 LINE",
"28 1504 LINE",
"28 1458 LINE",
"308 1458 LINE",
"308 592 LINE SMOOTH",
"308 222 OFFCURVE",
"466 -16 OFFCURVE",
"868 -16 CURVE SMOOTH",
"1272 -16 OFFCURVE",
"1430 222 OFFCURVE",
"1430 592 CURVE SMOOTH",
"1430 1458 LINE",
"1710 1458 LINE",
"1710 1504 LINE",
"1102 1504 LINE"
);
}
);
width = 1738;
},
{
anchors = (
{
name = bottom;
position = "{864, 0}";
},
{
name = horn;
position = "{1336, 1544}";
},
{
name = ogonek;
position = "{1184, 50}";
},
{
name = top;
position = "{864, 1544}";
}
);
associatedMasterId = "BE4E587A-F76C-447B-AA28-A45E40876AAF";
layerId = "1300D978-1655-49E9-9A46-ADDF62E787DA";
leftMetricsKey = "=|J";
name = "Jun 1 18, 14:55";
paths = (
{
closed = 1;
nodes = (
"964 1130 LINE",
"1102 1130 LINE",
"1102 660 LINE SMOOTH",
"1102 516 OFFCURVE",
"1022 424 OFFCURVE",
"880 424 CURVE SMOOTH",
"738 424 OFFCURVE",
"656 516 OFFCURVE",
"656 660 CURVE SMOOTH",
"656 1130 LINE",
"794 1130 LINE",
"794 1544 LINE",
"30 1544 LINE",
"30 1130 LINE",
"140 1130 LINE",
"140 664 LINE SMOOTH",
"140 248 OFFCURVE",
"410 -22 OFFCURVE",
"842 -22 CURVE SMOOTH",
"1280 -22 OFFCURVE",
"1550 248 OFFCURVE",
"1550 664 CURVE SMOOTH",
"1550 1130 LINE",
"1660 1130 LINE",
"1660 1544 LINE",
"964 1544 LINE"
);
}
);
width = 1690;
}
);
leftKerningGroup = U;
rightKerningGroup = U;
rightMetricsKey = "=|";
unicode = 0055;
},
{
glyphname = Uhorn;
layers = (
{
anchors = (
{
name = _horn;
position = "{1548, 1504}";
},
{
name = bottom;
position = "{878, 0}";
},
{
name = horn;
position = "{1548, 1504}";
},
{
name = ogonek;
position = "{1128, 26}";
},
{
name = top;
position = "{864, 1464}";
}
);
layerId = "67AEAADB-8447-4819-9D92-8BB76BD22042";
rightMetricsKey = "=U-4";
paths = (
{
closed = 1;
nodes = (
"1122 1494 LINE",
"1420 1494 LINE",
"1420 598 LINE SMOOTH",
"1420 230 OFFCURVE",
"1282 -4 OFFCURVE",
"878 -4 CURVE SMOOTH",
"474 -4 OFFCURVE",
"338 230 OFFCURVE",
"338 598 CURVE SMOOTH",
"338 1494 LINE",
"634 1494 LINE",
"634 1504 LINE",
"30 1504 LINE",
"30 1494 LINE",
"328 1494 LINE",
"328 598 LINE SMOOTH",
"328 226 OFFCURVE",
"468 -14 OFFCURVE",
"878 -14 CURVE SMOOTH",
"1288 -14 OFFCURVE",
"1430 226 OFFCURVE",
"1430 598 CURVE SMOOTH",
"1430 1504 LINE",
"1122 1504 LINE"
);
},
{
closed = 1;
nodes = (
"1708 1748 LINE",
"1708 1670 LINE SMOOTH",
"1708 1558 OFFCURVE",
"1656 1504 OFFCURVE",
"1548 1504 CURVE",
"1424 1504 LINE",
"1424 1494 LINE",
"1548 1494 LINE SMOOTH",
"1662 1494 OFFCURVE",
"1718 1552 OFFCURVE",
"1718 1670 CURVE SMOOTH",
"1718 1748 LINE"
);
}
);
width = 1744;
},
{
anchors = (
{
name = _horn;
position = "{1336, 1544}";
},
{
name = bottom;
position = "{864, 0}";
},
{
name = horn;
position = "{1336, 1544}";
},
{
name = ogonek;
position = "{1184, 50}";
},
{
name = top;
position = "{864, 1544}";
}
);
layerId = "BE4E587A-F76C-447B-AA28-A45E40876AAF";
rightMetricsKey = "=U-162";
paths = (
{
closed = 1;
nodes = (
"936 1130 LINE",
"1064 1130 LINE",
"1064 666 LINE SMOOTH",
"1064 536 OFFCURVE",
"996 464 OFFCURVE",
"874 464 CURVE SMOOTH",
"750 464 OFFCURVE",
"676 536 OFFCURVE",
"676 666 CURVE SMOOTH",
"676 1130 LINE",
"804 1130 LINE",
"804 1544 LINE",
"30 1544 LINE",
"30 1130 LINE",
"140 1130 LINE",
"140 646 LINE SMOOTH",
"140 234 OFFCURVE",
"410 -22 OFFCURVE",
"842 -22 CURVE SMOOTH",
"1280 -22 OFFCURVE",
"1550 234 OFFCURVE",
"1550 646 CURVE SMOOTH",
"1550 1544 LINE",
"936 1544 LINE"
);
},
{
closed = 1;
nodes = (
"1422 1776 LINE",
"1422 1636 LINE SMOOTH",
"1422 1564 OFFCURVE",
"1392 1544 OFFCURVE",
"1336 1544 CURVE",
"1198 1544 LINE",
"1198 1138 LINE",
"1336 1138 LINE SMOOTH",
"1650 1138 OFFCURVE",
"1822 1336 OFFCURVE",
"1822 1636 CURVE SMOOTH",
"1822 1776 LINE"
);
}
);
width = 1690;
},
{
anchors = (
{
name = _horn;
position = "{1372, 1504}";
},
{
name = bottom;
position = "{836, 0}";
},
{
name = horn;
position = "{1372, 1504}";
},
{
name = ogonek;
position = "{1130, 38}";
},
{
name = top;
position = "{836, 1464}";
}
);
layerId = "2C5E45D0-97E8-45AA-A5B2-946753DF54E1";
rightMetricsKey = "=U-14";
paths = (
{
closed = 1;
nodes = (
"1024 1318 LINE",
"1244 1318 LINE",
"1244 574 LINE SMOOTH",
"1244 324 OFFCURVE",
"1090 174 OFFCURVE",
"838 174 CURVE SMOOTH",
"588 174 OFFCURVE",
"440 322 OFFCURVE",
"440 574 CURVE SMOOTH",
"440 1318 LINE",
"660 1318 LINE",
"660 1504 LINE",
"24 1504 LINE",
"24 1318 LINE",
"236 1318 LINE",
"236 574 LINE SMOOTH",
"236 202 OFFCURVE",
"464 -22 OFFCURVE",
"836 -22 CURVE SMOOTH",
"1208 -22 OFFCURVE",
"1436 202 OFFCURVE",
"1436 574 CURVE SMOOTH",
"1436 1504 LINE",
"1024 1504 LINE"
);
},
{
closed = 1;
nodes = (
"1454 1760 LINE",
"1454 1586 LINE SMOOTH",
"1454 1522 OFFCURVE",
"1424 1504 OFFCURVE",
"1372 1504 CURVE",
"1306 1504 LINE",
"1306 1318 LINE",
"1372 1318 LINE SMOOTH",
"1562 1318 OFFCURVE",
"1658 1424 OFFCURVE",
"1658 1584 CURVE SMOOTH",
"1658 1760 LINE"
);
}
);
width = 1668;
},
{
anchors = (
{
name = _horn;
position = "{1512, 1504}";
},
{
name = bottom;
position = "{868, 0}";
},
{
name = horn;
position = "{1512, 1504}";
},
{
name = ogonek;
position = "{1128, 28}";
},
{
name = top;
position = "{858, 1464}";
}
);
layerId = "A59F1195-5331-40FD-8BD6-3900E1073F61";
rightMetricsKey = "=U-8";
paths = (
{
closed = 1;
nodes = (
"1102 1458 LINE",
"1384 1458 LINE",
"1384 592 LINE SMOOTH",
"1384 250 OFFCURVE",
"1242 32 OFFCURVE",
"870 32 CURVE SMOOTH",
"496 32 OFFCURVE",
"358 250 OFFCURVE",
"358 592 CURVE SMOOTH",
"358 1458 LINE",
"638 1458 LINE",
"638 1504 LINE",
"28 1504 LINE",
"28 1458 LINE",
"308 1458 LINE",
"308 592 LINE SMOOTH",
"308 222 OFFCURVE",
"466 -16 OFFCURVE",
"868 -16 CURVE SMOOTH",
"1272 -16 OFFCURVE",
"1430 222 OFFCURVE",
"1430 592 CURVE SMOOTH",
"1430 1504 LINE",
"1102 1504 LINE"
);
},
{
closed = 1;
nodes = (
"1656 1750 LINE",
"1656 1652 LINE SMOOTH",
"1656 1550 OFFCURVE",
"1608 1504 OFFCURVE",
"1512 1504 CURVE",
"1410 1504 LINE",
"1410 1458 LINE",
"1512 1458 LINE SMOOTH",
"1642 1458 OFFCURVE",
"1706 1526 OFFCURVE",
"1706 1652 CURVE SMOOTH",
"1706 1750 LINE"
);
}
);
width = 1726;
},
{
associatedMasterId = "BE4E587A-F76C-447B-AA28-A45E40876AAF";
components = (
{
alignment = -1;
name = U;
},
{
name = horncomb.alt.case;
transform = "{1, 0, 0, 1, 1112, 0}";
}
);
layerId = "D8CB2559-4F20-46E1-A2F9-013DC669C34D";
rightMetricsKey = "=U-162";
name = "Jul 19 18, 11:22";
width = 1690;
},
{
associatedMasterId = "2C5E45D0-97E8-45AA-A5B2-946753DF54E1";
components = (
{
alignment = -1;
name = U;
},
{
name = horncomb.alt.case;
transform = "{1, 0, 0, 1, 1164, 0}";
}
);
layerId = "A26F94E4-0643-4D41-B930-E5A83224537B";
rightMetricsKey = "=U-14";
name = "Jul 19 18, 11:22";
width = 1668;
},
{
associatedMasterId = "A59F1195-5331-40FD-8BD6-3900E1073F61";
components = (
{
alignment = -1;
name = U;
},
{
name = horncomb.alt.case;
transform = "{1, 0, 0, 1, 1390, 0}";
}
);
layerId = "BADED878-948E-4A12-97C3-554614F2732A";
rightMetricsKey = "=U-8";
name = "Jul 19 18, 11:22";
width = 1730;
},
{
associatedMasterId = "67AEAADB-8447-4819-9D92-8BB76BD22042";
components = (
{
alignment = -1;
name = U;
},
{
name = horncomb.alt.case;
transform = "{1, 0, 0, 1, 1448, 0}";
}
);
layerId = "7008E99B-83F1-43BD-9AC1-7A9E5404DEC8";
rightMetricsKey = "=U-4";
name = "Jul 19 18, 11:22";
width = 1752;
}
);
leftKerningGroup = U;
leftMetricsKey = U;
rightKerningGroup = Uhorn;
rightMetricsKey = U;
unicode = 01AF;
},
{
glyphname = V;
layers = (
{
anchors = (
{
name = bottom;
position = "{850, 0}";
},
{
name = top;
position = "{850, 1464}";
}
);
layerId = "67AEAADB-8447-4819-9D92-8BB76BD22042";
paths = (
{
closed = 1;
nodes = (
"1662 1494 LINE",
"1662 1504 LINE",
"1070 1504 LINE",
"1070 1494 LINE",
"1492 1494 LINE",
"846 0 LINE",
"860 12 LINE",
"842 12 LINE",
"854 0 LINE",
"208 1494 LINE",
"630 1494 LINE",
"630 1504 LINE",
"38 1504 LINE",
"38 1494 LINE",
"196 1494 LINE",
"842 0 LINE",
"858 0 LINE",
"1504 1494 LINE"
);
}
);
width = 1700;
},
{
anchors = (
{
name = bottom;
position = "{882, 0}";
},
{
name = top;
position = "{882, 1544}";
}
);
layerId = "BE4E587A-F76C-447B-AA28-A45E40876AAF";
paths = (
{
closed = 1;
nodes = (
"1698 1130 LINE",
"1698 1544 LINE",
"972 1544 LINE",
"972 1130 LINE",
"1124 1130 LINE",
"828 164 LINE",
"1006 456 LINE",
"810 456 LINE",
"988 164 LINE",
"692 1130 LINE",
"844 1130 LINE",
"844 1544 LINE",
"26 1544 LINE",
"26 1130 LINE",
"120 1130 LINE",
"530 0 LINE",
"1194 0 LINE",
"1604 1130 LINE"
);
}
);
width = 1724;
},
{
anchors = (
{
name = bottom;
position = "{792, 0}";
},
{
name = top;
position = "{792, 1464}";
}
);
layerId = "2C5E45D0-97E8-45AA-A5B2-946753DF54E1";
paths = (
{
closed = 1;
nodes = (
"1562 1318 LINE",
"1562 1504 LINE",
"912 1504 LINE",
"912 1318 LINE",
"1230 1318 LINE",
"776 164 LINE",
"888 236 LINE",
"692 236 LINE",
"826 164 LINE",
"372 1318 LINE",
"690 1318 LINE",
"690 1504 LINE",
"24 1504 LINE",
"24 1318 LINE",
"158 1318 LINE",
"680 0 LINE",
"906 0 LINE",
"1428 1318 LINE"
);
}
);
width = 1586;
},
{
associatedMasterId = "2C5E45D0-97E8-45AA-A5B2-946753DF54E1";
layerId = "AFE836BF-BED8-4873-A40F-41FB53FF2B31";
name = "Feb 23 18, 16:00";
paths = (
{
closed = 1;
nodes = (
"1710 1318 LINE",
"1710 1504 LINE",
"992 1504 LINE",
"992 1318 LINE",
"1318 1318 LINE",
"856 164 LINE",
"968 236 LINE",
"772 236 LINE",
"906 164 LINE",
"444 1318 LINE",
"770 1318 LINE",
"770 1504 LINE",
"28 1504 LINE",
"28 1318 LINE",
"222 1318 LINE",
"752 0 LINE",
"986 0 LINE",
"1516 1318 LINE"
);
}
);
width = 1738;
},
{
anchors = (
{
name = bottom;
position = "{856, 0}";
},
{
name = top;
position = "{856, 1464}";
}
);
layerId = "A59F1195-5331-40FD-8BD6-3900E1073F61";
paths = (
{
closed = 1;
nodes = (
"1676 1458 LINE",
"1676 1504 LINE",
"1030 1504 LINE",
"1030 1458 LINE",
"1456 1458 LINE",
"848 34 LINE",
"882 58 LINE",
"828 58 LINE",
"866 34 LINE",
"258 1458 LINE",
"684 1458 LINE",
"684 1504 LINE",
"36 1504 LINE",
"36 1458 LINE",
"206 1458 LINE",
"826 0 LINE",
"886 0 LINE",
"1506 1458 LINE"
);
}
);
width = 1712;
},
{
anchors = (
{
name = bottom;
position = "{796, 0}";
},
{
name = top;
position = "{796, 1464}";
}
);
associatedMasterId = "2C5E45D0-97E8-45AA-A5B2-946753DF54E1";
layerId = "F3B175C3-65CB-4352-8442-9A36B0BD7BD5";
name = "May 29 18, 15:16";
paths = (
{
closed = 1;
nodes = (
"1570 1318 LINE",
"1570 1504 LINE",
"916 1504 LINE",
"916 1318 LINE",
"1234 1318 LINE",
"780 164 LINE",
"892 236 LINE",
"696 236 LINE",
"830 164 LINE",
"376 1318 LINE",
"694 1318 LINE",
"694 1504 LINE",
"20 1504 LINE",
"20 1318 LINE",
"154 1318 LINE",
"676 0 LINE",
"914 0 LINE",
"1436 1318 LINE"
);
}
);
width = 1590;
}
);
leftKerningGroup = V;
leftMetricsKey = A;
rightKerningGroup = V;
rightMetricsKey = A;
unicode = 0056;
},
{
glyphname = W;
layers = (
{
anchors = (
{
name = bottom;
position = "{1284, 0}";
},
{
name = top;
position = "{1284, 1464}";
}
);
layerId = "67AEAADB-8447-4819-9D92-8BB76BD22042";
paths = (
{
closed = 1;
nodes = (
"1926 1494 LINE",
"2334 1494 LINE",
"1822 0 LINE",
"1834 16 LINE",
"1818 16 LINE",
"1830 0 LINE",
"1292 1494 LINE",
"1628 1494 LINE",
"1628 1504 LINE",
"940 1504 LINE",
"940 1494 LINE",
"1276 1494 LINE",
"734 0 LINE",
"748 16 LINE",
"730 16 LINE",
"742 0 LINE",
"232 1494 LINE",
"640 1494 LINE",
"640 1504 LINE",
"38 1504 LINE",
"38 1494 LINE",
"220 1494 LINE",
"730 0 LINE",
"746 0 LINE",
"1288 1494 LINE",
"1276 1478 LINE",
"1292 1478 LINE",
"1280 1494 LINE",
"1818 0 LINE",
"1834 0 LINE",
"2346 1494 LINE",
"2528 1494 LINE",
"2528 1504 LINE",
"1926 1504 LINE"
);
}
);
width = 2566;
},
{
anchors = (
{
name = bottom;
position = "{1292, 0}";
},
{
name = top;
position = "{1292, 1544}";
}
);
layerId = "BE4E587A-F76C-447B-AA28-A45E40876AAF";
paths = (
{
closed = 1;
nodes = (
"1870 1130 LINE",
"2006 1130 LINE",
"1738 0 LINE",
"2036 514 LINE",
"1700 514 LINE",
"2018 0 LINE",
"1644 1130 LINE",
"1782 1130 LINE",
"1782 1544 LINE",
"920 1544 LINE",
"920 1130 LINE",
"1054 1130 LINE",
"684 0 LINE",
"982 514 LINE",
"666 514 LINE",
"964 0 LINE",
"696 1130 LINE",
"832 1130 LINE",
"832 1544 LINE",
"26 1544 LINE",
"26 1130 LINE",
"140 1130 LINE",
"446 0 LINE",
"1100 0 LINE",
"1446 1130 LINE",
"1224 614 LINE",
"1412 614 LINE",
"1152 1130 LINE",
"1472 0 LINE",
"2122 0 LINE",
"2428 1130 LINE",
"2542 1130 LINE",
"2542 1544 LINE",
"1870 1544 LINE"
);
}
);
width = 2568;
},
{
anchors = (
{
name = bottom;
position = "{1184, 0}";
},
{
name = top;
position = "{1184, 1464}";
}
);
layerId = "2C5E45D0-97E8-45AA-A5B2-946753DF54E1";
paths = (
{
closed = 1;
nodes = (
"1748 1318 LINE",
"2026 1318 LINE",
"1592 0 LINE",
"1762 248 LINE",
"1566 248 LINE",
"1748 0 LINE",
"1306 1318 LINE",
"1524 1318 LINE",
"1524 1504 LINE",
"850 1504 LINE",
"850 1318 LINE",
"1080 1318 LINE",
"630 0 LINE",
"800 248 LINE",
"604 248 LINE",
"786 0 LINE",
"356 1318 LINE",
"616 1318 LINE",
"616 1504 LINE",
"24 1504 LINE",
"24 1318 LINE",
"148 1318 LINE",
"586 0 LINE",
"824 0 LINE",
"1268 1318 LINE",
"1092 1062 LINE",
"1280 1062 LINE",
"1106 1318 LINE",
"1540 0 LINE",
"1782 0 LINE",
"2220 1318 LINE",
"2344 1318 LINE",
"2344 1504 LINE",
"1748 1504 LINE"
);
}
);
width = 2368;
},
{
anchors = (
{
name = bottom;
position = "{1264, 0}";
},
{
name = top;
position = "{1264, 1464}";
}
);
layerId = "A59F1195-5331-40FD-8BD6-3900E1073F61";
paths = (
{
closed = 1;
nodes = (
"1890 1458 LINE",
"2272 1458 LINE",
"1776 0 LINE",
"1820 64 LINE",
"1766 64 LINE",
"1814 0 LINE",
"1294 1458 LINE",
"1606 1458 LINE",
"1606 1504 LINE",
"922 1504 LINE",
"922 1458 LINE",
"1236 1458 LINE",
"712 0 LINE",
"758 64 LINE",
"704 64 LINE",
"750 0 LINE",
"258 1458 LINE",
"636 1458 LINE",
"636 1504 LINE",
"36 1504 LINE",
"36 1458 LINE",
"206 1458 LINE",
"700 0 LINE",
"762 0 LINE",
"1284 1458 LINE",
"1238 1394 LINE",
"1290 1394 LINE",
"1244 1458 LINE",
"1762 0 LINE",
"1824 0 LINE",
"2320 1458 LINE",
"2490 1458 LINE",
"2490 1504 LINE",
"1890 1504 LINE"
);
}
);
width = 2526;
},
{
anchors = (
{
name = bottom;
position = "{1198, 0}";
},
{
name = top;
position = "{1198, 1464}";
}
);
associatedMasterId = "2C5E45D0-97E8-45AA-A5B2-946753DF54E1";
layerId = "428322A7-FC8C-429F-9AB5-4F268DA8697E";
name = "May 29 18, 15:15";
paths = (
{
closed = 1;
nodes = (
"1774 1318 LINE",
"2052 1318 LINE",
"1612 0 LINE",
"1782 244 LINE",
"1586 244 LINE",
"1770 0 LINE",
"1328 1318 LINE",
"1544 1318 LINE",
"1544 1504 LINE",
"864 1504 LINE",
"864 1318 LINE",
"1092 1318 LINE",
"644 0 LINE",
"814 244 LINE",
"618 244 LINE",
"800 0 LINE",
"368 1318 LINE",
"628 1318 LINE",
"628 1504 LINE",
"20 1504 LINE",
"20 1318 LINE",
"144 1318 LINE",
"592 0 LINE",
"842 0 LINE",
"1282 1318 LINE",
"1106 1062 LINE",
"1294 1062 LINE",
"1120 1318 LINE",
"1554 0 LINE",
"1808 0 LINE",
"2250 1318 LINE",
"2374 1318 LINE",
"2374 1504 LINE",
"1774 1504 LINE"
);
}
);
width = 2394;
},
{
anchors = (
{
name = bottom;
position = "{1304, 0}";
},
{
name = top;
position = "{1304, 1464}";
}
);
associatedMasterId = "67AEAADB-8447-4819-9D92-8BB76BD22042";
layerId = "70C7AB0A-98A8-460F-A835-0307C2F4DBBC";
name = "Jun 6 18, 15:17";
paths = (
{
closed = 1;
nodes = (
"1946 1494 LINE",
"2354 1494 LINE",
"1842 0 LINE",
"1854 16 LINE",
"1838 16 LINE",
"1852 0 LINE",
"1314 1494 LINE",
"1650 1494 LINE",
"1650 1504 LINE",
"960 1504 LINE",
"960 1494 LINE",
"1296 1494 LINE",
"754 0 LINE",
"768 16 LINE",
"750 16 LINE",
"762 0 LINE",
"252 1494 LINE",
"660 1494 LINE",
"660 1504 LINE",
"32 1504 LINE",
"32 1494 LINE",
"238 1494 LINE",
"748 0 LINE",
"766 0 LINE",
"1308 1494 LINE",
"1296 1478 LINE",
"1312 1478 LINE",
"1300 1494 LINE",
"1838 0 LINE",
"1854 0 LINE",
"2366 1494 LINE",
"2572 1494 LINE",
"2572 1504 LINE",
"1946 1504 LINE"
);
}
);
width = 2606;
}
);
leftKerningGroup = W;
leftMetricsKey = V;
rightKerningGroup = W;
rightMetricsKey = V;
unicode = 0057;
},
